<?xml version="1.0" encoding="utf-8"?>
<!-- Generator: Adobe Illustrator 18.1.1, SVG Export Plug-In . SVG Version: 6.00 Build 0)  -->
<svg version="1.1" id="Laag_1" xmlns="http://www.w3.org/2000/svg" xmlns:xlink="http://www.w3.org/1999/xlink" x="0px" y="0px"
	 width="3.5px" height="6px" viewBox="0 0 3.5 6" enable-background="new 0 0 3.5 6" xml:space="preserve">
<path fill-rule="evenodd" clip-rule="evenodd" d="M3.1,5.9C3.1,6,3,6,3,6c0,0-0.1,0-0.1-0.1L0.1,3.1C0,3.1,0,3,0,3
	c0,0,0-0.1,0.1-0.1l2.8-2.8C2.9,0,3,0,3,0c0,0,0.1,0,0.1,0.1l0.3,0.3c0,0,0.1,0.1,0.1,0.1c0,0,0,0.1-0.1,0.1L1.1,3l2.4,2.4
	c0,0,0.1,0.1,0.1,0.1c0,0,0,0.1-0.1,0.1L3.1,5.9"/>
</svg>
