<?xml version="1.0" encoding="utf-8"?>
<!-- Generator: Adobe Illustrator 18.1.1, SVG Export Plug-In . SVG Version: 6.00 Build 0)  -->
<svg version="1.1" id="Laag_1" xmlns="http://www.w3.org/2000/svg" xmlns:xlink="http://www.w3.org/1999/xlink" x="0px" y="0px"
	 width="3.5px" height="6px" viewBox="0 0 3.5 6" enable-background="new 0 0 3.5 6" xml:space="preserve">
<path fill-rule="evenodd" clip-rule="evenodd" d="M0.4,0.1C0.4,0,0.5,0,0.5,0c0,0,0.1,0,0.1,0.1l2.8,2.8c0,0,0.1,0.1,0.1,0.1
	c0,0,0,0.1-0.1,0.1L0.6,5.9C0.6,6,0.5,6,0.5,6c0,0-0.1,0-0.1-0.1L0.1,5.6C0,5.6,0,5.6,0,5.5c0,0,0-0.1,0.1-0.1L2.4,3L0.1,0.6
	C0,0.6,0,0.5,0,0.5c0,0,0-0.1,0.1-0.1L0.4,0.1"/>
</svg>
