<?xml version="1.0" encoding="utf-8"?>
<!-- Generator: Adobe Illustrator 18.1.1, SVG Export Plug-In . SVG Version: 6.00 Build 0)  -->
<svg version="1.1" id="Laag_1" xmlns="http://www.w3.org/2000/svg" xmlns:xlink="http://www.w3.org/1999/xlink" x="0px" y="0px"
	 width="6px" height="3.5px" viewBox="0 0 6 3.5" enable-background="new 0 0 6 3.5" xml:space="preserve">
<path fill-rule="evenodd" clip-rule="evenodd" d="M5.9,0.4C6,0.4,6,0.5,6,0.5c0,0,0,0.1-0.1,0.1L3.1,3.4c0,0-0.1,0.1-0.1,0.1
	c0,0-0.1,0-0.1-0.1L0.1,0.6C0,0.6,0,0.5,0,0.5c0,0,0-0.1,0.1-0.1l0.3-0.3C0.4,0,0.4,0,0.5,0c0,0,0.1,0,0.1,0.1L3,2.4l2.4-2.4
	C5.4,0,5.5,0,5.5,0c0,0,0.1,0,0.1,0.1L5.9,0.4"/>
</svg>
