<?xml version="1.0" encoding="utf-8"?>
<!-- Generator: Adobe Illustrator 19.2.1, SVG Export Plug-In . SVG Version: 6.00 Build 0)  -->
<svg version="1.1" id="Layer_1" xmlns="http://www.w3.org/2000/svg" xmlns:xlink="http://www.w3.org/1999/xlink" x="0px" y="0px"
	 viewBox="0 0 30 30" style="enable-background:new 0 0 30 30;" xml:space="preserve">
<path d="M15,25.8C9.1,25.8,4.2,20.9,4.2,15S9.1,4.2,15,4.2S25.8,9.1,25.8,15S20.9,25.8,15,25.8 M30,15c0-1.3-0.7-2.5-2-3.5
	c0.6-1.5,0.7-2.9,0-4c-0.6-1.1-1.9-1.8-3.5-2c-0.2-1.6-0.9-2.9-2-3.5c-1.1-0.6-2.5-0.6-4,0c-1-1.3-2.2-2-3.5-2s-2.5,0.7-3.5,2
	c-1.5-0.6-2.9-0.7-4,0c-1.1,0.6-1.8,1.9-2,3.5C3.9,5.7,2.6,6.4,2,7.5c-0.6,1.1-0.6,2.5,0,4c-1.3,1-2,2.2-2,3.5c0,1.3,0.7,2.5,2,3.5
	c-0.6,1.5-0.7,2.9,0,4c0.6,1.1,1.9,1.8,3.5,2c0.2,1.6,0.9,2.9,2,3.5c1.1,0.6,2.5,0.6,4,0c1,1.3,2.2,2,3.5,2s2.5-0.7,3.5-2
	c1.5,0.6,2.9,0.7,4,0c1.1-0.6,1.8-1.9,2-3.5c1.6-0.2,2.9-0.9,3.5-2c0.6-1.1,0.6-2.5,0-4C29.3,17.5,30,16.3,30,15"/>
<path d="M20.8,11l-6,9.9c-0.2,0.3-0.5,0.4-0.8,0.4h0c-0.3,0-0.6-0.2-0.8-0.4l-3.9-6.6C9,14,9.1,13.5,9.4,13.2c0.3-0.3,0.9-0.3,1.2,0
	l3.2,2.8l5.4-6.1c0.3-0.4,0.9-0.4,1.2-0.1C20.9,10.1,21,10.6,20.8,11 M15,5.4c-5.3,0-9.6,4.3-9.6,9.6c0,5.3,4.3,9.6,9.6,9.6
	s9.6-4.3,9.6-9.6C24.6,9.7,20.3,5.4,15,5.4"/>
</svg>
