<?xml version="1.0" encoding="utf-8"?>
<!-- Generator: Adobe Illustrator 19.2.1, SVG Export Plug-In . SVG Version: 6.00 Build 0)  -->
<svg version="1.1" id="Layer_1" xmlns="http://www.w3.org/2000/svg" xmlns:xlink="http://www.w3.org/1999/xlink" x="0px" y="0px"
	 viewBox="0 0 33 19.7" style="enable-background:new 0 0 33 19.7;" xml:space="preserve">
<path d="M10.5,12.1c-0.5-0.2-0.9-0.3-1.2-0.4c-0.2-0.1-0.3-0.2-0.4-0.4c-0.1-0.3-0.1-0.6-0.1-0.6c0.5-0.6,0.9-1.4,1.1-2.4
	c0.5-0.2,0.6-0.9,0.6-1.3c0-0.4-0.1-0.7-0.2-0.7c-0.1-0.1-0.3,0-0.3,0c0.1-0.9,0.2-2.7-0.2-3.4C9.5,2.3,9,2,8.1,2.2
	c-0.6-0.3-1-0.7-2-0.4C5.3,2,4.5,2.4,4.1,2.9C3.6,3.6,3.8,5.5,3.8,6.4c-0.1,0-0.2-0.2-0.4-0.1C3.3,6.4,3.2,6.6,3.2,7.1
	c0,0.4,0.1,1.1,0.7,1.3c0.1,1,0.5,1.7,1,2.3c0,0,0,0.3-0.1,0.6c0,0.2-0.2,0.4-0.4,0.5c-0.9,0.2-2.9,0.9-3.5,1.6
	C0.1,14.2,0,17.5,0,17.5h6.5c0.3-1.4,0.7-3.2,1.5-4C8.6,13,9.5,12.5,10.5,12.1"/>
<path d="M32.1,13.9c-0.3-0.3-0.9-0.6-1.5-0.9c-0.8-0.4-1.8-0.8-2.2-1c-0.2-0.1-0.3-0.2-0.3-0.4c0-0.2-0.1-0.6-0.1-0.9
	c1.2-0.1,2.3-0.2,2.7-0.3c0.1,0,0.1-0.1,0.1-0.2c-0.2-0.5-0.8-2.2-0.9-3.1c-0.2-2.2-0.2-6-3.1-5.1c0,0-1.9-1.2-3.4,0.8
	c-1.1,1.4-0.8,3.3-0.9,4.3c0,0.7-0.6,2.4-0.9,2.9c-0.1,0.1,0,0.2,0.1,0.2c0.5,0.2,1.5,0.3,2.7,0.4c0,0.3-0.1,0.7-0.1,1
	c0,0.2-0.2,0.4-0.3,0.4c-0.2,0.1-0.5,0.2-0.8,0.3c0.9,0.4,1.6,0.8,2,1.2c0.8,0.8,1.3,2.6,1.5,4H33C33,17.5,33,14.8,32.1,13.9"/>
<path d="M19.6,12.4c-0.3-0.1-0.5-0.3-0.6-0.6c-0.1-0.3-0.1-0.6-0.1-0.6c0.7-0.8,1.3-1.8,1.4-3.1c0.7-0.2,0.8-1.1,0.8-1.6
	c0-0.5-0.1-0.8-0.3-0.9c-0.1,0-0.2,0-0.3,0c0.1-1.1,0.1-3.3-0.3-4.2c-0.5-0.9-1.2-1.1-2.4-0.8c-0.8-0.4-1.3-0.8-2.7-0.4
	c-0.9,0.3-2,0.7-2.5,1.4c-0.6,0.8-0.5,3-0.4,4.1c-0.1,0-0.2,0-0.3,0c-0.2,0.1-0.3,0.4-0.3,0.9c0,0.5,0.1,1.4,0.8,1.6
	c0.2,1.8,1.1,2.9,2.3,3.9c0.3,0.3,0.8,0.4,1.4,0.4c0,0.1,0,0.2-0.2,0.3c-0.3,0.1-1.4,0.3-2.5-0.3c0,0,0,0,0,0
	c-0.8,0.2-3.8,1.1-4.7,2c-1.1,1.1-1.5,5.3-1.5,5.3h18.1c0,0-0.4-4.2-1.5-5.3C23.3,13.5,20.7,12.8,19.6,12.4"/>
</svg>
