<?xml version="1.0" encoding="utf-8"?>
<!-- Generator: Adobe Illustrator 19.2.1, SVG Export Plug-In . SVG Version: 6.00 Build 0)  -->
<svg version="1.1" id="Layer_1" xmlns="http://www.w3.org/2000/svg" xmlns:xlink="http://www.w3.org/1999/xlink" x="0px" y="0px"
	 viewBox="0 0 57.9 36.4" style="enable-background:new 0 0 57.9 36.4;" xml:space="preserve">
<style type="text/css">
	.st0{fill:#123552;}
</style>
<path class="st0" d="M51.4,0.3l-6.2,2.1c-2.4,0.8-4-0.6-5-1.2c-2.2-1.5-5-1.4-7.2,0.1s-5.4,4.2-10.4,6.8c-1.5,0.8-1.8,2.1-1.1,3
	c1.7,2.1,6.9,0.5,9.4-0.5c5.2-2,5.7-3.4,8.6-1l10.1,8.2c6.9-2.2,8.1-4.2,8.1-4.2L51.4,0.3z"/>
<path class="st0" d="M38.4,11.1c-1.4-1.1-1.4-1.1-3.7,0c-1.8,0.8-6.3,2.9-10.3,2.9c-2,0-3.5-0.6-4.5-1.8c-1.5-1.9-0.8-4.7,1.8-6
	c2.1-1.1,3.9-2.2,5.5-3.3l-2.4-1.7c-2.1-1.5-5-1.5-7.2-0.1c-1,0.7-2.6,2-5,1.2L6.5,0.3L0,13.6c0,0,1,1.6,6.1,3.5
	c3.1-2.8,4.3-3.5,6.1-3.5c1.8,0,3.6,0.9,4.6,2.5c2.1-0.8,4.6,0.1,6,1.7c0.6,0.8,1.1,1.8,1.2,2.8c3.2,1.1,4.4,4.5,3.4,7.1
	c2.2,1.8,2.5,5,1,7.3c3,2.5,6.1-0.7,6.3-2.7c2.6-0.3,4-1.6,4.2-4.5c2.4,0,4.8-1.8,4.4-4.6c3.1,0.6,5.5-3.5,3.5-5.1
	C43.3,15.1,49,19.6,38.4,11.1"/>
<path class="st0" d="M24.4,28.5l0.4-0.4c1.3-1.1,1.2-3.3,0.2-4.6c-0.7-0.9-1.9-1.4-3.1-1.2c1-3.4-3.1-5.7-5.2-3.9l-1,0.8
	c0-3.2-3.5-4.7-5.7-2.9l-2.5,2c-2,1.7-1.8,3.8-0.7,5.1c1.2,1.4,2.9,1.5,4.2,0.8c-0.1,0.9,0.2,1.8,0.8,2.5c0.7,0.9,1.9,1.4,3.1,1.2
	c-0.3,1.1-0.1,2.4,0.7,3.2c0.9,1,2.4,1.5,3.6,1.1c-0.1,1,0.1,2,0.8,2.8c1.1,1.3,3.3,1.7,4.8,0.4l1.2-1c1.7-1.4,1.7-3.6,0.6-4.9
	C26.1,29,25.3,28.6,24.4,28.5"/>
</svg>
