<?xml version="1.0" encoding="utf-8"?>
<!-- Generator: Adobe Illustrator 19.2.1, SVG Export Plug-In . SVG Version: 6.00 Build 0)  -->
<svg version="1.1" id="Layer_1" xmlns="http://www.w3.org/2000/svg" xmlns:xlink="http://www.w3.org/1999/xlink" x="0px" y="0px"
	 viewBox="0 0 21 30" style="enable-background:new 0 0 21 30;" xml:space="preserve">
<path d="M14.2,9.9c-0.6,0-1.1,0.5-1.1,1.1c0,0.6,0.5,1.1,1.1,1.1c0.6,0,1.1-0.5,1.1-1.1C15.3,10.4,14.8,9.9,14.2,9.9"/>
<path d="M6.8,9.9c-0.6,0-1.1,0.5-1.1,1.1c0,0.6,0.5,1.1,1.1,1.1s1.1-0.5,1.1-1.1C7.9,10.4,7.4,9.9,6.8,9.9"/>
<path d="M14.2,13.7c-1.5,0-2.7-1.2-2.7-2.7c0-1.5,1.2-2.7,2.7-2.7c1.5,0,2.7,1.2,2.7,2.7C16.9,12.4,15.7,13.7,14.2,13.7 M10.7,16.5
	c0,0.1-0.1,0.1-0.2,0.1c-0.1,0-0.2,0-0.2-0.1c-0.8-1-1.4-1-1.4-1.9c0-0.8,0.7-1.1,1.6-1.1s1.6,0.4,1.6,1.1
	C12.1,15.5,11.5,15.5,10.7,16.5 M6.8,13.7c-1.5,0-2.7-1.2-2.7-2.7c0-1.5,1.2-2.7,2.7-2.7s2.7,1.2,2.7,2.7
	C9.5,12.4,8.3,13.7,6.8,13.7 M19.2,13.8c0.5-2.1,0.5-4.7-1-7.4c-0.7,0.4-1.4,0.7-2.3,0.9c-0.3,0.1-0.4,0-0.4-0.1
	c3.1-2,4.1-5.3,4.5-6.8c0.1-0.3-0.2-0.4-0.4-0.2c-1.9,1.8-4.3,2.6-4.9,2.8C12,1.7,9,1.7,6.5,2.9c-0.6-0.2-3-1.1-4.9-2.8
	c-0.2-0.2-0.5,0-0.4,0.2c0.3,1.5,1.3,4.8,4.5,6.8c0,0.1-0.1,0.1-0.4,0.1C4.3,7,3.5,6.7,2.9,6.3c-1.5,2.7-1.6,5.4-1,7.4
	c-1.2,1.1-2.4,2.9-1.6,6.2c0.7,2.9,3.4,5.2,6,6.6c-0.6,0.4-1.2,1-1.6,1.8C3.9,30,5,30.2,5.5,29.8c0.3-0.2,1.3-1.5,2.1-1.7
	c0.8-0.2,0.8,0.9,1.5,1.1c0.6,0.2,0.9-0.7,0.9-1.5c0.2,0,0.4,0,0.5,0c0.2,0,0.3,0,0.5,0c-0.1,0.8,0.3,1.7,0.9,1.5
	c0.7-0.2,0.7-1.3,1.5-1.1c0.8,0.2,1.7,1.4,2.1,1.7c0.5,0.4,1.6,0.2,0.9-1.5c-0.4-0.8-1-1.4-1.6-1.8c2.6-1.4,5.3-3.7,6-6.6
	C21.5,16.7,20.4,14.8,19.2,13.8"/>
</svg>
