<?xml version="1.0" encoding="utf-8"?>
<!-- Generator: Adobe Illustrator 19.2.1, SVG Export Plug-In . SVG Version: 6.00 Build 0)  -->
<svg version="1.1" id="Layer_1" xmlns="http://www.w3.org/2000/svg" xmlns:xlink="http://www.w3.org/1999/xlink" x="0px" y="0px"
	 viewBox="0 0 14 13.4" style="enable-background:new 0 0 14 13.4;" xml:space="preserve">
<style type="text/css">
	.st0{fill:#CCCCCC;}
</style>
<path class="st0" d="M12.5,0.3C10.7,0,7.6,0,7,0C6.4,0,3.3,0,1.5,0.3C0.9,0.4,0.4,0.9,0.3,1.5C0,3.3,0,4.9,0,5.5c0,0.6,0,2.2,0.3,4
	c0.1,0.6,0.6,1.1,1.2,1.2c0.2,0,0.5,0.1,0.8,0.1L3.7,9c0.1-0.1,0.1,0,0.1,0l-1.2,4l0,0l0,0.1c0,0.1,0,0.2,0.1,0.3
	c0.1,0.2,0.3,0.2,0.5,0.1L7.2,11c0.9,0,3.6,0,5.2-0.3c0.6-0.1,1.1-0.6,1.2-1.2C14,7.7,14,6.1,14,5.5c0-1.8,0-2.2-0.3-4
	C13.6,0.9,13.1,0.4,12.5,0.3"/>
</svg>
