<?xml version="1.0" encoding="utf-8"?>
<!-- Generator: Adobe Illustrator 19.0.1, SVG Export Plug-In . SVG Version: 6.00 Build 0)  -->
<svg version="1.1" id="Laag_1" xmlns="http://www.w3.org/2000/svg" xmlns:xlink="http://www.w3.org/1999/xlink" x="0px" y="0px"
	 width="17px" height="11px" viewBox="0 0 17 11" enable-background="new 0 0 17 11" xml:space="preserve">
<g>
	<path d="M8.9,7.2C8.8,7.3,8.6,7.3,8.5,7.3c-0.1,0-0.3,0-0.4-0.1L0,1.8v8.8c0,0.1,0.1,0.2,0.2,0.3L5.5,7c0,0,0.1,0.1,0,0.2
		C5.5,7.3,3.2,10.1,2.4,11h12.1c-0.7-0.9-3-3.7-3.1-3.8c-0.1-0.1,0-0.2,0-0.2l5.4,3.9c0.1-0.1,0.2-0.2,0.2-0.3V1.8L8.9,7.2z"/>
	<path d="M16.9,0.2C16.9,0.1,16.8,0,16.6,0H0.4C0.2,0,0.1,0.1,0.1,0.2l8.4,5.6L16.9,0.2z"/>
</g>
</svg>
