<?xml version="1.0" encoding="utf-8"?>
<!-- Generator: Adobe Illustrator 19.2.1, SVG Export Plug-In . SVG Version: 6.00 Build 0)  -->
<svg version="1.1" id="Layer_1" xmlns="http://www.w3.org/2000/svg" xmlns:xlink="http://www.w3.org/1999/xlink" x="0px" y="0px"
	 viewBox="0 0 21 13.3" style="enable-background:new 0 0 21 13.3;" xml:space="preserve">
<style type="text/css">
	.st0{fill:#B4B4B4;}
</style>
<path class="st0" d="M10.5,11.5c-5.8,0-8.4-4.9-8.4-4.9S3.3,4.4,5.8,3C5.5,3.5,5.3,4.1,5.3,4.7c-0.4,3,2.1,5.5,5.2,5.5
	c2.8,0,5-2,5.3-4.5c0.1-1.7-1.5-2.7-3.2-3.5C12.5,2,12.5,2,12.5,2c4.4,0.9,6.4,4.7,6.4,4.7S16.3,11.5,10.5,11.5 M10.5,3.1
	c1.3,0,2.3,1,2.3,2.1s-1,2.1-2.3,2.1c-1.3,0-2.3-1-2.3-2.1S9.2,3.1,10.5,3.1 M20.7,5.7C19.5,3.9,16.2,0,10.5,0
	c-5.7,0-9,3.9-10.2,5.7c-0.4,0.6-0.4,1.3,0,1.9c1.2,1.8,4.5,5.7,10.2,5.7c5.7,0,9-3.9,10.2-5.7C21.1,7,21.1,6.3,20.7,5.7"/>
</svg>
