<?xml version="1.0" encoding="utf-8"?>
<!-- Generator: Adobe Illustrator 19.2.1, SVG Export Plug-In . SVG Version: 6.00 Build 0)  -->
<svg version="1.1" id="Layer_1" xmlns="http://www.w3.org/2000/svg" xmlns:xlink="http://www.w3.org/1999/xlink" x="0px" y="0px"
	 viewBox="0 0 31.1 28" style="enable-background:new 0 0 31.1 28;" xml:space="preserve">
<path d="M31,9.9l-6.6-9.4c-0.2-0.3-0.6-0.5-1-0.5H7.7c-0.4,0-0.8,0.2-1,0.5L0.1,9.9c-0.1,0.2,0,0.5,0.2,0.5h4.3l9.7-7.9
	c0.7-0.6,1.7-0.6,2.4,0l9.7,7.9h4.3C31,10.3,31.2,10.1,31,9.9"/>
<path d="M24.7,24.3h-4.9v-8.5h4.9V24.3z M15.5,12.9c-1.4,0-2.6-1.1-2.6-2.6c0-1.4,1.1-2.6,2.6-2.6s2.6,1.1,2.6,2.6
	C18.1,11.8,17,12.9,15.5,12.9 M18,24.3h-4.9v-8.5H18V24.3z M11.3,24.3H6.4v-8.5h4.9V24.3z M15.5,4.1l-10,8.1H2.2V28h26.8V12.2h-3.4
	L15.5,4.1z"/>
</svg>
