<?xml version="1.0" encoding="utf-8"?>
<!-- Generator: Adobe Illustrator 19.2.1, SVG Export Plug-In . SVG Version: 6.00 Build 0)  -->
<svg version="1.1" id="Layer_1" xmlns="http://www.w3.org/2000/svg" xmlns:xlink="http://www.w3.org/1999/xlink" x="0px" y="0px"
	 viewBox="0 0 10.5 18" style="enable-background:new 0 0 10.5 18;" xml:space="preserve">
<path d="M10.5,9c0-0.1-0.1-0.3-0.2-0.4L1.9,0.2C1.8,0.1,1.6,0,1.5,0S1.2,0.1,1.1,0.2L0.2,1.1C0.1,1.2,0,1.4,0,1.5
	c0,0.1,0.1,0.3,0.2,0.4L7.3,9l-7.1,7.1C0.1,16.2,0,16.4,0,16.5c0,0.2,0.1,0.3,0.2,0.4l0.9,0.9C1.2,17.9,1.4,18,1.5,18
	s0.3-0.1,0.4-0.2l8.4-8.4C10.4,9.3,10.5,9.1,10.5,9"/>
</svg>
