<?xml version="1.0" encoding="utf-8"?>
<!-- Generated by IcoMoon.io -->
<!DOCTYPE svg PUBLIC "-//W3C//DTD SVG 1.1//EN" "http://www.w3.org/Graphics/SVG/1.1/DTD/svg11.dtd">
<svg version="1.1" xmlns="http://www.w3.org/2000/svg" xmlns:xlink="http://www.w3.org/1999/xlink" width="32" height="32" viewBox="0 0 32 32">
<path d="M8 5.156h14.222l0.178 1.244h2.489l-0.178-2.667c0-0.533-0.356-1.067-0.889-1.067h-17.067c-0.533 0-1.067 0.533-1.067 1.067l-0.178 2.667h2.311l0.178-1.244z"></path>
<path d="M29.867 7.644h-28.622c-0.711 0-1.244 0.533-1.244 1.244v10.489c0 0.711 0.533 1.244 1.244 1.244h2.844l7.467 7.644c0.178 0.178 0.533 0.356 0.889 0.356h13.867c0.533 0 1.067-0.533 1.067-1.067l-0.889-7.111h3.378c0.711 0 1.244-0.533 1.244-1.244v-10.311c0-0.711-0.533-1.244-1.244-1.244zM13.156 26.311c0 0-0.356 1.244-0.533 1.422s-0.178 0.356-0.178 0.356v-6.756c0-0.356-0.356-0.711-0.711-0.711h-5.333l0.889-5.511h16l1.244 11.2h-11.378zM27.911 12.089c-0.711 0-1.244-0.533-1.244-1.422 0-0.711 0.533-1.422 1.422-1.422 0.711 0 1.422 0.533 1.422 1.422-0.178 0.889-0.711 1.422-1.6 1.422z"></path>
</svg>
