<?xml version="1.0" encoding="utf-8"?>
<!-- Generated by IcoMoon.io -->
<!DOCTYPE svg PUBLIC "-//W3C//DTD SVG 1.1//EN" "http://www.w3.org/Graphics/SVG/1.1/DTD/svg11.dtd">
<svg version="1.1" xmlns="http://www.w3.org/2000/svg" xmlns:xlink="http://www.w3.org/1999/xlink" width="1019" height="1024" viewBox="0 0 1019 1024">
<g id="icomoon-ignore">
</g>
<path d="M407.718 372.435c-41.966-54.566-107.276-89.384-180.718-89.384-125.579 0-227.381 101.802-227.381 227.381s101.802 227.381 227.381 227.381c73.442 0 138.752-34.819 180.323-88.849l291.287 170.393c-3.357 12.195-5.351 26.221-5.488 40.691-0.001 90.152 73.016 163.169 163.087 163.169s163.087-73.017 163.087-163.087c0-90.071-73.017-163.087-163.087-163.087-0.29-0.002-0.634-0.003-0.977-0.003-41.891 0-79.946 16.426-108.075 43.189l-298.667-175.694c3.782-15.708 6.057-33.799 6.271-52.386-0.2-19.727-2.762-38.615-7.412-56.664l297.521-174.001c28.727 27.19 67.609 43.908 110.396 43.908 0.056 0 0.111 0 0.167 0 0.224 0.001 0.499 0.002 0.774 0.002 90.071 0 163.087-73.017 163.087-163.087s-73.017-163.087-163.087-163.087c-90.071 0-163.087 73.017-163.087 163.087 0 0.275 0.001 0.55 0.002 0.825 0.408 14.065 2.386 27.52 5.766 40.406z"></path>
</svg>
