<?xml version="1.0" encoding="utf-8"?>
<!-- Generator: Adobe Illustrator 19.2.1, SVG Export Plug-In . SVG Version: 6.00 Build 0)  -->
<svg version="1.1" id="Layer_1" xmlns="http://www.w3.org/2000/svg" xmlns:xlink="http://www.w3.org/1999/xlink" x="0px" y="0px"
	 viewBox="0 0 17.5 18" style="enable-background:new 0 0 17.5 18;" xml:space="preserve">
<style type="text/css">
	.st0{fill:#FFFFFF;}
</style>
<g>
	<path class="st0" d="M16.6,0H1C0.4,0,0,0.4,0,1v16c0,0.5,0.4,1,1,1h8.4v-7H7.1V8.3h2.3v-2c0-2.3,1.4-3.6,3.4-3.6c1,0,1.8,0.1,2,0.1
		v2.4l-1.4,0c-1.1,0-1.3,0.5-1.3,1.3v1.7h2.6L14.4,11h-2.3v7h4.5c0.5,0,1-0.4,1-1V1C17.5,0.4,17.1,0,16.6,0"/>
</g>
</svg>
