<?xml version="1.0" encoding="utf-8"?>
<!-- Generator: Adobe Illustrator 19.2.1, SVG Export Plug-In . SVG Version: 6.00 Build 0)  -->
<svg version="1.1" id="Layer_1" xmlns="http://www.w3.org/2000/svg" xmlns:xlink="http://www.w3.org/1999/xlink" x="0px" y="0px"
	 viewBox="0 0 18 18" style="enable-background:new 0 0 18 18;" xml:space="preserve">
<style type="text/css">
	.st0{fill:#FFFFFF;}
</style>
<g>
	<path class="st0" d="M15.3,15.3h-2.7v-4.2c0-1,0-2.3-1.4-2.3c-1.4,0-1.6,1.1-1.6,2.2v4.2H7V6.7h2.6v1.2h0c0.4-0.7,1.2-1.4,2.5-1.4
		c2.7,0,3.2,1.8,3.2,4.1V15.3z M4,5.6C3.1,5.6,2.5,4.9,2.5,4c0-0.9,0.7-1.5,1.5-1.5c0.9,0,1.5,0.7,1.5,1.5C5.6,4.9,4.9,5.6,4,5.6
		 M5.3,15.3H2.7V6.7h2.7V15.3z M16.7,0H1.3C0.6,0,0,0.6,0,1.3v15.4C0,17.4,0.6,18,1.3,18h15.3c0.7,0,1.3-0.6,1.3-1.3V1.3
		C18,0.6,17.4,0,16.7,0"/>
</g>
</svg>
