<?xml version="1.0" encoding="utf-8"?>
<!-- Generator: Adobe Illustrator 19.2.1, SVG Export Plug-In . SVG Version: 6.00 Build 0)  -->
<svg version="1.1" id="Layer_1" xmlns="http://www.w3.org/2000/svg" xmlns:xlink="http://www.w3.org/1999/xlink" x="0px" y="0px"
	 viewBox="0 0 17.2 14" style="enable-background:new 0 0 17.2 14;" xml:space="preserve">
<style type="text/css">
	.st0{fill:#FFFFFF;}
</style>
<g>
	<path class="st0" d="M17.2,1.7c-0.6,0.3-1.3,0.5-2,0.6c0.7-0.4,1.3-1.1,1.6-2c-0.7,0.4-1.4,0.7-2.2,0.9C13.9,0.4,12.9,0,11.9,0
		c-2,0-3.5,1.6-3.5,3.5c0,0.3,0,0.5,0.1,0.8C5.5,4.2,2.9,2.8,1.2,0.6C0.9,1.2,0.7,1.8,0.7,2.4c0,1.2,0.6,2.3,1.6,2.9
		c-0.6,0-1.1-0.2-1.6-0.4c0,0,0,0,0,0c0,1.7,1.2,3.1,2.8,3.5C3.2,8.5,2.9,8.6,2.6,8.6c-0.2,0-0.4,0-0.7-0.1c0.4,1.4,1.8,2.4,3.3,2.5
		c-1.2,0.9-2.7,1.5-4.4,1.5c-0.3,0-0.6,0-0.8,0c1.6,1,3.4,1.6,5.4,1.6c6.5,0,10.1-5.4,10.1-10.1c0-0.2,0-0.3,0-0.5
		C16.2,3,16.8,2.4,17.2,1.7"/>
</g>
</svg>
