<?xml version="1.0" encoding="utf-8"?>
<!-- Generator: Adobe Illustrator 19.2.1, SVG Export Plug-In . SVG Version: 6.00 Build 0)  -->
<svg version="1.1" id="Layer_1" xmlns="http://www.w3.org/2000/svg" xmlns:xlink="http://www.w3.org/1999/xlink" x="0px" y="0px"
	 viewBox="0 0 19 12.1" style="enable-background:new 0 0 19 12.1;" xml:space="preserve">
<style type="text/css">
	.st0{fill:#FFFFFF;}
</style>
<path class="st0" d="M6,5.2v2.1h3.4C9.3,8.1,8.4,9.9,6,9.9C4,9.9,2.3,8.2,2.3,6C2.3,3.9,4,2.2,6,2.2c1.2,0,2,0.5,2.4,0.9l1.6-1.6
	C9,0.6,7.7,0,6,0C2.7,0,0,2.7,0,6c0,3.3,2.7,6,6,6c3.5,0,5.8-2.5,5.8-5.9c0-0.4,0-0.7-0.1-1H6z"/>
<polygon class="st0" points="15.5,3.5 15.5,5.2 13.8,5.2 13.8,6.9 15.5,6.9 15.5,8.6 17.3,8.6 17.3,6.9 19,6.9 19,5.2 17.3,5.2 
	17.3,3.5 "/>
</svg>
