<?xml version="1.0" encoding="utf-8"?>
<!-- Generator: Adobe Illustrator 19.2.1, SVG Export Plug-In . SVG Version: 6.00 Build 0)  -->
<svg version="1.1" id="Layer_1" xmlns="http://www.w3.org/2000/svg" xmlns:xlink="http://www.w3.org/1999/xlink" x="0px" y="0px"
	 viewBox="0 0 38.5 23" style="enable-background:new 0 0 38.5 23;" xml:space="preserve">
<style type="text/css">
	.st0{fill:#8FCAE7;}
</style>
<g>
	<path class="st0" d="M12.3,14.1c-0.5-0.2-1-0.3-1.4-0.4c-0.2-0.1-0.4-0.3-0.4-0.5c-0.1-0.3-0.1-0.7-0.1-0.7
		c0.6-0.7,1.1-1.6,1.3-2.8c0.6-0.2,0.8-1,0.8-1.5c0-0.5-0.1-0.8-0.3-0.8c-0.2-0.1-0.3,0-0.4,0c0.1-1,0.2-3.1-0.2-3.9
		c-0.5-0.8-1-1.2-2.1-0.9C8.7,2.2,8.3,1.8,7.1,2.1C6.2,2.3,5.3,2.8,4.8,3.4c-0.5,0.7-0.4,3-0.3,4.1C4.4,7.4,4.2,7.3,4,7.4
		C3.8,7.5,3.7,7.8,3.7,8.3c0,0.5,0.1,1.3,0.8,1.5c0.1,1.2,0.6,2,1.2,2.7c0,0,0,0.4-0.1,0.7c0,0.2-0.2,0.5-0.4,0.5
		c-1,0.3-3.3,1-4.1,1.8c-1,1-1.1,5-1.1,5h7.6c0.3-1.7,0.9-3.7,1.8-4.7C10,15.2,11.1,14.6,12.3,14.1"/>
	<path class="st0" d="M37.5,16.2c-0.3-0.4-1-0.7-1.7-1.1c-1-0.5-2-0.9-2.6-1.1c-0.2-0.1-0.4-0.3-0.4-0.5c0-0.3-0.1-0.7-0.1-1.1
		c1.5-0.1,2.7-0.2,3.2-0.4c0.1,0,0.1-0.1,0.1-0.2c-0.3-0.6-1-2.6-1.1-3.6c-0.2-2.5-0.2-7-3.7-5.9c0,0-2.2-1.4-4,0.9
		c-1.3,1.7-0.9,3.8-1,5c0,0.9-0.7,2.9-1,3.4c-0.1,0.1,0,0.2,0.1,0.3c0.5,0.2,1.8,0.3,3.2,0.4c0,0.4-0.1,0.8-0.2,1.1
		c0,0.2-0.2,0.4-0.4,0.5c-0.2,0.1-0.6,0.2-1,0.4c1.1,0.5,1.9,0.9,2.3,1.4c0.9,1,1.5,3,1.8,4.7h7.6C38.5,20.5,38.5,17.3,37.5,16.2"/>
	<path class="st0" d="M22.9,14.5c-0.4-0.1-0.6-0.4-0.7-0.8c-0.1-0.3-0.1-0.7-0.1-0.7c0.8-0.9,1.5-2.1,1.7-3.6c0.8-0.2,1-1.3,1-1.9
		s-0.1-1-0.3-1.1c-0.1-0.1-0.2-0.1-0.3,0c0.1-1.3,0.2-3.9-0.4-4.9c-0.6-1.1-1.4-1.3-2.8-1c-0.9-0.5-1.5-1-3.1-0.5
		c-1.1,0.3-2.3,0.8-2.9,1.6c-0.7,0.9-0.6,3.5-0.4,4.8c-0.1,0-0.2,0-0.3,0c-0.2,0.1-0.3,0.4-0.3,1.1s0.2,1.6,1,1.9
		c0.3,2.1,1.3,3.4,2.7,4.5c0.3,0.3,1,0.4,1.6,0.5c0.1,0.1,0.1,0.2-0.2,0.3c-0.4,0.1-1.6,0.3-2.9-0.4c0,0,0,0,0,0
		c-1,0.3-4.4,1.2-5.5,2.4C9.2,18.1,8.7,23,8.7,23h21.1c0,0-0.5-4.9-1.7-6.2C27.2,15.8,24.2,14.9,22.9,14.5"/>
</g>
</svg>
