<?xml version="1.0" standalone="no"?>
<!DOCTYPE svg PUBLIC "-//W3C//DTD SVG 1.1//EN" "http://www.w3.org/Graphics/SVG/1.1/DTD/svg11.dtd" >
<svg xmlns="http://www.w3.org/2000/svg">
<metadata></metadata>
<defs>
<font id="rijksoverheidsanswebtext_boBd" horiz-adv-x="1075" >
<font-face units-per-em="2048" ascent="1657" descent="-391" />
<missing-glyph horiz-adv-x="409" />
<glyph unicode="&#xfb01;" horiz-adv-x="1212" d="M45 825v191h131v65q0 178 104.5 266.5t370.5 88.5q119 0 224.5 -4.5t214.5 -12.5l-17 -192q-111 6 -203 9t-219 3q-131 0 -178 -35t-47 -121v-67h397l250 4v-1020h-252v825h-393v-825h-252v825h-131z" />
<glyph unicode="&#xfb02;" horiz-adv-x="1212" d="M45 825v191h131v65q0 174 99.5 264.5t328.5 90.5q59 0 114.5 -4.5t102.5 -12.5l252 13v-1432h-252v1227q-43 6 -97 9t-114 3q-102 0 -143 -36t-41 -120v-67h221v-191h-219v-825h-252v825h-131z" />
<glyph horiz-adv-x="0" />
<glyph horiz-adv-x="682" />
<glyph unicode=" "  horiz-adv-x="409" />
<glyph unicode="&#x09;" horiz-adv-x="409" />
<glyph unicode="&#xa0;" horiz-adv-x="409" />
<glyph unicode="!" horiz-adv-x="626" d="M147 164q0 76 41 128t123 52t125 -46t43 -134q0 -74 -41 -124t-123 -50t-125 44t-43 130zM182 424v909l283 23l-25 -627v-299z" />
<glyph unicode="&#x22;" horiz-adv-x="708" d="M72 1413h243l-28 -448h-187zM393 1413h244l-29 -448h-186z" />
<glyph unicode="#" horiz-adv-x="1267" d="M37 340l16 176h252l39 313h-242l17 177h248l43 337h180l-41 -337h256l43 337h182l-43 -337h246l-19 -177h-249l-39 -313h241l-18 -176h-246l-39 -340h-182l41 340h-258l-41 -340h-180l41 340h-248zM487 516h258l39 313h-258z" />
<glyph unicode="$" d="M88 8v230q100 -18 180 -25.5t168 -7.5q137 0 209 50t72 114q0 59 -39 100t-162 84l-168 57q-119 39 -181.5 126t-62.5 216q0 141 91.5 244.5t261.5 140.5v222h182v-201q68 0 141.5 -6t143.5 -21l-17 -221q-76 14 -141.5 20.5t-142.5 6.5q-135 0 -196.5 -44t-61.5 -112 q0 -57 37.5 -96t127.5 -68l166 -51q150 -47 217.5 -132t67.5 -214q0 -154 -97.5 -266.5t-269.5 -153.5v-215h-182v201h-4q-92 0 -171 4t-169 18z" />
<glyph unicode="%" horiz-adv-x="1683" d="M45 956q0 203 105.5 302.5t242.5 99.5q135 0 234.5 -88t99.5 -297q0 -197 -108.5 -293t-241.5 -96q-131 0 -231.5 77.5t-100.5 294.5zM260 975q0 -125 35 -169t90 -44q53 0 90 43t37 147q0 133 -36 181.5t-89 48.5q-49 0 -88 -44t-39 -163zM485 8l545 1383l166 -66 l-545 -1382zM956 358q0 203 106 302.5t243 99.5t235 -88t98 -297q0 -197 -107.5 -293t-242.5 -96q-131 0 -231.5 77.5t-100.5 294.5zM1174 377q0 -125 33.5 -169t88.5 -44t92 43t37 147q0 133 -37 181.5t-90 48.5q-49 0 -86.5 -44t-37.5 -163z" />
<glyph unicode="&#x26;" horiz-adv-x="1433" d="M92 371q0 104 72 190t211 129v6q-111 27 -172.5 99.5t-61.5 183.5q0 160 125 271.5t344 111.5q76 0 133.5 -8t112.5 -25l-16 -213q-55 12 -109.5 18.5t-118.5 6.5q-94 0 -147 -41t-53 -113q0 -84 70.5 -132t215.5 -48h66v-217h-86q-154 0 -229.5 -58.5t-75.5 -146.5 q0 -86 68.5 -131t213.5 -45q172 0 279.5 121t107.5 340h-127v198h490v-198h-123q0 -324 -182.5 -505t-483.5 -181q-276 0 -400 98t-124 289z" />
<glyph unicode="'" horiz-adv-x="387" d="M72 1413h243l-28 -448h-187z" />
<glyph unicode="(" horiz-adv-x="573" d="M59 485q0 236 81 456t227 402h176q-141 -197 -215 -401.5t-74 -447.5q0 -207 77 -433.5t212 -416.5h-176q-143 182 -225.5 399t-82.5 442z" />
<glyph unicode=")" horiz-adv-x="573" d="M31 -356q139 197 213.5 401.5t74.5 448.5q0 209 -77.5 434t-210.5 415h176q145 -182 226 -398t81 -441q0 -238 -80 -458t-227 -402h-176z" />
<glyph unicode="*" horiz-adv-x="1116" d="M113 1032l53 182l280 -112l37 -15v39l-22 299h194l-20 -299v-36l29 14l278 113l62 -185l-287 -71l-41 -13l24 -28l191 -228l-154 -114l-155 249l-25 31l-22 -31l-154 -247l-160 108l193 230l24 30l-39 10z" />
<glyph unicode="+" d="M133 508v199h303v303h199v-303h305v-199h-305v-305h-199v305h-303z" />
<glyph unicode="," horiz-adv-x="530" d="M63 -225l115 262q-35 18 -57.5 54t-22.5 85q0 68 45 118t121 50q72 0 120 -44t48 -136q0 -100 -107.5 -244.5t-146.5 -144.5h-115z" />
<glyph unicode="-" horiz-adv-x="798" d="M135 473v229h529v-229h-529z" />
<glyph unicode="." horiz-adv-x="530" d="M98 164q0 76 42 128t124 52q80 0 124 -46t44 -134q0 -74 -42 -124t-124 -50q-80 0 -124 44t-44 130z" />
<glyph unicode="/" horiz-adv-x="645" d="M-80 -328l623 1712l182 -69l-623 -1712z" />
<glyph unicode="0" d="M72 651q0 377 142.5 544t332.5 167q188 0 322.5 -152.5t134.5 -529.5q0 -365 -147.5 -531.5t-332.5 -166.5q-184 0 -318 139t-134 530zM350 676q0 -279 51.5 -380t130.5 -101q84 0 138.5 107.5t54.5 354.5q0 281 -53 386.5t-135 105.5q-76 0 -131.5 -105.5t-55.5 -367.5z " />
<glyph unicode="1" d="M186 1085v195q98 27 210 45t200 18h147v-1343h-268v1114q-61 0 -140 -7.5t-149 -21.5z" />
<glyph unicode="2" d="M111 188q20 121 85.5 220.5t182.5 189.5l135 102q82 63 117 116.5t35 123.5q0 90 -55.5 138t-159.5 48q-78 0 -143.5 -8t-143.5 -28v223q84 20 168 32.5t166 12.5q213 0 330.5 -103.5t117.5 -281.5q0 -129 -61.5 -226.5t-212.5 -201.5l-111 -78q-96 -66 -139 -121 t-62 -125h607l-2 -221h-826z" />
<glyph unicode="3" d="M133 -18v204h170q182 0 279.5 62.5t97.5 179.5q0 78 -51 132t-146 87q-63 -31 -117.5 -50t-123.5 -34l-45 199q170 47 295.5 137t201.5 223h-540v221h745l35 -213q-51 -111 -111.5 -188.5t-160.5 -140.5v-4q141 -33 220 -127.5t79 -227.5q0 -203 -180.5 -331.5 t-473.5 -128.5h-174z" />
<glyph unicode="4" d="M51 428q37 324 185.5 552t379.5 370h281v-883h137v-205h-137v-262h-266v262h-531zM274 467h357v643h-4q-143 -117 -233.5 -281.5t-119.5 -361.5z" />
<glyph unicode="5" d="M139 -18v204h180q160 0 262.5 68t102.5 184q0 98 -69.5 153.5t-223.5 55.5q-53 0 -114.5 -4t-118.5 -10v710h733v-219h-518v-260q39 2 66.5 4t62.5 2q225 0 344 -111.5t119 -285.5q0 -223 -181.5 -357t-474.5 -134h-170z" />
<glyph unicode="6" d="M72 545q0 426 215 612t561 186h113v-198h-117q-178 0 -295 -73t-176 -230l4 -4q51 29 105.5 41t125.5 12q182 0 294 -109.5t112 -310.5q0 -217 -140.5 -353t-336.5 -136q-203 0 -334 138t-131 425zM352 512q0 -195 61.5 -266.5t143.5 -71.5q80 0 128 59.5t48 198.5 q0 131 -55 191.5t-143 60.5q-51 0 -94.5 -7.5t-80.5 -19.5q-4 -33 -6 -69.5t-2 -75.5z" />
<glyph unicode="7" d="M106 1122v221h842l37 -208q-250 -281 -346 -572t-96 -563h-258q0 291 88 565.5t327 548.5v8h-594z" />
<glyph unicode="8" d="M63 313q0 100 56.5 185.5t202.5 167.5l-62 47q-82 61 -115.5 121.5t-33.5 162.5q0 141 128 253t302 112q197 0 308.5 -92t111.5 -232q0 -115 -53.5 -189.5t-180.5 -146.5l78 -43q117 -70 163 -141.5t46 -175.5q0 -156 -143.5 -258t-356.5 -102q-209 0 -330 92t-121 239z M324 344q0 -76 58 -122t153 -46q90 0 144 41t54 105q0 51 -34 95t-95 83l-135 86q-82 -63 -113.5 -114.5t-31.5 -127.5zM371 1014q0 -49 20.5 -83t65.5 -67l123 -86q76 55 106.5 112.5t30.5 121.5q0 76 -48 117.5t-130 41.5q-72 0 -120 -45t-48 -112z" />
<glyph unicode="9" d="M63 872q0 217 141.5 353.5t338.5 136.5q201 0 332 -138.5t131 -424.5q0 -444 -222.5 -621.5t-554.5 -177.5h-112v199h116q180 0 296 72.5t176 230.5l-5 4q-51 -29 -104 -41t-125 -12q-184 0 -296 109.5t-112 309.5zM344 911q0 -131 55.5 -191.5t143.5 -60.5q51 0 94 7.5 t82 19.5q4 33 6 70t2 75q0 195 -61.5 266.5t-145.5 71.5q-80 0 -128 -59t-48 -199z" />
<glyph unicode=":" horiz-adv-x="530" d="M98 164q0 76 42 128t124 52q80 0 124 -46t44 -134q0 -74 -42 -124t-124 -50q-80 0 -124 44t-44 130zM98 801q0 74 42 126t124 52q80 0 124 -46t44 -132q0 -74 -42 -125t-124 -51q-80 0 -124 45t-44 131z" />
<glyph unicode=";" horiz-adv-x="530" d="M63 -225l115 262q-35 18 -57.5 54t-22.5 85q0 68 45 118t121 50q72 0 120 -44t48 -136q0 -100 -107.5 -244.5t-146.5 -144.5h-115zM98 801q0 74 42 126t124 52q80 0 124 -46t44 -132q0 -74 -42 -125t-124 -51q-80 0 -124 45t-44 131z" />
<glyph unicode="&#x3c;" d="M156 539v137l639 391l102 -180l-471 -277v-4l471 -278l-102 -181z" />
<glyph unicode="=" d="M133 324v198h807v-198h-807zM133 692v199h807v-199h-807z" />
<glyph unicode="&#x3e;" d="M178 328l471 276v4l-471 279l103 180l639 -391v-137l-639 -392z" />
<glyph unicode="?" horiz-adv-x="942" d="M92 1069v223q86 33 172 49.5t182 16.5q176 0 285 -86t109 -225q0 -123 -50.5 -197t-173.5 -139l-100 -52q-43 -23 -63.5 -50t-20.5 -60q0 -29 7 -55.5t24 -59.5l-205 -10q-31 31 -48 68.5t-17 87.5q0 70 35.5 124t119.5 103l109 59q63 37 87.5 70t24.5 78q0 47 -47 79.5 t-141 32.5q-72 0 -142.5 -14t-146.5 -43zM201 164q0 76 42 128t124 52q80 0 124 -46t44 -134q0 -74 -42 -124t-124 -50q-80 0 -124 44t-44 130z" />
<glyph unicode="@" horiz-adv-x="1914" d="M88 354q0 455 289 725.5t659 270.5q352 0 571.5 -203t219.5 -537q0 -301 -157 -464.5t-347 -163.5q-100 0 -156.5 43t-81.5 131h-6q-59 -78 -147 -123t-193 -45q-111 0 -190.5 94t-79.5 326q0 272 164 446t348 174q45 0 82 -5t65 -15l195 22v-723q0 -90 23.5 -123.5 t58.5 -33.5q92 0 181 114.5t89 339.5q0 281 -180 443.5t-473 162.5q-305 0 -543.5 -230t-238.5 -611q0 -309 153.5 -466t366.5 -157q74 0 169 15t169 42v-131q-72 -33 -164 -49t-195 -16q-252 0 -451.5 173t-199.5 574zM725 438q0 -139 33 -186t88 -47q63 0 115.5 21.5 t109.5 76.5v508q-18 2 -45 3t-57 1q-96 0 -170 -97t-74 -280z" />
<glyph unicode="A" horiz-adv-x="1232" d="M23 0l393 1343h401l391 -1343h-307l-74 289h-454l-74 -289h-276zM426 502h346l-166 620h-14z" />
<glyph unicode="B" horiz-adv-x="1196" d="M170 0v1343h375q266 0 386 -90t120 -231q0 -125 -60.5 -205t-150.5 -112v-3q125 -27 195.5 -104.5t70.5 -194.5q0 -190 -130 -296.5t-388 -106.5h-418zM432 211h146q117 0 181 49t64 143q0 86 -69.5 134.5t-235.5 48.5h-86v-375zM432 782h94q121 0 182.5 44t61.5 143 q0 82 -52 123t-181 41h-105v-351z" />
<glyph unicode="C" horiz-adv-x="1093" d="M96 631q0 362 205 544.5t492 182.5q76 0 135 -6t129 -21l-19 -225q-78 14 -129 17t-125 3q-168 0 -287.5 -117.5t-119.5 -353.5q0 -227 123 -336.5t274 -109.5q86 0 144.5 6.5t140.5 20.5v-218q-88 -20 -142.5 -26t-156.5 -6q-281 0 -472.5 160.5t-191.5 484.5z" />
<glyph unicode="D" horiz-adv-x="1372" d="M170 0v1343h391q346 0 530.5 -166.5t184.5 -465.5q0 -365 -195.5 -538t-531.5 -173h-379zM436 217h125q197 0 315.5 112.5t118.5 368.5q0 207 -121.5 317.5t-328.5 110.5h-109v-909z" />
<glyph unicode="E" horiz-adv-x="1003" d="M170 0v1343h717v-217h-451v-327h416v-217h-416v-365h457v-217h-723z" />
<glyph unicode="F" horiz-adv-x="1001" d="M170 0v1343h717v-217h-451v-344h428v-217h-428v-565h-266z" />
<glyph unicode="G" horiz-adv-x="1300" d="M96 631q0 365 209 546t526 181q92 0 164 -6t144 -21l-19 -225q-84 12 -151.5 16t-145.5 4q-203 0 -324.5 -119.5t-121.5 -351.5q0 -223 117.5 -337.5t285.5 -114.5q43 0 73 2t71 6v254h-197v217h453v-657q-100 -20 -199.5 -29.5t-208.5 -9.5q-305 0 -490.5 162.5 t-185.5 482.5z" />
<glyph unicode="H" horiz-adv-x="1396" d="M170 0v1343h266v-540h525v540h266v-1343h-266v571h-525v-571h-266z" />
<glyph unicode="I" horiz-adv-x="604" d="M170 0v1343h266v-1343h-266z" />
<glyph unicode="J" horiz-adv-x="720" d="M16 -4v227q23 -2 51.5 -5t55.5 -3q76 0 123 52t47 153v923h266v-927q0 -225 -115.5 -326.5t-322.5 -101.5q-25 0 -54.5 2t-50.5 6z" />
<glyph unicode="K" horiz-adv-x="1269" d="M170 0v1343h266v-548h111l387 548h305l-459 -628l473 -715h-331l-371 578h-115v-578h-266z" />
<glyph unicode="L" horiz-adv-x="923" d="M170 0v1343h266v-1126h455v-217h-721z" />
<glyph unicode="M" horiz-adv-x="1744" d="M152 0l55 1343h418l252 -798h10l254 798h391l63 -1343h-262l-45 1092h-12l-268 -838h-283l-281 838h-12l-35 -1092h-245z" />
<glyph unicode="N" horiz-adv-x="1372" d="M170 0v1343h405l381 -1085h13v1085h235v-1343h-407l-379 1085h-12v-1085h-236z" />
<glyph unicode="O" horiz-adv-x="1480" d="M96 659q0 342 198 522.5t462 180.5q260 0 444 -166t184 -512q0 -342 -195.5 -522t-459.5 -180q-262 0 -447.5 165.5t-185.5 511.5zM377 682q0 -250 107.5 -356.5t256.5 -106.5q135 0 249 104.5t114 338.5q0 250 -106.5 357t-256.5 107q-139 0 -251.5 -105.5 t-112.5 -338.5z" />
<glyph unicode="P" horiz-adv-x="1134" d="M170 0v1343h436q225 0 348 -118.5t123 -304.5q0 -213 -137 -342t-358 -129q-41 0 -76 2t-70 6v-457h-266zM432 670q27 -4 57.5 -6t57.5 -2q115 0 183.5 63t68.5 176q0 111 -58.5 171.5t-175.5 60.5h-133v-463z" />
<glyph unicode="Q" horiz-adv-x="1480" d="M96 659q0 342 198 522.5t462 180.5q260 0 444 -166t184 -512q0 -248 -106.5 -411.5t-271.5 -235.5l342 -391h-328l-277 336h-14q-262 0 -447.5 165.5t-185.5 511.5zM377 682q0 -250 107.5 -356.5t256.5 -106.5q135 0 249 104.5t114 338.5q0 250 -106.5 357t-256.5 107 q-139 0 -251.5 -105.5t-112.5 -338.5z" />
<glyph unicode="R" horiz-adv-x="1193" d="M170 0v1343h401q258 0 386 -106.5t128 -269.5q0 -135 -65.5 -236.5t-175.5 -152.5l356 -578h-313l-293 502h-158v-502h-266zM432 709h143q104 0 168 61t64 166q0 98 -59.5 147.5t-194.5 49.5h-121v-424z" />
<glyph unicode="S" horiz-adv-x="1083" d="M96 8v230q100 -18 180 -25.5t168 -7.5q137 0 209 50t72 114q0 59 -39 100t-162 84l-168 57q-119 39 -181 126t-62 216q0 176 139 291t393 115q74 0 145.5 -6t141.5 -21l-17 -221q-76 14 -141 20.5t-143 6.5q-135 0 -196.5 -44t-61.5 -112q0 -57 38 -96t128 -68l166 -51 q150 -47 217 -132t67 -214q0 -190 -147.5 -312t-405.5 -122q-92 0 -171 4t-169 18z" />
<glyph unicode="T" horiz-adv-x="1093" d="M45 1126v217h1004v-217h-369v-1126h-266v1126h-369z" />
<glyph unicode="U" horiz-adv-x="1335" d="M154 465v878h266v-845q0 -141 66.5 -210t189.5 -69t191.5 70.5t68.5 204.5v849h246v-858q0 -221 -139 -362t-379 -141q-256 0 -383 125.5t-127 357.5z" />
<glyph unicode="V" horiz-adv-x="1218" d="M23 1343h296l299 -1097h13l289 1097h276l-389 -1343h-397z" />
<glyph unicode="W" horiz-adv-x="1921" d="M23 1343h296l254 -1097h13l260 819l-86 278h287l317 -1097h12l248 1097h274l-348 -1343h-368l-215 756h-11l-227 -756h-360z" />
<glyph unicode="X" horiz-adv-x="1202" d="M31 0l422 688l-392 655h312l235 -421h8l238 421h283l-387 -636l421 -707h-309l-270 475h-8l-267 -475h-286z" />
<glyph unicode="Y" horiz-adv-x="1128" d="M16 1343h299l267 -565h8l260 565h262l-414 -806v-537h-266v537z" />
<glyph unicode="Z" horiz-adv-x="1046" d="M57 0v211l619 903v8h-584v221h891v-210l-621 -904v-8h625v-221h-930z" />
<glyph unicode="[" horiz-adv-x="559" d="M166 -365v1708h348v-151h-166v-1407h166v-150h-348z" />
<glyph unicode="\" horiz-adv-x="645" d="M-80 1315l182 69l623 -1712l-182 -69z" />
<glyph unicode="]" horiz-adv-x="559" d="M45 -213h166v1407h-166v149h348v-1708h-348v152z" />
<glyph unicode="^" d="M92 920l447 448l446 -448l-137 -138l-309 312l-310 -312z" />
<glyph unicode="_" horiz-adv-x="1048" d="M12 -78h1024v-196h-1024v196z" />
<glyph unicode="`" horiz-adv-x="858" d="M168 1425h262l148 -297h-187z" />
<glyph unicode="a" horiz-adv-x="1030" d="M63 272q0 143 112 233.5t351 90.5q39 0 74 -1t64 -1v45q0 78 -50.5 121t-175.5 43q-74 0 -139.5 -14.5t-146.5 -47.5l-33 211q94 39 181 57.5t185 18.5q215 0 318.5 -95t103.5 -269v-664h-235v63q-59 -39 -127 -57t-158 -18q-158 0 -241 78.5t-83 205.5zM319 293 q0 -51 38 -80t106 -29q57 0 104 11.5t97 33.5v187q-29 2 -65 3t-64 1q-115 0 -165.5 -35t-50.5 -92z" />
<glyph unicode="b" horiz-adv-x="1144" d="M139 10v1409l252 13v-484q55 37 119.5 58.5t134.5 21.5q193 0 305.5 -123.5t112.5 -361.5q0 -264 -159 -409.5t-417 -145.5q-82 0 -164.5 5t-183.5 17zM389 211q33 -6 57.5 -8t55.5 -2q137 0 221 74.5t84 248.5q0 141 -65.5 207t-174.5 66q-49 0 -88 -7.5t-90 -25.5v-553 z" />
<glyph unicode="c" horiz-adv-x="847" d="M82 489q0 254 149.5 398.5t356.5 144.5q63 0 111.5 -5t101.5 -19l-21 -228q-45 8 -87 13.5t-89 5.5q-119 0 -192.5 -79t-73.5 -220q0 -154 77 -224.5t191 -70.5q49 0 94 6t97 20v-215q-51 -14 -103.5 -21t-111.5 -7q-225 0 -362.5 122.5t-137.5 378.5z" />
<glyph unicode="d" horiz-adv-x="1148" d="M82 485q0 250 153.5 396.5t382.5 146.5q37 0 71 -3t69 -11v405l252 13v-1432h-244v70q-53 -39 -119.5 -60.5t-142.5 -21.5q-190 0 -306 126t-116 371zM338 498q0 -156 68.5 -224.5t175.5 -68.5q51 0 90 9t88 32v559q-35 4 -66.5 7t-70.5 3q-129 0 -207 -85t-78 -232z" />
<glyph unicode="e" horiz-adv-x="1032" d="M82 506q0 258 136 393t329 135q186 0 296.5 -110.5t110.5 -305.5q0 -51 -2 -101t-6 -83h-622q23 -121 98.5 -178t210.5 -57q86 0 151.5 11t139.5 34v-205q-82 -25 -152 -38t-172 -13q-238 0 -378 128t-140 390zM324 614h389q0 100 -50.5 164t-134.5 64q-78 0 -134 -58.5 t-70 -169.5z" />
<glyph unicode="f" horiz-adv-x="684" d="M45 825v191h131v65q0 168 97.5 261.5t312.5 93.5q39 0 74.5 -4.5t72.5 -12.5l-18 -192q-33 6 -60.5 9t-60.5 3q-88 0 -128 -38t-40 -118v-67h246v-191h-244v-825h-252v825h-131z" />
<glyph unicode="g" horiz-adv-x="1044" d="M39 -143q0 72 44 130t120 87v6q-39 14 -64.5 51t-25.5 88q0 49 32.5 92t90.5 66v6q-72 35 -116 101.5t-44 162.5q0 180 119.5 280.5t312.5 100.5q43 0 82 -6t78 -16h331v-164h-159v-6q33 -20 60.5 -67.5t27.5 -117.5q0 -160 -113 -248t-326 -88q-33 0 -66.5 4.5 t-64.5 12.5q-18 -8 -29.5 -26t-11.5 -34q0 -33 30 -52t104 -19l235 -2q172 -2 250 -66.5t78 -181.5q0 -145 -129 -248.5t-410 -103.5q-221 0 -328.5 70.5t-107.5 187.5zM264 -90q0 -59 57.5 -94t174.5 -35q160 0 227.5 37t67.5 92q0 43 -32 66.5t-102 25.5l-342 10 q-25 -18 -38 -43.5t-13 -58.5zM311 659q0 -92 50.5 -136t142.5 -44q94 0 144 47t50 148q0 88 -47 134t-145 46q-86 0 -140.5 -48t-54.5 -147z" />
<glyph unicode="h" horiz-adv-x="1126" d="M139 0v1419l252 13v-484q68 43 129.5 61.5t130.5 18.5q164 0 258.5 -93t94.5 -269v-666h-252v612q0 100 -45 142.5t-132 42.5q-51 0 -94 -7.5t-90 -25.5v-764h-252z" />
<glyph unicode="i" horiz-adv-x="530" d="M119 1292q0 57 38 100.5t107 43.5q70 0 108 -41t38 -103q0 -55 -38 -97t-108 -42t-107.5 40t-37.5 99zM139 0v1010l252 10v-1020h-252z" />
<glyph unicode="j" horiz-adv-x="530" d="M-14 -203q78 20 115.5 71.5t37.5 139.5v1002l252 10v-1006q0 -199 -112.5 -296t-272.5 -117zM119 1292q0 57 38 100.5t107 43.5q70 0 108 -41t38 -103q0 -55 -38 -97t-108 -42t-107.5 40t-37.5 99z" />
<glyph unicode="k" horiz-adv-x="1064" d="M139 0v1419l252 13v-777h84l281 361h282l-342 -426l367 -590h-303l-271 465h-98v-465h-252z" />
<glyph unicode="l" horiz-adv-x="530" d="M139 0v1419l252 13v-1432h-252z" />
<glyph unicode="m" horiz-adv-x="1718" d="M139 0v1010l244 10v-76q70 45 130 64.5t136 19.5q98 0 164 -28.5t113 -84.5q70 53 148.5 83t170.5 30q166 0 258 -94t92 -270v-664h-252v608q0 100 -45 144.5t-129 44.5q-51 0 -88 -6.5t-88 -26.5v-764h-252v608q0 102 -46 145.5t-128 43.5q-53 0 -90 -7.5t-86 -25.5 v-764h-252z" />
<glyph unicode="n" horiz-adv-x="1126" d="M139 0v1010l244 10v-76q66 45 129 64.5t139 19.5q164 0 258.5 -93t94.5 -269v-666h-252v612q0 100 -45 142.5t-132 42.5q-51 0 -92 -7.5t-92 -25.5v-764h-252z" />
<glyph unicode="o" horiz-adv-x="1159" d="M82 487q0 250 153.5 398.5t358.5 148.5q211 0 347 -129t136 -379t-153.5 -397t-358.5 -147q-211 0 -347 128t-136 377zM338 496q0 -147 66.5 -220t175.5 -73q100 0 170.5 81.5t70.5 235.5q0 147 -67.5 220t-173.5 73q-100 0 -171 -81t-71 -236z" />
<glyph unicode="p" horiz-adv-x="1144" d="M139 -391v1401l244 10v-78q51 39 118.5 62.5t143.5 23.5q190 0 304 -121t114 -362q0 -268 -153.5 -412.5t-399.5 -144.5q-37 0 -63.5 3t-55.5 9v-391h-252zM389 211q37 -6 59.5 -8t55.5 -2q137 0 220 78.5t83 246.5q0 137 -64.5 204t-173.5 67q-51 0 -91 -7.5t-89 -25.5 v-553z" />
<glyph unicode="q" horiz-adv-x="1148" d="M82 475q0 256 151.5 404.5t415.5 148.5q90 0 175.5 -5t185.5 -15v-1399h-250v457q-53 -37 -117.5 -57.5t-142.5 -20.5q-182 0 -300 122.5t-118 364.5zM338 492q0 -152 69.5 -219.5t174.5 -67.5q51 0 88 8t90 33v559q-33 4 -62.5 7t-66.5 3q-135 0 -214 -82t-79 -241z" />
<glyph unicode="r" horiz-adv-x="710" d="M139 0v1010l250 10v-117q51 68 101.5 96.5t109.5 28.5q35 0 63.5 -3t55.5 -11l-17 -240q-33 8 -57 11t-57 3q-47 0 -96.5 -15t-100.5 -52v-721h-252z" />
<glyph unicode="s" horiz-adv-x="880" d="M80 705q0 141 114.5 232t321.5 91q70 0 134.5 -6t115.5 -14l-14 -211q-68 10 -126.5 15t-121.5 5q-92 0 -133 -24.5t-41 -59.5q0 -33 19.5 -54.5t92.5 -41.5l121 -33q133 -37 189.5 -105.5t56.5 -170.5q0 -160 -115.5 -250t-316.5 -90q-84 0 -161 6t-134 20v217 q74 -18 147.5 -26t141.5 -8q106 0 146 25.5t40 66.5q0 35 -25.5 58.5t-103.5 45.5l-129 39q-104 31 -161.5 97.5t-57.5 175.5z" />
<glyph unicode="t" horiz-adv-x="737" d="M53 825v191h123v186l250 21v-207h256v-191h-256v-458q0 -84 42 -124t110 -40q35 0 62.5 4t66.5 14v-209q-53 -14 -98.5 -19t-106.5 -5q-147 0 -236.5 86t-89.5 258v493h-123z" />
<glyph unicode="u" horiz-adv-x="1112" d="M123 356v654l250 10v-614q0 -104 40 -148.5t128 -44.5q53 0 93 10t89 31v756l250 10v-1020h-242v70q-68 -43 -124 -66.5t-132 -23.5q-178 0 -265 99t-87 277z" />
<glyph unicode="v" horiz-adv-x="987" d="M4 1016h289l207 -821h16l205 821h262l-313 -1016h-348z" />
<glyph unicode="w" horiz-adv-x="1525" d="M6 1016h289l154 -819h10l205 630l-52 189h250l223 -819h11l159 819h263l-263 -1016h-340l-147 555h-6l-172 -555h-326z" />
<glyph unicode="x" horiz-adv-x="964" d="M16 0l320 522l-303 494h295l170 -320h8l149 320h269l-291 -490l313 -526h-282l-191 346h-8l-180 -346h-269z" />
<glyph unicode="y" horiz-adv-x="970" d="M16 1016h277l213 -793h8l188 793h254l-338 -1155q-39 -131 -138 -197.5t-249 -66.5q-33 0 -67.5 2t-69.5 8v200q33 -4 66 -6t63 -2q55 0 104.5 34t69.5 101l29 89h-98z" />
<glyph unicode="z" horiz-adv-x="899" d="M68 0v190l467 619v4h-445v203h735v-189l-467 -618v-6h473v-203h-763z" />
<glyph unicode="{" horiz-adv-x="653" d="M41 418v147q129 18 181 66.5t52 101.5v367q0 119 69 188.5t189 69.5q20 0 48 -2t47 -6v-142q-90 0 -129 -21.5t-39 -78.5v-346q0 -113 -77 -184.5t-239 -88.5v-4q162 -10 239 -66.5t77 -166.5v-358q0 -70 39 -92.5t133 -22.5v-137q-20 -6 -44 -10.5t-48 -4.5 q-135 0 -200 53.5t-65 155.5v391q0 59 -52 109.5t-181 81.5z" />
<glyph unicode="|" horiz-adv-x="481" d="M145 -356v1699h191v-1699h-191z" />
<glyph unicode="}" horiz-adv-x="653" d="M23 1206v137q20 6 44.5 10.5t49.5 4.5q135 0 199.5 -53.5t64.5 -157.5v-389q0 -59 52 -109.5t179 -81.5v-147q-127 -18 -179 -66.5t-52 -101.5v-367q0 -119 -68.5 -188.5t-189.5 -69.5q-20 0 -48 2t-46 6v142q88 0 127 21.5t39 78.5v346q0 113 76.5 184.5t238.5 88.5v4 q-162 10 -238.5 66.5t-76.5 166.5v359q0 70 -39 92t-133 22z" />
<glyph unicode="~" d="M123 639q51 70 118.5 109.5t143.5 39.5q102 0 180 -77.5t160 -77.5q45 0 87 26.5t77 71.5l63 -153q-45 -66 -101 -106t-144 -40q-94 0 -177.5 78t-164.5 78q-43 0 -90.5 -26.5t-86.5 -78.5z" />
<glyph unicode="&#xa1;" horiz-adv-x="626" d="M147 852q0 72 41 123t123 51t125 -45t43 -129q0 -76 -41 -128t-123 -52t-125 46t-43 134zM162 -340l24 627v299l258 6v-909z" />
<glyph unicode="&#xa2;" d="M166 653q0 209 103.5 346.5t260.5 178.5v208h183v-190q45 -2 83 -8t81 -17l-21 -225q-45 8 -85 13.5t-87 5.5q-119 0 -190.5 -79t-71.5 -220q0 -154 74.5 -224.5t189.5 -70.5q47 0 91 6t97 20v-217q-41 -12 -80.5 -18t-80.5 -6v-199h-183v207q-168 33 -266 154.5 t-98 334.5z" />
<glyph unicode="&#xa3;" d="M82 0v213h96q27 33 39 71t12 105v223h-125v197h125v158q0 178 107.5 282.5t320.5 104.5q57 0 112.5 -6.5t100.5 -18.5v-223q-45 12 -103 18t-120 6q-78 0 -114.5 -38.5t-36.5 -114.5v-168h270v-197h-270v-209q0 -68 -7.5 -108.5t-25.5 -81.5h262q61 0 123.5 10t120.5 31 v-217q-45 -18 -103.5 -27.5t-152.5 -9.5h-631z" />
<glyph unicode="&#xa4;" d="M121 324l121 118q-23 37 -33 78t-10 86q0 43 10 84t33 80l-121 119l133 133l119 -121q37 20 78 31.5t86 11.5q43 0 84 -11t79 -32l119 121l135 -133l-125 -119q20 -37 32.5 -79t12.5 -85q0 -45 -11 -87t-32 -79l121 -114l-133 -131l-119 116q-37 -23 -77.5 -33t-85.5 -10 t-86 10.5t-78 32.5l-119 -121zM375 606q0 -68 47 -115t115 -47t114.5 47.5t46.5 114.5q0 68 -47 115t-114 47q-68 0 -115 -47t-47 -115z" />
<glyph unicode="&#xa5;" d="M16 1343h299l240 -548h8l234 548h262l-307 -638h188v-199h-272v-135h272v-199h-268v-172h-266v172h-273v199h277v135h-277v199h191z" />
<glyph unicode="&#xa6;" horiz-adv-x="481" d="M145 209h191v-565h-191v565zM145 778v565h191v-565h-191z" />
<glyph unicode="&#xa7;" horiz-adv-x="1083" d="M96 -119q100 -18 180 -25.5t168 -7.5q137 0 211 52.5t74 111.5q0 37 -16.5 67t-53.5 56q-29 -8 -58.5 -12t-59.5 -4q-166 0 -277.5 111.5t-111.5 277.5q0 51 13 100t36 90q-43 45 -65.5 106.5t-22.5 147.5q0 182 139 294t393 112q70 0 143.5 -6.5t143.5 -20.5l-17 -221 q-76 14 -141 20.5t-143 6.5q-135 0 -196.5 -44t-61.5 -112q0 -31 10 -56.5t33 -45.5q31 10 61.5 14t63.5 4q166 0 277.5 -111.5t111.5 -277.5q0 -51 -13.5 -98.5t-33.5 -90.5q53 -45 79.5 -109.5t26.5 -143.5q0 -193 -146.5 -316t-406.5 -123q-92 0 -171 5.5t-169 19.5v229z M362 508q0 -78 51.5 -131t127.5 -53t126 53t50 131t-50.5 130t-125.5 52q-76 0 -127.5 -52t-51.5 -130z" />
<glyph unicode="&#xa8;" horiz-adv-x="880" d="M137 1286q0 57 31 96t92 39q63 0 94 -35.5t31 -99.5q0 -53 -30.5 -93t-94.5 -40q-61 0 -92 35t-31 98zM500 1286q0 57 30.5 96t92.5 39q63 0 94 -35.5t31 -99.5q0 -53 -31 -93t-94 -40q-61 0 -92 35t-31 98z" />
<glyph unicode="&#xa9;" horiz-adv-x="1601" d="M104 670q0 285 205 488.5t492 203.5q285 0 489.5 -204t204.5 -488q0 -287 -205 -491t-489 -204q-287 0 -492 204t-205 491zM231 670q0 -236 167 -407t403 -171q233 0 400 171t167 407q0 233 -167 404t-400 171q-236 0 -403 -171t-167 -404zM399 637q0 219 137.5 329.5 t333.5 110.5q47 0 85 -4t89 -12l-12 -174q-55 8 -89 11t-79 3q-113 0 -184.5 -63.5t-71.5 -186.5q0 -121 75 -175t173 -54q57 0 94 4t94 14v-170q-57 -10 -94 -14t-104 -4q-197 0 -322 94t-125 291z" />
<glyph unicode="&#xaa;" horiz-adv-x="759" d="M43 858q0 98 79 156.5t255 58.5q33 0 56.5 -1t35.5 -1v12q0 45 -38 69t-120 24q-49 0 -96 -11.5t-109 -31.5l-22 174q68 20 132.5 33.5t133.5 13.5q158 0 242 -65.5t84 -194.5v-416h-199v39q-39 -20 -87 -33.5t-111 -13.5q-117 0 -176.5 50t-59.5 138zM256 870 q0 -25 26.5 -41t79.5 -16q33 0 55.5 2t51.5 6v113q-12 2 -36.5 4t-45.5 2q-70 0 -100.5 -20.5t-30.5 -49.5z" />
<glyph unicode="&#xab;" horiz-adv-x="1198" d="M100 514l332 438h244l-311 -428l311 -448h-244zM518 514l332 438h244l-312 -428l312 -448h-244z" />
<glyph unicode="&#xac;" d="M133 692v199h807v-531h-199v332h-608z" />
<glyph unicode="&#xad;" horiz-adv-x="798" d="M135 473v229h529v-229h-529z" />
<glyph unicode="&#xae;" horiz-adv-x="1601" d="M104 670q0 285 205 488.5t492 203.5q285 0 489.5 -204t204.5 -488q0 -287 -205 -491t-489 -204q-287 0 -492 204t-205 491zM231 670q0 -236 167 -407t403 -171q233 0 400 171t167 407q0 233 -167 404t-400 171q-236 0 -403 -171t-167 -404zM498 260v809h276 q186 0 267 -65.5t81 -165.5q0 -96 -42 -160t-111 -92l207 -326h-232l-151 262h-99v-262h-196zM692 674h90q68 0 102 34.5t34 96.5q0 51 -33 80.5t-127 29.5h-66v-241z" />
<glyph unicode="&#xaf;" horiz-adv-x="800" d="M141 1169v170h514v-170h-514z" />
<glyph unicode="&#xb0;" horiz-adv-x="778" d="M80 1042q0 129 92 222.5t221 93.5t222.5 -93.5t93.5 -222.5t-93.5 -221t-222.5 -92t-221 92t-92 221zM256 1042q0 -59 40 -100t97 -41t98 41t41 100t-40.5 101.5t-98.5 42.5q-57 0 -97 -42.5t-40 -101.5z" />
<glyph unicode="&#xb1;" d="M133 0v199h807v-199h-807zM133 532v199h303v303h199v-303h305v-199h-305v-280h-199v280h-303z" />
<glyph unicode="&#xb2;" horiz-adv-x="776" d="M74 684q10 70 63 137.5t135 114.5l82 47q55 33 82 65.5t27 73.5q0 45 -35 74t-115 29q-53 0 -98 -6.5t-102 -22.5v184q57 14 119.5 22.5t123.5 8.5q168 0 246 -72.5t78 -189.5q0 -86 -52.5 -163t-146.5 -124l-59 -31q-59 -31 -92 -64.5t-47 -72.5h422v-164h-619z" />
<glyph unicode="&#xb3;" horiz-adv-x="776" d="M86 518v166h131q135 0 198.5 35t63.5 92q0 51 -34.5 87t-92.5 44q-47 -27 -86 -42t-96 -26l-35 132q94 27 197.5 87t167.5 138h-389v172h553l20 -191q-45 -53 -93 -90t-122 -71v-7q111 -18 165 -76.5t54 -133.5q0 -131 -119.5 -223.5t-349.5 -92.5h-133z" />
<glyph unicode="&#xb4;" horiz-adv-x="858" d="M377 1128l145 297h264l-223 -297h-186z" />
<glyph unicode="&#xb5;" horiz-adv-x="1130" d="M139 -82v1092l252 10v-614q0 -102 38 -147.5t128 -45.5q53 0 93 10t89 31v756l250 10v-744q0 -41 14.5 -56t36.5 -15q16 0 34 6t38 16v-213q-33 -12 -77 -19t-101 -7q-59 0 -110.5 29.5t-71.5 76.5q-47 -55 -110.5 -84.5t-147.5 -29.5q-33 0 -63 6t-50 16v-65 q0 -86 15.5 -169t45.5 -159h-247q-31 72 -43.5 143.5t-12.5 165.5z" />
<glyph unicode="&#xb6;" horiz-adv-x="1511" d="M78 780q0 262 159.5 415t446.5 153q51 0 92 -2.5t84 -2.5h502v-1880h-250v1692h-184v-1692h-180v746q-33 -10 -83.5 -16.5t-95.5 -6.5q-209 0 -350 139.5t-141 454.5z" />
<glyph unicode="&#xb7;" horiz-adv-x="530" d="M98 604q0 76 42 128t124 52q80 0 124 -46t44 -134q0 -74 -42 -124t-124 -50q-80 0 -124 44t-44 130z" />
<glyph unicode="&#xb8;" horiz-adv-x="827" d="M205 -258h98q82 0 107.5 12.5t25.5 32.5q0 18 -21.5 30.5t-90.5 20.5l-33 4v107l170 -12q86 -6 124 -36t38 -89q0 -88 -82 -145.5t-240 -57.5h-96v133z" />
<glyph unicode="&#xb9;" horiz-adv-x="776" d="M133 1202v154q78 23 166 35t152 12h102v-873h-211v689q-43 0 -100.5 -4.5t-108.5 -12.5z" />
<glyph unicode="&#xba;" horiz-adv-x="815" d="M55 991q0 162 107.5 262.5t255.5 100.5q150 0 246 -84t96 -246q0 -164 -108.5 -263t-256.5 -99q-147 0 -243.5 83.5t-96.5 245.5zM264 995q0 -82 39 -118.5t103 -36.5q63 0 104 48t41 130t-39 121t-104 39q-63 0 -103.5 -50.5t-40.5 -132.5z" />
<glyph unicode="&#xbb;" horiz-adv-x="1198" d="M104 76l312 428l-312 448h244l332 -438l-332 -438h-244zM522 76l312 428l-312 448h244l332 -438l-332 -438h-244z" />
<glyph unicode="&#xbc;" horiz-adv-x="1683" d="M133 1202v154q78 23 166 35t152 12h102v-873h-211v689q-43 0 -100.5 -4.5t-108.5 -12.5zM264 -217l938 1622l158 -92l-938 -1622zM846 -4q43 178 142 317.5t249 251.5h231v-545h111v-170h-111v-157h-211v157h-370zM1020 20h242v361h-2q-92 -76 -148.5 -160t-91.5 -201z " />
<glyph unicode="&#xbd;" horiz-adv-x="1683" d="M133 1202v154q78 23 166 35t152 12h102v-873h-211v689q-43 0 -100.5 -4.5t-108.5 -12.5zM264 -217l938 1622l158 -92l-938 -1622zM956 -154q10 70 63.5 137.5t135.5 114.5l82 47q55 33 82 66t27 74q0 45 -35 73.5t-115 28.5q-53 0 -98.5 -6.5t-102.5 -22.5v185 q57 14 120 22t124 8q168 0 246 -72.5t78 -189.5q0 -86 -52.5 -162.5t-146.5 -123.5l-59 -31q-59 -31 -92 -64.5t-48 -72.5h422v-164h-618z" />
<glyph unicode="&#xbe;" horiz-adv-x="1683" d="M86 518v166h131q135 0 198.5 35t63.5 92q0 51 -34.5 87t-92.5 44q-47 -27 -86 -42t-96 -26l-35 132q94 27 197.5 87t167.5 138h-389v172h553l20 -191q-45 -53 -93 -90t-122 -71v-7q111 -18 165 -76.5t54 -133.5q0 -131 -119.5 -223.5t-349.5 -92.5h-133zM264 -217 l938 1622l158 -92l-938 -1622zM846 -4q43 178 142 317.5t249 251.5h231v-545h111v-170h-111v-157h-211v157h-370zM1020 20h242v361h-2q-92 -76 -148.5 -160t-91.5 -201z" />
<glyph unicode="&#xbf;" horiz-adv-x="942" d="M102 -31q0 123 50.5 197t173.5 139l100 51q45 23 64.5 50.5t19.5 60.5q0 29 -7 54.5t-24 60.5l205 10q31 -31 48.5 -70t17.5 -86q0 -70 -36 -124t-120 -103l-107 -62q-63 -35 -88.5 -68.5t-25.5 -78.5t48 -78t142 -33q72 0 142.5 14.5t146.5 43.5v-223 q-88 -33 -173 -49.5t-183 -16.5q-176 0 -285 86t-109 225zM410 852q0 72 41 123t122 51q82 0 125 -45t43 -129q0 -76 -41 -128t-122 -52q-82 0 -125 46t-43 134z" />
<glyph unicode="&#xc0;" horiz-adv-x="1232" d="M23 0l393 1343h401l391 -1343h-307l-74 289h-454l-74 -289h-276zM328 1774h262l148 -297h-187zM426 502h346l-166 620h-14z" />
<glyph unicode="&#xc1;" horiz-adv-x="1232" d="M23 0l393 1343h401l391 -1343h-307l-74 289h-454l-74 -289h-276zM426 502h346l-166 620h-14zM502 1477l145 297h264l-223 -297h-186z" />
<glyph unicode="&#xc2;" horiz-adv-x="1232" d="M23 0l393 1343h401l391 -1343h-307l-74 289h-454l-74 -289h-276zM285 1477l229 297h222l211 -297h-218l-112 159h-13l-114 -159h-205zM426 502h346l-166 620h-14z" />
<glyph unicode="&#xc3;" horiz-adv-x="1232" d="M23 0l393 1343h401l391 -1343h-307l-74 289h-454l-74 -289h-276zM295 1651q37 53 89 88t109 35q80 0 151.5 -56.5t131.5 -56.5q33 0 62.5 15t56.5 48l43 -147q-33 -55 -79 -87t-108 -32q-72 0 -148.5 56.5t-133.5 56.5q-33 0 -69 -17.5t-62 -50.5zM426 502h346l-166 620 h-14z" />
<glyph unicode="&#xc4;" horiz-adv-x="1232" d="M23 0l393 1343h401l391 -1343h-307l-74 289h-454l-74 -289h-276zM305 1597q0 57 31 96.5t92 39.5q63 0 94 -36t31 -100q0 -53 -31 -93t-94 -40q-61 0 -92 35t-31 98zM426 502h346l-166 620h-14zM680 1597q0 57 30.5 96.5t92.5 39.5q63 0 94 -36t31 -100q0 -53 -31 -93 t-94 -40q-61 0 -92 35t-31 98z" />
<glyph unicode="&#xc5;" horiz-adv-x="1232" d="M23 0l393 1343h401l391 -1343h-307l-74 289h-454l-74 -289h-276zM426 502h346l-166 620h-14zM428 1640q0 78 56 131.5t132 53.5q78 0 132 -53.5t54 -131.5q0 -76 -54 -132t-132 -56q-76 0 -132 56t-56 132zM542 1640q0 -33 20.5 -55t53.5 -22q27 0 49.5 22.5t22.5 54.5 q0 29 -22.5 52.5t-49.5 23.5q-33 0 -53.5 -23.5t-20.5 -52.5z" />
<glyph unicode="&#xc6;" horiz-adv-x="1718" d="M8 0l721 1343h870v-217h-450v-327h416v-217h-416v-365h457v-217h-723v289h-434l-150 -289h-291zM557 502h328v641h-13z" />
<glyph unicode="&#xc7;" horiz-adv-x="1093" d="M96 631q0 362 205 544.5t492 182.5q76 0 135 -6t129 -21l-19 -225q-78 14 -129 17t-125 3q-168 0 -287.5 -117.5t-119.5 -353.5q0 -227 123 -336.5t274 -109.5q86 0 144.5 6.5t140.5 20.5v-218q-88 -20 -142.5 -26t-156.5 -6q-281 0 -472.5 160.5t-191.5 484.5zM467 -252 h117q86 0 111.5 12.5t25.5 32.5q0 14 -17.5 24.5t-85.5 18.5l-63 8v113l168 -14q100 -8 147 -41t47 -90q0 -88 -89 -145.5t-247 -57.5h-114v139z" />
<glyph unicode="&#xc8;" horiz-adv-x="1003" d="M170 0v1343h717v-217h-451v-327h416v-217h-416v-365h457v-217h-723zM248 1774h262l148 -297h-187z" />
<glyph unicode="&#xc9;" horiz-adv-x="1003" d="M170 0v1343h717v-217h-451v-327h416v-217h-416v-365h457v-217h-723zM422 1477l145 297h264l-223 -297h-186z" />
<glyph unicode="&#xca;" horiz-adv-x="1003" d="M170 0v1343h717v-217h-451v-327h416v-217h-416v-365h457v-217h-723zM205 1477l229 297h222l211 -297h-218l-112 159h-13l-114 -159h-205z" />
<glyph unicode="&#xcb;" horiz-adv-x="1003" d="M170 0v1343h717v-217h-451v-327h416v-217h-416v-365h457v-217h-723zM225 1597q0 57 31 96.5t92 39.5q63 0 94 -36t31 -100q0 -53 -31 -93t-94 -40q-61 0 -92 35t-31 98zM600 1597q0 57 30.5 96.5t92.5 39.5q63 0 94 -36t31 -100q0 -53 -31 -93t-94 -40q-61 0 -92 35 t-31 98z" />
<glyph unicode="&#xcc;" horiz-adv-x="604" d="M18 1774h262l148 -297h-187zM170 0v1343h266v-1343h-266z" />
<glyph unicode="&#xcd;" horiz-adv-x="604" d="M170 0v1343h266v-1343h-266zM191 1477l145 297h264l-223 -297h-186z" />
<glyph unicode="&#xce;" horiz-adv-x="604" d="M-25 1477l229 297h222l211 -297h-218l-112 159h-13l-114 -159h-205zM170 0v1343h266v-1343h-266z" />
<glyph unicode="&#xcf;" horiz-adv-x="604" d="M-4 1597q0 57 31 96.5t92 39.5q63 0 94 -36t31 -100q0 -53 -31 -93t-94 -40q-61 0 -92 35t-31 98zM170 0v1343h266v-1343h-266zM371 1597q0 57 30.5 96.5t92.5 39.5q63 0 94 -36t31 -100q0 -53 -31 -93t-94 -40q-61 0 -92 35t-31 98z" />
<glyph unicode="&#xd0;" horiz-adv-x="1372" d="M63 569v234h156v540h391q346 0 530.5 -166.5t184.5 -465.5q0 -365 -195.5 -538t-531.5 -173h-379v569h-156zM485 217h125q197 0 315.5 112.5t118.5 368.5q0 207 -121.5 317.5t-328.5 110.5h-109v-323h240v-234h-240v-352z" />
<glyph unicode="&#xd1;" horiz-adv-x="1372" d="M170 0v1343h405l381 -1085h13v1085h235v-1343h-407l-379 1085h-12v-1085h-236zM369 1651q37 53 89 88t109 35q80 0 151.5 -56.5t131.5 -56.5q33 0 62.5 15t56.5 48l43 -147q-33 -55 -79 -87t-108 -32q-72 0 -148.5 56.5t-133.5 56.5q-33 0 -69 -17.5t-62 -50.5z" />
<glyph unicode="&#xd2;" horiz-adv-x="1480" d="M96 659q0 342 198 522.5t462 180.5q260 0 444 -166t184 -512q0 -342 -195.5 -522t-459.5 -180q-262 0 -447.5 165.5t-185.5 511.5zM377 682q0 -250 107.5 -356.5t256.5 -106.5q135 0 249 104.5t114 338.5q0 250 -106.5 357t-256.5 107q-139 0 -251.5 -105.5 t-112.5 -338.5zM453 1774h262l148 -297h-187z" />
<glyph unicode="&#xd3;" horiz-adv-x="1480" d="M96 659q0 342 198 522.5t462 180.5q260 0 444 -166t184 -512q0 -342 -195.5 -522t-459.5 -180q-262 0 -447.5 165.5t-185.5 511.5zM377 682q0 -250 107.5 -356.5t256.5 -106.5q135 0 249 104.5t114 338.5q0 250 -106.5 357t-256.5 107q-139 0 -251.5 -105.5 t-112.5 -338.5zM627 1477l145 297h264l-223 -297h-186z" />
<glyph unicode="&#xd4;" horiz-adv-x="1480" d="M96 659q0 342 198 522.5t462 180.5q260 0 444 -166t184 -512q0 -342 -195.5 -522t-459.5 -180q-262 0 -447.5 165.5t-185.5 511.5zM377 682q0 -250 107.5 -356.5t256.5 -106.5q135 0 249 104.5t114 338.5q0 250 -106.5 357t-256.5 107q-139 0 -251.5 -105.5 t-112.5 -338.5zM410 1477l229 297h222l211 -297h-218l-112 159h-13l-114 -159h-205z" />
<glyph unicode="&#xd5;" horiz-adv-x="1480" d="M96 659q0 342 198 522.5t462 180.5q260 0 444 -166t184 -512q0 -342 -195.5 -522t-459.5 -180q-262 0 -447.5 165.5t-185.5 511.5zM377 682q0 -250 107.5 -356.5t256.5 -106.5q135 0 249 104.5t114 338.5q0 250 -106.5 357t-256.5 107q-139 0 -251.5 -105.5 t-112.5 -338.5zM422 1651q37 53 89 88t109 35q80 0 151.5 -56.5t131.5 -56.5q33 0 62.5 15t56.5 48l43 -147q-33 -55 -79 -87t-108 -32q-72 0 -148.5 56.5t-133.5 56.5q-33 0 -69 -17.5t-62 -50.5z" />
<glyph unicode="&#xd6;" horiz-adv-x="1480" d="M96 659q0 342 198 522.5t462 180.5q260 0 444 -166t184 -512q0 -342 -195.5 -522t-459.5 -180q-262 0 -447.5 165.5t-185.5 511.5zM377 682q0 -250 107.5 -356.5t256.5 -106.5q135 0 249 104.5t114 338.5q0 250 -106.5 357t-256.5 107q-139 0 -251.5 -105.5 t-112.5 -338.5zM430 1597q0 57 31 96.5t92 39.5q63 0 94 -36t31 -100q0 -53 -31 -93t-94 -40q-61 0 -92 35t-31 98zM805 1597q0 57 30.5 96.5t92.5 39.5q63 0 94 -36t31 -100q0 -53 -31 -93t-94 -40q-61 0 -92 35t-31 98z" />
<glyph unicode="&#xd7;" d="M164 375l231 231l-231 232l141 139l230 -232l233 234l139 -141l-231 -232l231 -231l-139 -142l-233 234l-230 -231z" />
<glyph unicode="&#xd8;" horiz-adv-x="1480" d="M96 659q0 342 198 522.5t462 180.5q72 0 141.5 -13.5t132.5 -39.5l70 118l114 -63l-67 -119q109 -82 173 -222t64 -339q0 -342 -195.5 -522t-459.5 -180q-76 0 -146.5 13t-133.5 40l-70 -119l-115 64l68 122q-106 80 -171 219t-65 338zM371 682q0 -117 26.5 -205 t69.5 -145l442 766q-39 18 -81 26.5t-87 8.5q-139 0 -254.5 -109t-115.5 -342zM571 248q39 -18 80 -26.5t90 -8.5q135 0 252 108t117 341q0 117 -26.5 205.5t-69.5 146.5z" />
<glyph unicode="&#xd9;" horiz-adv-x="1335" d="M154 465v878h266v-845q0 -141 66.5 -210t189.5 -69t191.5 70.5t68.5 204.5v849h246v-858q0 -221 -139 -362t-379 -141q-256 0 -383 125.5t-127 357.5zM381 1774h262l148 -297h-187z" />
<glyph unicode="&#xda;" horiz-adv-x="1335" d="M154 465v878h266v-845q0 -141 66.5 -210t189.5 -69t191.5 70.5t68.5 204.5v849h246v-858q0 -221 -139 -362t-379 -141q-256 0 -383 125.5t-127 357.5zM555 1477l145 297h264l-223 -297h-186z" />
<glyph unicode="&#xdb;" horiz-adv-x="1335" d="M154 465v878h266v-845q0 -141 66.5 -210t189.5 -69t191.5 70.5t68.5 204.5v849h246v-858q0 -221 -139 -362t-379 -141q-256 0 -383 125.5t-127 357.5zM338 1477l229 297h222l211 -297h-218l-112 159h-13l-114 -159h-205z" />
<glyph unicode="&#xdc;" horiz-adv-x="1335" d="M154 465v878h266v-845q0 -141 66.5 -210t189.5 -69t191.5 70.5t68.5 204.5v849h246v-858q0 -221 -139 -362t-379 -141q-256 0 -383 125.5t-127 357.5zM358 1597q0 57 31 96.5t92 39.5q63 0 94 -36t31 -100q0 -53 -31 -93t-94 -40q-61 0 -92 35t-31 98zM733 1597 q0 57 30.5 96.5t92.5 39.5q63 0 94 -36t31 -100q0 -53 -31 -93t-94 -40q-61 0 -92 35t-31 98z" />
<glyph unicode="&#xdd;" horiz-adv-x="1128" d="M16 1343h299l267 -565h8l260 565h262l-414 -806v-537h-266v537zM451 1477l145 297h264l-223 -297h-186z" />
<glyph unicode="&#xde;" horiz-adv-x="1134" d="M170 0v1343h266v-208h170q225 0 348 -116t123 -302q0 -213 -137 -338t-358 -125q-41 0 -76 2t-70 6v-262h-266zM432 473q27 -4 57.5 -6t57.5 -2q115 0 183.5 61.5t68.5 171.5q0 111 -58.5 168.5t-175.5 57.5h-133v-451z" />
<glyph unicode="&#xdf;" horiz-adv-x="1290" d="M176 0v1069q0 164 106.5 265.5t327.5 101.5q215 0 333 -84t118 -238q0 -160 -112.5 -219t-112.5 -145q0 -23 17 -44.5t62 -48.5l97 -53q117 -63 163 -123.5t46 -146.5q0 -154 -116 -250t-276 -96q-76 0 -143.5 6t-124.5 20v217q74 -18 140.5 -26t123.5 -8q80 0 117 24.5 t37 63.5q0 23 -17.5 49t-68.5 55l-107 62q-111 63 -147.5 117.5t-36.5 138.5q0 150 113.5 221t113.5 172q0 63 -51 101t-170 38q-90 0 -136 -44t-46 -112v-1083h-250z" />
<glyph unicode="&#xe0;" horiz-adv-x="1030" d="M63 272q0 143 112 233.5t351 90.5q39 0 74 -1t64 -1v45q0 78 -50.5 121t-175.5 43q-74 0 -139.5 -14.5t-146.5 -47.5l-33 211q94 39 181 57.5t185 18.5q215 0 318.5 -95t103.5 -269v-664h-235v63q-59 -39 -127 -57t-158 -18q-158 0 -241 78.5t-83 205.5zM209 1428h262 l148 -297h-187zM319 293q0 -51 38 -80t106 -29q57 0 104 11.5t97 33.5v187q-29 2 -65 3t-64 1q-115 0 -165.5 -35t-50.5 -92z" />
<glyph unicode="&#xe1;" horiz-adv-x="1030" d="M63 272q0 143 112 233.5t351 90.5q39 0 74 -1t64 -1v45q0 78 -50.5 121t-175.5 43q-74 0 -139.5 -14.5t-146.5 -47.5l-33 211q94 39 181 57.5t185 18.5q215 0 318.5 -95t103.5 -269v-664h-235v63q-59 -39 -127 -57t-158 -18q-158 0 -241 78.5t-83 205.5zM319 293 q0 -51 38 -80t106 -29q57 0 104 11.5t97 33.5v187q-29 2 -65 3t-64 1q-115 0 -165.5 -35t-50.5 -92zM383 1131l145 297h264l-223 -297h-186z" />
<glyph unicode="&#xe2;" horiz-adv-x="1030" d="M63 272q0 143 112 233.5t351 90.5q39 0 74 -1t64 -1v45q0 78 -50.5 121t-175.5 43q-74 0 -139.5 -14.5t-146.5 -47.5l-33 211q94 39 181 57.5t185 18.5q215 0 318.5 -95t103.5 -269v-664h-235v63q-59 -39 -127 -57t-158 -18q-158 0 -241 78.5t-83 205.5zM166 1131 l229 297h222l211 -297h-218l-112 159h-13l-114 -159h-205zM319 293q0 -51 38 -80t106 -29q57 0 104 11.5t97 33.5v187q-29 2 -65 3t-64 1q-115 0 -165.5 -35t-50.5 -92z" />
<glyph unicode="&#xe3;" horiz-adv-x="1030" d="M63 272q0 143 112 233.5t351 90.5q39 0 74 -1t64 -1v45q0 78 -50.5 121t-175.5 43q-74 0 -139.5 -14.5t-146.5 -47.5l-33 211q94 39 181 57.5t185 18.5q215 0 318.5 -95t103.5 -269v-664h-235v63q-59 -39 -127 -57t-158 -18q-158 0 -241 78.5t-83 205.5zM189 1300 q37 53 89 87t109 34q80 0 141.5 -59t121.5 -59q33 0 62 16t56 53l43 -145q-33 -55 -79 -86t-107 -31q-72 0 -138.5 59.5t-123.5 59.5q-33 0 -69 -18.5t-62 -55.5zM319 293q0 -51 38 -80t106 -29q57 0 104 11.5t97 33.5v187q-29 2 -65 3t-64 1q-115 0 -165.5 -35t-50.5 -92z " />
<glyph unicode="&#xe4;" horiz-adv-x="1030" d="M63 272q0 143 112 233.5t351 90.5q39 0 74 -1t64 -1v45q0 78 -50.5 121t-175.5 43q-74 0 -139.5 -14.5t-146.5 -47.5l-33 211q94 39 181 57.5t185 18.5q215 0 318.5 -95t103.5 -269v-664h-235v63q-59 -39 -127 -57t-158 -18q-158 0 -241 78.5t-83 205.5zM198 1286 q0 57 31 96t92 39q63 0 94 -35.5t31 -99.5q0 -53 -30.5 -93t-94.5 -40q-61 0 -92 35t-31 98zM319 293q0 -51 38 -80t106 -29q57 0 104 11.5t97 33.5v187q-29 2 -65 3t-64 1q-115 0 -165.5 -35t-50.5 -92zM561 1286q0 57 30.5 96t92.5 39q63 0 94 -35.5t31 -99.5 q0 -53 -31 -93t-94 -40q-61 0 -92 35t-31 98z" />
<glyph unicode="&#xe5;" horiz-adv-x="1030" d="M63 272q0 143 112 233.5t351 90.5q39 0 74 -1t64 -1v45q0 78 -50.5 121t-175.5 43q-74 0 -139.5 -14.5t-146.5 -47.5l-33 211q94 39 181 57.5t185 18.5q215 0 318.5 -95t103.5 -269v-664h-235v63q-59 -39 -127 -57t-158 -18q-158 0 -241 78.5t-83 205.5zM310 1306 q0 78 56 131.5t132 53.5q78 0 132 -53.5t54 -131.5q0 -76 -54 -132t-132 -56q-76 0 -132 56t-56 132zM319 293q0 -51 38 -80t106 -29q57 0 104 11.5t97 33.5v187q-29 2 -65 3t-64 1q-115 0 -165.5 -35t-50.5 -92zM424 1306q0 -33 20.5 -55t53.5 -22q27 0 49.5 22.5 t22.5 54.5q0 29 -22.5 52.5t-49.5 23.5q-33 0 -53.5 -23.5t-20.5 -52.5z" />
<glyph unicode="&#xe6;" horiz-adv-x="1607" d="M63 272q0 145 112 234.5t351 89.5q39 0 74 -1t64 -1v43q0 82 -51.5 124t-174.5 42q-74 0 -139.5 -14.5t-146.5 -47.5l-33 211q94 39 181 57.5t185 18.5q113 0 195 -27.5t133 -78.5q63 55 142 83.5t167 28.5q186 0 297 -110.5t111 -305.5q0 -51 -2 -101t-6 -83h-625 q23 -121 99.5 -178t211.5 -57q86 0 150.5 11t140.5 34v-205q-80 -25 -150.5 -38t-170.5 -13q-129 0 -224.5 34.5t-162.5 102.5q-66 -57 -168.5 -97t-239.5 -40q-152 0 -236 77.5t-84 206.5zM319 289q0 -45 38 -75t102 -30q72 0 135 19.5t113 48.5q-18 35 -29.5 76t-13.5 88 q-27 2 -62 3t-67 1q-119 0 -167.5 -37t-48.5 -94zM899 614h389q0 96 -50 162t-134 66q-78 0 -134.5 -58.5t-70.5 -169.5z" />
<glyph unicode="&#xe7;" horiz-adv-x="847" d="M82 489q0 254 149.5 398.5t356.5 144.5q63 0 111.5 -5t101.5 -19l-21 -228q-45 8 -87 13.5t-89 5.5q-119 0 -192.5 -79t-73.5 -220q0 -154 77 -224.5t191 -70.5q49 0 94 6t97 20v-215q-51 -14 -103.5 -21t-111.5 -7q-225 0 -362.5 122.5t-137.5 378.5zM279 -258h98 q82 0 107.5 12.5t25.5 32.5q0 18 -21.5 30.5t-90.5 20.5l-33 4v107l170 -12q86 -6 124 -36t38 -89q0 -88 -82 -145.5t-240 -57.5h-96v133z" />
<glyph unicode="&#xe8;" horiz-adv-x="1032" d="M82 506q0 258 136 393t329 135q186 0 296.5 -110.5t110.5 -305.5q0 -51 -2 -101t-6 -83h-622q23 -121 98.5 -178t210.5 -57q86 0 151.5 11t139.5 34v-205q-82 -25 -152 -38t-172 -13q-238 0 -378 128t-140 390zM264 1428h262l148 -297h-187zM324 614h389q0 100 -50.5 164 t-134.5 64q-78 0 -134 -58.5t-70 -169.5z" />
<glyph unicode="&#xe9;" horiz-adv-x="1032" d="M82 506q0 258 136 393t329 135q186 0 296.5 -110.5t110.5 -305.5q0 -51 -2 -101t-6 -83h-622q23 -121 98.5 -178t210.5 -57q86 0 151.5 11t139.5 34v-205q-82 -25 -152 -38t-172 -13q-238 0 -378 128t-140 390zM324 614h389q0 100 -50.5 164t-134.5 64q-78 0 -134 -58.5 t-70 -169.5zM436 1131l145 297h264l-223 -297h-186z" />
<glyph unicode="&#xea;" horiz-adv-x="1032" d="M82 506q0 258 136 393t329 135q186 0 296.5 -110.5t110.5 -305.5q0 -51 -2 -101t-6 -83h-622q23 -121 98.5 -178t210.5 -57q86 0 151.5 11t139.5 34v-205q-82 -25 -152 -38t-172 -13q-238 0 -378 128t-140 390zM221 1131l229 297h222l211 -297h-218l-112 159h-13 l-114 -159h-205zM324 614h389q0 100 -50.5 164t-134.5 64q-78 0 -134 -58.5t-70 -169.5z" />
<glyph unicode="&#xeb;" horiz-adv-x="1032" d="M82 506q0 258 136 393t329 135q186 0 296.5 -110.5t110.5 -305.5q0 -51 -2 -101t-6 -83h-622q23 -121 98.5 -178t210.5 -57q86 0 151.5 11t139.5 34v-205q-82 -25 -152 -38t-172 -13q-238 0 -378 128t-140 390zM246 1286q0 57 31 96t92 39q63 0 94 -35.5t31 -99.5 q0 -53 -30.5 -93t-94.5 -40q-61 0 -92 35t-31 98zM324 614h389q0 100 -50.5 164t-134.5 64q-78 0 -134 -58.5t-70 -169.5zM609 1286q0 57 30.5 96t92.5 39q63 0 94 -35.5t31 -99.5q0 -53 -31 -93t-94 -40q-61 0 -92 35t-31 98z" />
<glyph unicode="&#xec;" horiz-adv-x="530" d="M-20 1428h262l148 -297h-187zM139 0v1010l252 10v-1020h-252z" />
<glyph unicode="&#xed;" horiz-adv-x="530" d="M139 0v1010l252 10v-1020h-252zM152 1131l145 297h264l-223 -297h-186z" />
<glyph unicode="&#xee;" horiz-adv-x="530" d="M-63 1131l229 297h222l211 -297h-218l-112 159h-13l-114 -159h-205zM139 0v1010l252 10v-1020h-252z" />
<glyph unicode="&#xef;" horiz-adv-x="530" d="M-37 1286q0 57 31 96t92 39q63 0 94 -35.5t31 -99.5q0 -53 -30.5 -93t-94.5 -40q-61 0 -92 35t-31 98zM139 0v1010l252 10v-1020h-252zM326 1286q0 57 30.5 96t92.5 39q63 0 94 -35.5t31 -99.5q0 -53 -31 -93t-94 -40q-61 0 -92 35t-31 98z" />
<glyph unicode="&#xf0;" horiz-adv-x="1116" d="M82 487q0 250 145.5 398.5t347.5 148.5q59 0 107.5 -15t81.5 -42l10 6q-8 49 -40 102.5t-68 83.5l-80 -88l-101 97l47 53q-20 6 -42.5 8t-55.5 2q-63 0 -119.5 -5t-128.5 -17v192q70 12 140.5 18.5t146.5 6.5q66 0 115 -7.5t96 -25.5l96 102l107 -106l-68 -74 q100 -84 153.5 -239.5t53.5 -430.5q0 -350 -137 -511.5t-340 -161.5t-335 125.5t-132 379.5zM338 496q0 -156 66.5 -224.5t160.5 -68.5q90 0 159 89t69 222q0 70 -3.5 131.5t-11.5 130.5q-49 25 -96 35t-119 10q-94 0 -159.5 -89t-65.5 -236z" />
<glyph unicode="&#xf1;" horiz-adv-x="1126" d="M139 0v1010l244 10v-76q66 45 129 64.5t139 19.5q164 0 258.5 -93t94.5 -269v-666h-252v612q0 100 -45 142.5t-132 42.5q-51 0 -92 -7.5t-92 -25.5v-764h-252zM262 1300q37 53 89 87t109 34q80 0 141.5 -59t121.5 -59q33 0 62 16t56 53l43 -145q-33 -55 -79 -86t-107 -31 q-72 0 -138.5 59.5t-123.5 59.5q-33 0 -69 -18.5t-62 -55.5z" />
<glyph unicode="&#xf2;" horiz-adv-x="1159" d="M82 487q0 250 153.5 398.5t358.5 148.5q211 0 347 -129t136 -379t-153.5 -397t-358.5 -147q-211 0 -347 128t-136 377zM293 1428h262l148 -297h-187zM338 496q0 -147 66.5 -220t175.5 -73q100 0 170.5 81.5t70.5 235.5q0 147 -67.5 220t-173.5 73q-100 0 -171 -81 t-71 -236z" />
<glyph unicode="&#xf3;" horiz-adv-x="1159" d="M82 487q0 250 153.5 398.5t358.5 148.5q211 0 347 -129t136 -379t-153.5 -397t-358.5 -147q-211 0 -347 128t-136 377zM338 496q0 -147 66.5 -220t175.5 -73q100 0 170.5 81.5t70.5 235.5q0 147 -67.5 220t-173.5 73q-100 0 -171 -81t-71 -236zM467 1131l145 297h264 l-223 -297h-186z" />
<glyph unicode="&#xf4;" horiz-adv-x="1159" d="M82 487q0 250 153.5 398.5t358.5 148.5q211 0 347 -129t136 -379t-153.5 -397t-358.5 -147q-211 0 -347 128t-136 377zM250 1131l229 297h222l211 -297h-218l-112 159h-13l-114 -159h-205zM338 496q0 -147 66.5 -220t175.5 -73q100 0 170.5 81.5t70.5 235.5 q0 147 -67.5 220t-173.5 73q-100 0 -171 -81t-71 -236z" />
<glyph unicode="&#xf5;" horiz-adv-x="1159" d="M82 487q0 250 153.5 398.5t358.5 148.5q211 0 347 -129t136 -379t-153.5 -397t-358.5 -147q-211 0 -347 128t-136 377zM271 1300q37 53 89 87t109 34q80 0 141.5 -59t121.5 -59q33 0 62 16t56 53l43 -145q-33 -55 -79 -86t-107 -31q-72 0 -138.5 59.5t-123.5 59.5 q-33 0 -69 -18.5t-62 -55.5zM338 496q0 -147 66.5 -220t175.5 -73q100 0 170.5 81.5t70.5 235.5q0 147 -67.5 220t-173.5 73q-100 0 -171 -81t-71 -236z" />
<glyph unicode="&#xf6;" horiz-adv-x="1159" d="M82 487q0 250 153.5 398.5t358.5 148.5q211 0 347 -129t136 -379t-153.5 -397t-358.5 -147q-211 0 -347 128t-136 377zM276 1286q0 57 31 96t92 39q63 0 94 -35.5t31 -99.5q0 -53 -30.5 -93t-94.5 -40q-61 0 -92 35t-31 98zM338 496q0 -147 66.5 -220t175.5 -73 q100 0 170.5 81.5t70.5 235.5q0 147 -67.5 220t-173.5 73q-100 0 -171 -81t-71 -236zM639 1286q0 57 30.5 96t92.5 39q63 0 94 -35.5t31 -99.5q0 -53 -31 -93t-94 -40q-61 0 -92 35t-31 98z" />
<glyph unicode="&#xf7;" d="M133 508v199h807v-199h-807zM424 291q0 55 30.5 83.5t82.5 28.5q51 0 81.5 -28.5t30.5 -83.5t-30.5 -84t-81.5 -29t-82 29t-31 84zM424 924q0 55 30.5 83.5t82.5 28.5q51 0 81.5 -28.5t30.5 -83.5t-30.5 -84t-81.5 -29t-82 29t-31 84z" />
<glyph unicode="&#xf8;" horiz-adv-x="1159" d="M82 487q0 250 153.5 398.5t358.5 148.5q55 0 106.5 -9t96.5 -26l67 115l103 -59l-66 -113q82 -61 129 -166t47 -250q0 -250 -153.5 -397t-358.5 -147q-55 0 -104 9t-94 23l-64 -108l-102 59l59 105q-84 61 -131 166.5t-47 250.5zM330 496q0 -70 16 -126.5t41 -90.5 l301 522q-23 8 -52.5 14t-55.5 6q-100 0 -175 -84.5t-75 -240.5zM477 213q20 -8 48 -13t55 -5q100 0 174.5 85.5t74.5 239.5q0 66 -15 119t-40 90z" />
<glyph unicode="&#xf9;" horiz-adv-x="1112" d="M123 356v654l250 10v-614q0 -104 40 -148.5t128 -44.5q53 0 93 10t89 31v756l250 10v-1020h-242v70q-68 -43 -124 -66.5t-132 -23.5q-178 0 -265 99t-87 277zM260 1428h262l148 -297h-187z" />
<glyph unicode="&#xfa;" horiz-adv-x="1112" d="M123 356v654l250 10v-614q0 -104 40 -148.5t128 -44.5q53 0 93 10t89 31v756l250 10v-1020h-242v70q-68 -43 -124 -66.5t-132 -23.5q-178 0 -265 99t-87 277zM434 1131l145 297h264l-223 -297h-186z" />
<glyph unicode="&#xfb;" horiz-adv-x="1112" d="M123 356v654l250 10v-614q0 -104 40 -148.5t128 -44.5q53 0 93 10t89 31v756l250 10v-1020h-242v70q-68 -43 -124 -66.5t-132 -23.5q-178 0 -265 99t-87 277zM217 1131l229 297h222l211 -297h-218l-112 159h-13l-114 -159h-205z" />
<glyph unicode="&#xfc;" horiz-adv-x="1112" d="M123 356v654l250 10v-614q0 -104 40 -148.5t128 -44.5q53 0 93 10t89 31v756l250 10v-1020h-242v70q-68 -43 -124 -66.5t-132 -23.5q-178 0 -265 99t-87 277zM243 1286q0 57 31 96t92 39q63 0 94 -35.5t31 -99.5q0 -53 -30.5 -93t-94.5 -40q-61 0 -92 35t-31 98z M606 1286q0 57 30.5 96t92.5 39q63 0 94 -35.5t31 -99.5q0 -53 -31 -93t-94 -40q-61 0 -92 35t-31 98z" />
<glyph unicode="&#xfd;" horiz-adv-x="970" d="M16 1016h277l213 -793h8l188 793h254l-338 -1155q-39 -131 -138 -197.5t-249 -66.5q-33 0 -67.5 2t-69.5 8v200q33 -4 66 -6t63 -2q55 0 104.5 34t69.5 101l29 89h-98zM373 1131l145 297h264l-223 -297h-186z" />
<glyph unicode="&#xfe;" horiz-adv-x="1144" d="M139 -391v1810l252 13v-484q47 33 112.5 56.5t141.5 23.5q190 0 304 -121t114 -364q0 -268 -153.5 -411.5t-401.5 -143.5q-35 0 -62.5 3t-54.5 11v-393h-252zM389 211q37 -6 59.5 -8t55.5 -2q137 0 220 78.5t83 244.5q0 139 -64.5 206t-173.5 67q-51 0 -91 -7.5 t-89 -25.5v-553z" />
<glyph unicode="&#xff;" horiz-adv-x="970" d="M16 1016h277l213 -793h8l188 793h254l-338 -1155q-39 -131 -138 -197.5t-249 -66.5q-33 0 -67.5 2t-69.5 8v200q33 -4 66 -6t63 -2q55 0 104.5 34t69.5 101l29 89h-98zM182 1286q0 57 31 96t92 39q63 0 94 -35.5t31 -99.5q0 -53 -30.5 -93t-94.5 -40q-61 0 -92 35t-31 98 zM545 1286q0 57 30.5 96t92.5 39q63 0 94 -35.5t31 -99.5q0 -53 -31 -93t-94 -40q-61 0 -92 35t-31 98z" />
<glyph unicode="&#x152;" horiz-adv-x="1871" d="M96 659q0 342 198 522.5t462 180.5q86 0 155.5 -19.5t126.5 -52.5v53h715v-217h-450v-327h415v-217h-415v-365h456v-217h-723v68q-59 -43 -136 -64.5t-171 -21.5q-262 0 -447.5 165.5t-185.5 511.5zM377 682q0 -250 107.5 -356.5t256.5 -106.5q82 0 160 34t135 112v618 q-53 76 -131 109.5t-164 33.5q-139 0 -251.5 -105.5t-112.5 -338.5z" />
<glyph unicode="&#x153;" horiz-adv-x="1781" d="M82 487q0 250 153.5 398.5t360.5 148.5q113 0 206 -39t156 -108q63 72 150.5 109.5t187.5 37.5q186 0 297 -109.5t111 -306.5q0 -51 -3 -101t-5 -83h-623q23 -121 98.5 -178t210.5 -57q86 0 150.5 11t140.5 34v-205q-80 -25 -150.5 -38t-172.5 -13q-133 0 -237.5 40 t-172.5 119q-70 -78 -167 -121.5t-206 -43.5q-213 0 -349 128t-136 377zM338 496q0 -147 66.5 -220t177.5 -73q100 0 171.5 81.5t71.5 235.5q0 147 -68.5 220t-174.5 73q-100 0 -172 -81t-72 -236zM1073 614h389q0 100 -50 164t-134 64q-78 0 -134.5 -58.5t-70.5 -169.5z " />
<glyph unicode="&#x178;" horiz-adv-x="1128" d="M16 1343h299l267 -565h8l260 565h262l-414 -806v-537h-266v537zM254 1597q0 57 31 96.5t92 39.5q63 0 94 -36t31 -100q0 -53 -31 -93t-94 -40q-61 0 -92 35t-31 98zM629 1597q0 57 30.5 96.5t92.5 39.5q63 0 94 -36t31 -100q0 -53 -31 -93t-94 -40q-61 0 -92 35t-31 98z " />
<glyph unicode="&#x2c6;" horiz-adv-x="753" d="M43 1128l229 297h222l211 -297h-218l-112 160h-13l-114 -160h-205z" />
<glyph unicode="&#x2dc;" horiz-adv-x="798" d="M78 1300q37 53 89 87t109 34q80 0 141.5 -59t121.5 -59q33 0 62 16t56 53l43 -145q-33 -55 -79 -86t-107 -31q-72 0 -138.5 59.5t-123.5 59.5q-33 0 -69 -18.5t-62 -55.5z" />
<glyph unicode="&#x2000;" horiz-adv-x="912" />
<glyph unicode="&#x2001;" horiz-adv-x="1825" />
<glyph unicode="&#x2002;" horiz-adv-x="912" />
<glyph unicode="&#x2003;" horiz-adv-x="1825" />
<glyph unicode="&#x2004;" horiz-adv-x="608" />
<glyph unicode="&#x2005;" horiz-adv-x="456" />
<glyph unicode="&#x2006;" horiz-adv-x="304" />
<glyph unicode="&#x2007;" horiz-adv-x="304" />
<glyph unicode="&#x2008;" horiz-adv-x="228" />
<glyph unicode="&#x2009;" horiz-adv-x="365" />
<glyph unicode="&#x200a;" horiz-adv-x="101" />
<glyph unicode="&#x2010;" horiz-adv-x="798" d="M135 473v229h529v-229h-529z" />
<glyph unicode="&#x2011;" horiz-adv-x="798" d="M135 473v229h529v-229h-529z" />
<glyph unicode="&#x2012;" horiz-adv-x="798" d="M135 473v229h529v-229h-529z" />
<glyph unicode="&#x2013;" horiz-adv-x="1024" d="M59 485v205h906v-205h-906z" />
<glyph unicode="&#x2014;" horiz-adv-x="2048" d="M59 485v205h1930v-205h-1930z" />
<glyph unicode="&#x2018;" horiz-adv-x="530" d="M98 1034q0 100 107.5 244.5t146.5 144.5h115l-115 -262q35 -18 57.5 -54t22.5 -85q0 -68 -45 -118t-121 -50q-74 0 -121 44t-47 136z" />
<glyph unicode="&#x2019;" horiz-adv-x="530" d="M63 854l115 262q-35 18 -57.5 54t-22.5 85q0 68 45 118t121 50q72 0 120 -44t48 -136q0 -100 -107.5 -244.5t-146.5 -144.5h-115z" />
<glyph unicode="&#x201a;" horiz-adv-x="530" d="M63 -225l115 262q-35 18 -57.5 54t-22.5 85q0 68 45 118t121 50q72 0 120 -44t48 -136q0 -100 -107.5 -244.5t-146.5 -144.5h-115z" />
<glyph unicode="&#x201c;" horiz-adv-x="952" d="M98 1034q0 100 107.5 244.5t146.5 144.5h115l-115 -262q35 -18 57.5 -54t22.5 -85q0 -68 -45 -118t-121 -50q-74 0 -121 44t-47 136zM520 1034q0 100 107.5 244.5t146.5 144.5h115l-115 -262q35 -18 57.5 -54t22.5 -85q0 -68 -45 -118t-121 -50q-72 0 -120 44t-48 136z " />
<glyph unicode="&#x201d;" horiz-adv-x="952" d="M63 862l115 262q-35 16 -57.5 53.5t-22.5 86.5q0 68 45 117t121 49q72 0 120 -43.5t48 -135.5q0 -100 -107.5 -244.5t-146.5 -144.5h-115zM485 862l115 262q-35 16 -57.5 53.5t-22.5 86.5q0 68 45 117t121 49q74 0 121 -43.5t47 -135.5q0 -100 -107.5 -244.5 t-146.5 -144.5h-115z" />
<glyph unicode="&#x201e;" horiz-adv-x="952" d="M63 -225l115 262q-35 18 -57.5 54t-22.5 85q0 68 45 118t121 50q72 0 120 -44t48 -136q0 -100 -107.5 -244.5t-146.5 -144.5h-115zM485 -225l115 262q-35 18 -57.5 54t-22.5 85q0 68 45 118t121 50q74 0 121 -44t47 -136q0 -100 -107.5 -244.5t-146.5 -144.5h-115z" />
<glyph unicode="&#x2022;" horiz-adv-x="569" d="M49 604q0 109 61.5 178.5t174.5 69.5q109 0 172 -63.5t63 -184.5q0 -104 -63.5 -173t-171.5 -69q-113 0 -174.5 64.5t-61.5 177.5z" />
<glyph unicode="&#x2026;" horiz-adv-x="1458" d="M98 164q0 76 42 128t124 52q80 0 124 -46t44 -134q0 -74 -42 -124t-124 -50q-80 0 -124 44t-44 130zM563 164q0 76 42 128t124 52q80 0 124 -46t44 -134q0 -74 -42 -124t-124 -50q-80 0 -124 44t-44 130zM1028 164q0 76 41 128t123 52t125 -46t43 -134q0 -74 -41 -124 t-123 -50t-125 44t-43 130z" />
<glyph unicode="&#x202f;" horiz-adv-x="365" />
<glyph unicode="&#x2039;" horiz-adv-x="780" d="M100 514l332 438h244l-311 -428l311 -448h-244z" />
<glyph unicode="&#x203a;" horiz-adv-x="780" d="M104 76l312 428l-312 448h244l332 -438l-332 -438h-244z" />
<glyph unicode="&#x205f;" horiz-adv-x="456" />
<glyph unicode="&#x20ac;" d="M49 422v162h111v41q0 27 1 55.5t3 52.5h-115v166h139q55 225 205 341t367 116q61 0 113.5 -5t117.5 -20v-231q-78 14 -126 20t-111 6q-111 0 -180.5 -58t-102.5 -169h360v-166h-389q-2 -20 -3 -41.5t-1 -42.5q0 -18 1 -34.5t3 -30.5h389v-162h-362q33 -115 106.5 -166 t167.5 -51q74 0 126.5 7t131.5 24v-220q-86 -20 -139 -26t-137 -6q-215 0 -359.5 108.5t-189.5 329.5h-127z" />
<glyph unicode="&#x2122;" horiz-adv-x="1792" d="M102 1182v161h562v-161h-189v-568h-184v568h-189zM774 614l25 729h262l149 -440h4l162 440h232l24 -729h-172l-16 512h-4l-148 -419h-182l-147 419h-7l-10 -512h-172z" />
<glyph unicode="&#x25fc;" horiz-adv-x="1013" d="M0 0v1014h1014v-1014h-1014z" />
</font>
</defs>
</svg>
