<?xml version="1.0" encoding="utf-8"?>
<!-- Generator: Adobe Illustrator 19.2.1, SVG Export Plug-In . SVG Version: 6.00 Build 0)  -->
<svg version="1.1" id="Layer_1" xmlns="http://www.w3.org/2000/svg" xmlns:xlink="http://www.w3.org/1999/xlink" x="0px" y="0px"
	 viewBox="0 0 140 175" style="enable-background:new 0 0 140 175;" xml:space="preserve">
<metadata><?xpacket begin="﻿" id="W5M0MpCehiHzreSzNTczkc9d"?>
<x:xmpmeta xmlns:x="adobe:ns:meta/" x:xmptk="Adobe XMP Core 5.6-c111 79.158366, 2015/09/25-01:12:00        ">
   <rdf:RDF xmlns:rdf="http://www.w3.org/1999/02/22-rdf-syntax-ns#">
      <rdf:Description rdf:about=""/>
   </rdf:RDF>
</x:xmpmeta>
                                                                                                    
                                                                                                    
                                                                                                    
                                                                                                    
                                                                                                    
                                                                                                    
                                                                                                    
                                                                                                    
                                                                                                    
                                                                                                    
                                                                                                    
                                                                                                    
                                                                                                    
                                                                                                    
                                                                                                    
                                                                                                    
                                                                                                    
                                                                                                    
                                                                                                    
                                                                                                    
                           
<?xpacket end="w"?></metadata>
<style type="text/css">
	.st0{clip-path:url(#SVGID_2_);fill:#009FE3;}
</style>
<g>
	<defs>
		<rect id="SVGID_1_" width="140" height="175"/>
	</defs>
	<clipPath id="SVGID_2_">
		<use xlink:href="#SVGID_1_"  style="overflow:visible;"/>
	</clipPath>
	<path class="st0" d="M133.5,60.8l-11,3.3v93.5h-105v-140H76l3.3-11c0.4-1.2,1.3-0.8,1.3-0.8V56c0,1.9,1.6,3.5,3.5,3.5h50.3
		C134.3,59.5,134.7,60.4,133.5,60.8 M137.9,53.9L86.1,2.1C84.7,0.7,83,0,81.1,0H7C3.1,0,0,3.1,0,7v161c0,3.9,3.1,7,7,7h126
		c3.8,0,7-3.2,7-7V58.9C140,57,139.3,55.3,137.9,53.9"/>
	<path class="st0" d="M70,105.3c-10.4,0-19.4,7-23.9,14.5c-0.9,1.5,0.7,3.3,2.2,2.5c5.8-3,13.4-4.5,21.6-4.5s15.8,1.5,21.6,4.5
		c1.6,0.8,3.2-1,2.2-2.5C89.4,112.3,80.4,105.3,70,105.3"/>
	<path class="st0" d="M59.5,82.3c0-4.8-3.9-8.8-8.8-8.8S42,77.4,42,82.3s3.9,8.8,8.8,8.8S59.5,87.1,59.5,82.3"/>
	<path class="st0" d="M89.2,73.5c-4.8,0-8.8,3.9-8.8,8.8c0,4.8,3.9,8.8,8.8,8.8c4.8,0,8.8-3.9,8.8-8.8C98,77.4,94.1,73.5,89.2,73.5"
		/>
</g>
</svg>
