<?xml version="1.0" encoding="UTF-8" standalone="no"?>
<svg width="200px" height="160px" viewBox="0 0 200 160" version="1.1" xmlns="http://www.w3.org/2000/svg" xmlns:xlink="http://www.w3.org/1999/xlink">
    <!-- Generator: Sketch 40.3 (33839) - http://www.bohemiancoding.com/sketch -->
    <title>Combined Shape</title>
    <desc>Created with Sketch.</desc>
    <defs></defs>
    <g id="Page-1" stroke="none" stroke-width="1" fill="none" fill-rule="evenodd">
        <path d="M193.054372,112.615989 C190.794182,110.15081 186.292435,107.462008 181.34078,104.986181 C174.85571,101.661118 167.609256,98.7194092 163.749095,97.2206019 C162.271585,96.6482332 161.334498,95.2426022 161.073604,93.6293211 C160.748818,91.6273617 160.386762,88.6616932 160.101908,86.1619061 C169.880095,85.7492682 177.967798,84.7509507 181.332794,83.4225229 C181.995677,83.1616293 182.333773,82.5280304 182.035609,81.8598233 C180.196043,77.6988359 175.414768,64.0152307 174.813115,56.8699395 C173.335605,39.3314977 173.396835,7.94705757 150.209247,15.821786 C150.209247,15.821786 135.48473,6.07288285 123.523555,22.3813976 C115.111066,33.8553934 117.160945,48.9872245 116.822848,57.423673 C116.583252,63.4242267 111.844571,77.2808736 109.850598,80.8694923 C109.427312,81.6362001 109.57107,82.4082323 110.369724,82.7090587 C113.97964,84.0667705 122.107275,85.1183316 131.661839,85.7439439 C131.392959,88.2517175 131.017592,91.3638059 130.591643,93.6293211 C130.290817,95.2346156 129.393662,96.6482332 127.916152,97.2206019 C126.294884,97.8515386 124.058653,98.746031 121.548217,99.8082409 C128.725455,103.053438 133.993909,106.407785 137.14593,109.852646 C143.308877,116.571988 146.948077,130.612326 149.005942,142.325918 L200,142.325918 C200,142.325918 199.677876,119.841145 193.054372,112.615989 Z M95.0185288,100.934609 C92.6438642,100.26374 91.0465562,98.1712664 90.511458,95.6821281 C90.0402522,93.4805052 89.7873451,90.9567586 89.7873451,90.9567586 C95.4285045,84.4290932 99.6107893,76.5463782 101.029731,66.1266056 C106.420646,64.4041752 107.498829,57.4266014 107.498829,53.0765993 C107.498829,48.7292593 106.761405,46.3758922 105.254611,45.6464549 C104.527836,45.2950471 103.817034,45.2977093 103.186097,45.4388048 C103.729182,36.3767441 104.269604,18.4230021 100.62508,11.677038 C96.6397964,4.30279936 91.3420582,2.38869194 82.1122801,4.80062703 C76.0558206,1.47023984 71.9347659,-1.82021465 61.3259786,1.17473786 C53.9570644,3.2592248 45.8906589,6.65882867 41.6391575,12.3319343 C37.0522213,18.4549483 37.9360651,36.3101896 38.7107595,45.4813997 C38.0292414,45.2870606 37.2279252,45.2524522 36.4132981,45.6464549 C34.9065042,46.3758922 34.1664182,48.7292593 34.1664182,53.0765993 C34.1664182,57.4266014 35.2446011,64.4041752 40.6381778,66.1266056 C42.3685948,81.0507868 49.5724539,89.7827372 58.4401755,97.5190323 C60.7828939,99.5635865 65.0024492,100.636445 69.392384,100.838771 C69.791711,101.576195 69.791711,102.454714 68.2157005,102.992474 C65.5801423,103.894953 57.338033,105.170138 48.4543383,100.378214 C48.3797972,100.338281 48.3265536,100.303673 48.2546748,100.26374 C41.6205222,102.108631 18.7124633,108.902514 11.580483,116.686728 C3.24253525,125.780735 0,159.731517 0,159.731517 L141.665247,159.731517 C141.665247,159.731517 138.534523,125.780735 130.196575,116.686728 C123.770073,109.671884 103.894237,103.445045 95.0185288,100.934609 Z" id="Combined-Shape" fill="#BABABA"></path>
    </g>
</svg>