<?xml version="1.0" encoding="utf-8"?>
<!-- Generator: Adobe Illustrator 19.1.0, SVG Export Plug-In . SVG Version: 6.00 Build 0)  -->
<svg version="1.1" id="Laag_1" xmlns="http://www.w3.org/2000/svg" xmlns:xlink="http://www.w3.org/1999/xlink" x="0px" y="0px"
	 width="134.7px" height="77px" viewBox="0 0 134.7 77" style="enable-background:new 0 0 134.7 77;" xml:space="preserve">
<metadata><?xpacket begin="﻿" id="W5M0MpCehiHzreSzNTczkc9d"?>
<x:xmpmeta xmlns:x="adobe:ns:meta/" x:xmptk="Adobe XMP Core 5.6-c067 79.157747, 2015/03/30-23:40:42        ">
   <rdf:RDF xmlns:rdf="http://www.w3.org/1999/02/22-rdf-syntax-ns#">
      <rdf:Description rdf:about=""/>
   </rdf:RDF>
</x:xmpmeta>
                                                                                                    
                                                                                                    
                                                                                                    
                                                                                                    
                                                                                                    
                                                                                                    
                                                                                                    
                                                                                                    
                                                                                                    
                                                                                                    
                                                                                                    
                                                                                                    
                                                                                                    
                                                                                                    
                                                                                                    
                                                                                                    
                                                                                                    
                                                                                                    
                                                                                                    
                                                                                                    
                           
<?xpacket end="w"?></metadata>
<style type="text/css">
	.st0{fill:#154273;}
	.st1{fill:#FFFFFF;}
	.st2{fill:#1D1D1B;}
</style>
<rect class="st0" width="44" height="77"/>
<g>
	<path class="st1" d="M24.2,47.2c0,0.2,0.1,0.5,0.4,0.4c0,0,0,0,0,0c0,0.2-0.4,0.4-0.6,0.2c-0.2,0.3-0.1,0.6,0.2,0.8c0,0,0,0,0,0
		c-0.2,0.1-0.5,0.1-0.7-0.2c-0.3,0.2-0.2,0.6-0.1,0.8c0,0-0.8,0.4-1.4,0.1c-0.5-0.2-0.8-0.5-1.4-0.5c0.1-0.8,0.5-1,1.2-1.2
		c0.6-0.1,0.7-0.4,0.6-0.6c-0.2-0.1-0.6,0.1-0.6,0.1c-0.1-0.1,0-0.2,0-0.2c0,0-0.1-0.2-0.1-0.2c0.4,0,0.5-0.1,0.5-0.1
		c0.1-0.4-0.4-0.5-0.7-0.2c-0.2-0.1-0.1-0.3-0.1-0.3c0,0-0.1-0.1-0.1-0.1c0-0.1,0.5-0.4,0.6-0.4c0-0.1,0.2-0.3,0.7-0.3
		c0.1-0.1,0-0.7-0.1-0.8c0,0,0-0.1,0.1,0c0.2,0.1,0.4,0.6,0.5,0.6c0,0,0.6-0.3,0.6-0.3c0,0,0.1,0.7,0.1,0.7c0.1,0.1,0.5,0,0.7,0.1
		c0.1,0,0,0.1,0,0.1c-0.2,0-0.6,0.2-0.7,0.4C24.3,46.4,24.2,47.1,24.2,47.2 M18.8,47.6c0,0.1-0.2,0-0.2,0c0,0,0,0,0,0
		c0,0.1,0.2,0.3,0.4,0.3c0.1,0,0.2-0.1,0.3-0.1c0,0,0.8,0.3,1.2,0.4c-0.2,0.2-0.3,0.5-0.3,0.7c-0.3-0.2-1.6-0.9-1.6-0.9l-0.4,0.6
		c-0.1,0.1-0.4-0.1-0.3-0.2l0.3-0.4c-0.1-0.1-0.4,0-0.4,0c0,0,0,0,0,0c0-0.1,0.2-0.3,0.6-0.2c0-0.2-0.4-0.2-0.4-0.1c0,0,0,0,0,0
		c0.1-0.1,0.4-0.3,0.7-0.1l0.1-0.2l-0.3-0.3l0.2-0.2l0.2,0.3l1.5-2.1c0-0.1,0.3-0.1,0.5-0.2c0,0.1,0,0.4,0,0.5l-1.5,2.1l0.3,0.1
		l-0.2,0.2L19,47.3L18.8,47.6z M30.2,58.5C30.2,58.5,30.2,58.5,30.2,58.5c-0.2-0.2-0.3-0.3-0.3-0.5c0-0.4,0.7-0.8,1-0.8
		c0.2,0,0.3,0.2,0.7,0.2c0.2,0,0.4-0.1,0.6-0.3c0,0,0,0,0,0c-0.2,0-0.6,0.1-0.8-0.6c-0.2-0.8-0.3-1.3,0.1-1.6c0.3-0.3,1.6-0.7,2.3-1
		c0,0,0,0,0,0c-0.2-0.1-0.4-0.2-0.4-0.4c0-0.2,0-0.4,0.2-0.5c-0.4-0.4-1-0.6-1.4-0.6c-1.4,0-2.6,1.9-3.2,1.9c-0.1,0-0.2,0-0.2-0.1
		c0,0,0,0,0,0c0,0.6,0.3,0.6,0.5,0.6c0.1,0,0.2,0,0.3-0.1c0,0,0,0,0,0c0,0,0,0.1,0,0.1c0,0.7,0.7,1.4,0.7,1.4
		c-0.3,0.3-1.1,0.9-1.3,0.6c-0.1-0.1-0.5-0.9-1.1-0.3c0,0,0,0,0,0c0.3,0,0.6,0.2,0.5,0.5c-0.5-0.4-1.1-0.3-1.1,0.5c0,0,0,0,0,0
		c0.3-0.4,0.8-0.1,0.8-0.1c-0.3,0-0.9,0.4-0.4,1.1c0,0,0,0,0,0c0-0.4,0.3-0.5,0.5-0.5c0.4,0,0.8,0.4,1.1,0
		C29.4,58.6,30,58.6,30.2,58.5 M14.7,58c0.3,0.4,0.7,0,1.1,0c0.2,0,0.5,0.1,0.5,0.5c0,0,0,0,0,0c0.5-0.7-0.1-1-0.4-1.1
		c0.1-0.1,0.5-0.4,0.8,0.1c0,0,0,0,0,0c0-0.8-0.6-0.9-1.1-0.5c-0.1-0.3,0.2-0.5,0.5-0.5c0,0,0.1,0,0,0c-0.6-0.6-1,0.2-1.1,0.3
		c-0.2,0.3-1-0.3-1.3-0.6c0,0,0.7-0.7,0.7-1.4c0,0,0-0.1,0-0.1c0,0,0,0,0,0c0.1,0,0.2,0.1,0.3,0.1c0.2,0,0.5-0.1,0.5-0.6
		c0,0,0,0,0,0c-0.1,0.1-0.2,0.1-0.2,0.1c-0.6,0-1.8-1.9-3.2-1.9c-0.4,0-1.1,0.3-1.4,0.6c0.2,0.1,0.2,0.3,0.2,0.5
		c0,0.2-0.2,0.4-0.4,0.4c0,0,0,0,0,0c0.7,0.3,2,0.8,2.3,1c0.3,0.3,0.3,0.9,0.1,1.6c-0.2,0.7-0.6,0.6-0.8,0.6c0,0,0,0,0,0
		c0.2,0.2,0.4,0.3,0.6,0.3c0.4,0,0.5-0.2,0.7-0.2c0.3,0,1,0.5,1,0.8c0,0.2-0.2,0.4-0.4,0.5c0,0,0,0,0,0C14,58.6,14.6,58.6,14.7,58
		 M21.3,46.7c0.2-0.1,0.5,0,0.5,0c0,0,0,0.1,0,0.1c-0.5,0.1-0.5,0.3-0.9,0.3c-0.2,0-0.4-0.2-0.4-0.5c0,0,0,0,0.1,0
		C20.7,46.7,20.9,46.8,21.3,46.7 M22.6,45.9c-0.3,0-0.6,0.1-0.6,0.2C22.2,46.2,22.4,46.2,22.6,45.9 M19.7,54.9c-0.2,0.2-0.4,0-0.6,0
		c-0.2,0-0.3,0.2-0.3,0.3c0,0,0,0,0,0c-0.3-0.4,0-0.6,0.2-0.6c0,0-0.3-0.2-0.5,0c0,0,0,0,0,0c0-0.5,0.4-0.5,0.6-0.3
		c0-0.2-0.1-0.3-0.3-0.3c0,0,0,0,0,0c0.1-0.1,0.2-0.1,0.2-0.1c0.3,0,0.3,0.3,0.5,0.3c0.2,0,0.6-0.3,0.6-0.4c0,0-0.2-0.7-0.2-1.1
		c0,0,0,0,0,0c-0.1,0.1-0.4,0.1-0.4-0.3c0,0,0,0,0,0c0.1,0.2,0.4,0,0.5-0.1c0.1-0.1,0.7-1,1.6-1c0.2,0,0.4,0.1,0.6,0.2
		c-0.3,0.4,0,0.7,0.2,0.6c0,0,0,0,0,0c-1.1,0.4-1.6,0.6-1.6,1.5c0,0.5,0.2,0.8,0.5,0.7c0,0,0,0,0,0c-0.1,0.1-0.2,0.2-0.3,0.2
		c-0.2,0-0.3-0.1-0.4-0.1c-0.1,0-0.5,0.2-0.5,0.4c0,0.1,0,0.2,0.2,0.3c0,0,0,0,0,0C20.1,55.2,19.8,55.2,19.7,54.9 M18.2,51l-0.4-0.1
		l0,0.1l-0.5-0.2c0,0,0.4,0,0.4,0c0,0,0,0,0,0c-0.2-0.2-0.4-0.4-0.4-0.4s0.2,0.1,0.5,0.2c0,0,0,0,0,0c-0.1-0.2-0.3-0.5-0.3-0.5
		s0.4,0.3,0.5,0.3c0,0,0,0,0,0c-0.1-0.3-0.2-0.6-0.2-0.6l0.4,0.4c0,0,0,0,0,0c0-0.2-0.1-0.6-0.1-0.6l0.3,0.5c0,0,0,0,0,0
		c0-0.1,0-0.5,0-0.5s0.1,0.3,0.2,0.5c0,0,0,0,0.1,0c0-0.1,0.2-0.4,0.2-0.4l0,0.5l-0.1,0l-0.1,0.7c0.6-0.2,1.5-1.3,2.1-1.3
		c0.7,0,1,0.9,2.4,0.4c0.3,0.5,0.5,0.9,0.6,1.6c0.5,0.5,1.3,0.3,1.3-0.2c0-0.7-0.8-0.8-0.8-1.6c0-0.3,0.2-0.8,0.9-0.8
		c0.3,0,0.8,0.1,1.1,0.1c0.3,0,0.4-0.2,0.4-0.3c0-0.1,0.1,0,0.1,0c0,0.1,0,0.2,0,0.3c0,0.5-0.7,0.5-0.8,0.5c0,0-0.1,0,0,0
		c0.1,0.1,0.1,0.4,0,0.5c0,0,0,0,0,0c-0.1-0.3-0.5-0.7-0.8-0.7c-0.1,0-0.4,0.1-0.4,0.4c0,0.4,0.8,0.8,0.8,1.7c0,0.9-0.9,1.1-1.8,0.9
		c0,0.9,1.3,1.4,1.3,0.7c0,0,0,0,0,0c0.2,0.3,0.1,0.5-0.1,0.6c0.2,0.1,0.3,0.5,0.3,0.8c0.1,0.4,0.5,0.2,0.5,0.2c0,0,0,0,0,0
		c-0.2,0.4-0.6,0.3-0.6,0.3c-0.2,0.2,0,0.3,0.2,0.4c0,0,0,0,0,0c-0.1,0.1-0.5,0.2-0.6-0.1c-0.1,0.3-0.4,0.3-0.4,0.3
		c-0.2,0-0.3,0.2-0.2,0.4c0,0,0,0,0,0c-0.4-0.3-0.2-0.6,0-0.6c0,0-0.3-0.1-0.4,0.2c0,0,0,0,0,0c-0.2-0.5,0.2-0.6,0.5-0.5
		c0-0.1-0.2-0.3-0.5-0.2c0,0,0,0,0,0c0.1-0.1,0.2-0.3,0.6-0.1c0.2,0.1,0.4,0,0.5-0.1c-0.6-1.1-1.7-0.2-1.9-1.1c0,0,0,0,0,0
		c-0.1,0.2-0.5,0.2-0.6-0.2c0,0,0,0,0,0c0.1,0.1,0.2,0.1,0.4-0.2c0.1-0.2,0.2-0.4,0.2-0.6c0-0.7-0.7-1.8-1.8-1.8
		c-0.7,0-1.4,0.3-1.9,0.7l0.5,0.1c0,0.5-0.5,0.8-1,0.7l0.1-0.6c-0.1,0-0.3,0.1-0.4,0.2c0,0,0,0,0,0c-0.1-0.3,0.2-0.5,0.3-0.5
		c0,0,0,0,0,0c-0.2,0-0.4,0.2-0.4,0.2c0,0,0,0,0,0C18.1,51.2,18.1,51.1,18.2,51 M22,61.6c4.3,0,8.6,0.2,9.2,0.9c0,0.1,0.1,0,0.1,0
		l0-2.3c0-0.7-4.5-1-9.3-1s-9.3,0.4-9.3,1l0,2.3c0,0,0,0.1,0.1,0C13.4,61.9,17.7,61.6,22,61.6 M29,62.7v1c0,1.7,2.8,0.1,5.4-0.1
		c2.2-0.1,2.8,0.4,2.8,0.4l-0.4-2.2c0-0.1-0.5-0.5-2-0.5c-1.8,0-2.7,0.3-3.1,0.5v1.2c0,0.3-0.1,0.4-0.3,0.5
		C31.4,63.3,31.1,62.7,29,62.7 M12.6,63.4c-0.2-0.1-0.3-0.2-0.3-0.5v-1.2c-0.3-0.1-1.3-0.5-3.1-0.5c-1.5,0-2,0.3-2,0.5L6.8,64
		c0,0,0.6-0.6,2.8-0.4c2.7,0.2,5.4,1.7,5.4,0.1v-1C12.9,62.7,12.6,63.3,12.6,63.4 M17.7,44.1c-0.6,0.1-1.1,0.3-1.3,0.3
		c0-0.3,0.1-0.5,0.4-0.6c0,0,0-0.1,0-0.1c-0.6-0.4-0.9,0.3-0.9,0.4c-0.2,0-0.5,0-0.5,0.3c0,0.8-1.9,1.3-2.3,1.3
		c0.8,0.3,1.1,1.3,1.1,1.3c0.6-0.6,1.2-1,1.3-1c0.1,0,0.2,0.2,0.2,0.3c0,0,0,0,0.1,0c0.3-0.4,0.2-0.5,0.1-0.7c0-0.1,0-0.5,0.4-0.4
		v5.4l-0.2,0c-0.1,0-0.9-0.7-1.8-1.3c-0.9-0.6-1.4-0.3-2.4,0.3c-1.4,0.7-2.7,0.1-2.7,0.1c-1.2,0.8-1.6,3.3-1.6,3.3
		c-0.2,0.1-0.6,0.2-1,0.2c-0.9,0-1.1-0.5-1.1-0.9c0-1.4,1.7-2,1.7-3.3c0-0.3-0.2-1.7-1.8-1.7c-0.2,0-1.5,0-1.5,0
		c-0.6,0-0.8-0.4-0.9-0.6c0-0.1-0.1,0-0.1,0c0,0.1-0.1,0.3-0.1,0.6c0,0.6,0.3,0.9,0.9,0.9c0.3,0,0.5-0.1,0.6-0.1
		c0.1,0,0.1,0,0.1,0.1c-0.3,0.3-0.3,0.9-0.2,1c0,0,0.1,0,0.1,0c0.1-0.6,0.7-1.1,1.4-1.1c0.9,0,0.9,0.8,0.9,1c0,1.1-1.9,1.9-1.9,3.4
		c0,1.5,1.6,1.9,2.6,1.6c-0.1,1.5-1.8,2.1-1.9,1c0-0.1,0-0.1-0.1,0c-0.2,0.5-0.1,1,0.6,1.2c0,0,0,0,0,0.1c-0.7,0.4-0.3,2.1-0.3,2.6
		C5.8,59.7,5,59.6,5,59.6c0,0-0.1,0,0,0.1c0.5,0.6,1.1,0.1,1.1,0.1c0.5,0.1,0.2,0.6-0.1,0.8c0,0,0,0.1,0,0.1c0.1,0,0.8,0.1,0.9-0.5
		c0.3,0.4,0.8,0.2,0.9,0.2c0.1-0.1,0.8-0.3,0.9,0.5c0,0.1,0,0,0.1,0c0.5-0.7,0-1.1-0.3-1.1c0,0,0.4-0.4,0.8,0.1c0,0,0,0,0.1,0
		c0-0.8-0.6-0.9-1.1-0.5c0-0.1-0.2-0.6,0.5-0.5c0,0,0,0,0-0.1c-0.5-0.5-0.9,0-1,0.1c-0.2,0.3-0.8,0.2-0.8,0.2
		c0.2-2.9,2.7-1.9,3.1-3.3c0-0.1,0.1,0,0.1,0c0.1,0.3,1,0.4,1.1-0.3c0,0,0-0.1,0,0c-0.7,0.7-2.4-1.6-0.1-3.4
		c1.9-1.6,3.7-0.7,4.3-0.2c0,0.2-0.1,0.3-0.2,0.3c0,0,0,0,0,0.1c0.2,0.1,0.4,0,0.6-0.1c0.4,0.3,0.1,0.7-0.1,0.8c0,0,0,0.1,0,0.1
		c0.4,0.1,0.7-0.3,0.7-0.5l0.1,0v1.6c0,2.3,2.7,2.7,5.7,4.6c3-2,5.7-2.3,5.7-4.6v-1.6l0.1,0c0,0.2,0.3,0.6,0.7,0.5c0,0,0.1,0,0-0.1
		c-0.2-0.1-0.5-0.5-0.1-0.8c0.1,0.2,0.4,0.2,0.6,0.1c0.1,0,0,0,0-0.1c-0.1,0-0.2-0.1-0.2-0.3c0.7-0.5,2.4-1.4,4.3,0.2
		c2.3,1.9,0.6,4.2-0.1,3.4c0,0,0,0,0,0c0.2,0.7,1,0.6,1.1,0.3c0,0,0-0.1,0.1,0c0.3,1.4,2.9,0.4,3.1,3.3c-0.1,0-0.6,0.1-0.8-0.2
		c-0.1-0.1-0.5-0.6-1-0.1c0,0,0,0.1,0,0.1c0.7,0,0.5,0.5,0.5,0.5c-0.4-0.4-1.1-0.3-1.1,0.5c0,0.1,0,0.1,0.1,0
		c0.4-0.5,0.8-0.1,0.8-0.1c-0.3,0-0.9,0.5-0.3,1.1c0,0,0.1,0.1,0.1,0c0.1-0.8,0.8-0.5,0.9-0.5c0.1,0.1,0.6,0.2,0.9-0.2
		c0.1,0.6,0.9,0.5,0.9,0.5c0.1,0,0.1,0,0-0.1c-0.3-0.2-0.6-0.6-0.1-0.8c0,0,0.6,0.6,1.1-0.1c0-0.1,0-0.1,0-0.1
		c-0.1,0-0.8,0.1-0.7-0.6c0-0.5,0.4-2.2-0.3-2.6c0,0-0.1-0.1,0-0.1c0.7-0.2,0.8-0.6,0.6-1.2c0-0.1-0.1-0.1-0.1,0
		c-0.1,1.1-1.8,0.6-1.9-1c0.9,0.2,2.6-0.1,2.6-1.6c0-1.5-1.9-2.3-1.9-3.4c0-0.2,0-1,0.9-1c0.7,0,1.3,0.6,1.4,1.1c0,0,0,0,0.1,0
		c0.1-0.1,0.1-0.7-0.2-1c0,0,0-0.1,0.1-0.1c0.1,0,0.3,0.1,0.6,0.1c0.6,0,0.9-0.3,0.9-0.9c0-0.3-0.1-0.5-0.1-0.6c0-0.1,0-0.1-0.1,0
		c-0.1,0.2-0.2,0.6-0.9,0.6c0,0-1.3,0-1.5,0c-1.7,0-1.8,1.3-1.8,1.7c0,1.4,1.7,2,1.7,3.3c0,0.3-0.2,0.9-1.1,0.9
		c-0.4,0-0.8-0.1-1-0.2c0,0-0.4-2.4-1.6-3.3c0,0-1.4,0.7-2.7-0.1c-1-0.6-1.5-0.9-2.4-0.3c-0.9,0.6-1.7,1.3-1.8,1.3l-0.2,0v-5.4
		c0.4,0,0.5,0.3,0.4,0.4c0,0.1-0.2,0.2,0.1,0.7c0,0,0.1,0,0.1,0c0-0.1,0.1-0.3,0.2-0.3c0.1,0,0.8,0.5,1.3,1c0,0,0.3-1,1.1-1.3
		c-0.4-0.1-2.3-0.5-2.3-1.3c0-0.3-0.3-0.3-0.5-0.3c0,0-0.3-0.7-0.9-0.4c0,0,0,0.1,0,0.1c0.3,0.1,0.4,0.3,0.4,0.6
		c-0.5-0.2-2.9-0.8-5.6-0.8c-1.3,0-2.6,0.2-3.5,0.3v1.9h-0.8V44.1z M22,42.4c2.3,0,3.7,0.4,3.7,0.4c0-1.2,0-1.8,0.7-1.7
		c-0.4-1,1.2-1.4,1.2-2.7c0-0.9-0.6-1-0.8-1c-0.5,0-0.4,0.3-0.9,0.3c-0.1,0-0.1,0-0.1,0c0,0.1,0.1,0.4,0.3,0.4
		c0.3,0,0.3-0.3,0.5-0.3c0.1,0,0.2,0.1,0.2,0.4c0,0.6-0.4,1.2-0.8,1.6c-0.1-0.1-0.2-0.2-0.4-0.2c-0.3,0-0.5,0.3-0.5,0.6
		c0,0.1,0,0.2,0.1,0.3c-0.1,0.1-0.3,0.1-0.4,0.1c-0.2,0-0.5-0.1-0.5-0.5c0-0.9,1.3-1.8,1.3-3c0-0.6-0.4-1.1-1.2-1.1
		c-0.9,0-0.7,0.8-1.4,0.8c0,0-0.1,0-0.1,0c0,0,0.1,0.5,0.5,0.5c0.4,0,0.5-0.7,0.9-0.7c0.1,0,0.3,0.1,0.3,0.6c0,0.4-0.2,1-0.4,1.5
		c-0.1-0.1-0.2-0.2-0.4-0.2c-0.3,0-0.5,0.3-0.5,0.7c0,0.2,0.1,0.5,0.2,0.6c-0.2,0.2-0.4,0.4-0.6,0.4c-0.5,0-0.7-0.3-0.7-0.6
		c0-0.3,0.6-0.5,0.6-1c0-0.4-0.2-0.6-0.5-0.6c-0.2,0-0.4,0.2-0.4,0.2s-0.1-0.2-0.4-0.2c-0.2,0-0.5,0.2-0.5,0.6c0,0.5,0.6,0.7,0.6,1
		c0,0.3-0.2,0.6-0.7,0.6c-0.3,0-0.4-0.2-0.6-0.4c0.2-0.1,0.2-0.4,0.2-0.6c0-0.4-0.2-0.7-0.5-0.7c-0.1,0-0.3,0.1-0.4,0.2
		c-0.3-0.6-0.4-1.2-0.4-1.5c0-0.5,0.2-0.6,0.3-0.6c0.4,0,0.5,0.7,0.9,0.7c0.4,0,0.5-0.4,0.5-0.5c0,0,0,0-0.1,0
		c-0.7,0-0.6-0.8-1.4-0.8c-0.8,0-1.2,0.6-1.2,1.1c0,1.2,1.3,2,1.3,3c0,0.4-0.3,0.5-0.5,0.5c-0.1,0-0.2,0-0.4-0.1
		c0-0.1,0.1-0.2,0.1-0.3c0-0.3-0.2-0.6-0.5-0.6c-0.2,0-0.3,0.1-0.4,0.2c-0.4-0.5-0.8-1.1-0.8-1.6c0-0.3,0.1-0.4,0.2-0.4
		c0.2,0,0.2,0.3,0.5,0.3c0.2,0,0.3-0.3,0.3-0.4c0,0-0.1,0-0.1,0c-0.5,0-0.4-0.3-0.9-0.3c-0.2,0-0.8,0.1-0.8,1c0,1.3,1.6,1.7,1.2,2.7
		c0.7-0.1,0.7,0.6,0.7,1.7C18.3,42.8,19.7,42.4,22,42.4 M22,36.7c-0.3,0-0.6,0.3-0.6,0.6c0,0.3,0.3,0.6,0.6,0.6
		c0.3,0,0.6-0.3,0.6-0.6C22.6,37,22.3,36.7,22,36.7 M21.7,33.1c0,0.1,0.1,0.3,0.1,0.3c0.1,0.1,0.1,0.2,0,0.3c0,0-0.1,0.1-0.3,0
		c-0.1,0-0.2-0.1-0.3-0.1c-0.2,0-0.4,0.2-0.4,0.3c0,0.1,0.1,0.3,0.4,0.3c0.1,0,0.3-0.1,0.3-0.1c0.1-0.1,0.2-0.1,0.3,0
		c0,0,0,0.5-0.1,0.9c-0.4,0.1-0.6,0.4-0.6,0.6c0,0.5,0.5,0.8,0.8,0.9c0.3-0.2,0.8-0.4,0.8-0.9c0-0.2-0.2-0.5-0.6-0.6
		c-0.1-0.4-0.1-0.9-0.1-0.9c0,0,0.1-0.1,0.3,0c0.1,0,0.2,0.1,0.3,0.1c0.2,0,0.4-0.2,0.4-0.3c0-0.1-0.1-0.3-0.4-0.3
		c-0.1,0-0.3,0.1-0.3,0.1c-0.1,0.1-0.2,0.1-0.3,0c0,0-0.1-0.1,0-0.3c0-0.1,0.1-0.2,0.1-0.3c0-0.2-0.2-0.4-0.3-0.4
		C21.9,32.8,21.7,32.9,21.7,33.1 M33.5,42.5c-0.1,0.6-0.6,0.6-0.9,0.3C32.6,42.6,32.9,42.5,33.5,42.5 M37.1,45.7
		C37.1,45.6,37.1,45.7,37.1,45.7c-0.5,0.2-0.8-0.3-0.7-0.8c0.1-0.3,0.3-1.1-0.3-1.8c-0.6,0.4-1.1-0.2-1-0.5c0-0.1,0.1-0.1,0.1,0
		c0,0.2,0.2,0.4,0.4,0.4c0.3,0,0.7-0.3,0.8-0.7c-0.7-0.4-1.8-0.3-2,0.6c0,0.1-0.2,0.1-0.1,0c0-0.1,0-0.6,0.5-0.8
		c0.4-0.2,0.3-0.5,0.2-0.7c0,0-0.1,0-0.1,0c0.2,0.3-0.2,0.4-0.7,0.4c-1.1-0.1-1.4,0.2-1.5,0.5c-0.2,0.1-1.1,0.6-1.1,0.7
		c0,0.1,0.1,0.2,0.1,0.2c0,0,0,0.4,0.3,0.6c1.1-0.7,1.4,0,1.3,0.4c0,0-0.2,0.2-1,0.2c0,0,0,0.3,0.1,0.3c0,0-0.2,0.2,0,0.4
		c0,0,0.4-0.3,1.1-0.3c0,0,0.4,0.7-1.2,1c-1.6,0.3-2.1,1.8-2.1,2.6c0,0,0,0.1,0.1,0.1c1.3-0.2,1.9,1.1,3.6,0.9c-0.1-0.4,0-0.8,0-0.8
		c0.1,0.4,0.4,0.6,0.7,0.7c0.6-0.1,1-0.4,1.1-0.6c0,0-0.6-0.5-0.2-1.5c0,0,0.4,0.6,1.2,0.3c0.1,0,0.1-0.1,0-0.1
		c-1.1-0.4-0.4-1.3-0.3-1.4C36.7,46.4,37.1,46,37.1,45.7 M30.8,44.1c-0.3,0-0.6-0.1-0.7-0.4c0-0.1-0.1-0.1-0.1,0
		c-0.2,0.6,0.2,0.8,0.6,0.8c0.4,0,0.7-0.3,1.3-0.4c0.3,0,0.5,0,0.5-0.1C32.4,44,32,44,32,44C31.3,44,31.2,44.1,30.8,44.1 M11.4,42.8
		c-0.3,0.3-0.8,0.3-0.9-0.3C11.1,42.5,11.4,42.6,11.4,42.8 M7.8,46.1c0.1,0.1,0.8,1-0.3,1.4c0,0-0.1,0.1,0,0.1
		c0.8,0.3,1.2-0.3,1.2-0.3c0.4,0.9-0.2,1.5-0.2,1.5C8.6,49,9,49.2,9.6,49.4c0.2-0.1,0.5-0.4,0.7-0.7c0,0,0.2,0.4,0,0.8
		c1.7,0.2,2.3-1.2,3.6-0.9c0,0,0.1,0,0.1-0.1c0-0.8-0.5-2.3-2.1-2.6c-1.6-0.3-1.2-1-1.2-1c0.7,0,1.1,0.3,1.1,0.3
		c0.1-0.2-0.1-0.4-0.1-0.4c0.1-0.1,0.1-0.3,0.1-0.3c-0.8,0-1-0.2-1-0.2c-0.1-0.4,0.2-1.1,1.3-0.4c0.3-0.2,0.3-0.6,0.3-0.6
		c0.1,0,0.1-0.2,0.1-0.2c0-0.2-0.9-0.7-1.1-0.7c-0.1-0.3-0.4-0.7-1.5-0.5c-0.5,0.1-0.9-0.1-0.7-0.4c0,0-0.1-0.1-0.1,0
		C9,41.4,8.8,41.7,9.3,42c0.5,0.2,0.5,0.7,0.5,0.8c0,0.1-0.1,0.1-0.1,0c-0.2-0.8-1.3-1-2-0.6c0,0.4,0.5,0.7,0.8,0.7
		c0.1,0,0.4-0.1,0.4-0.4c0-0.1,0.1-0.1,0.1,0c0.1,0.3-0.3,0.9-1,0.5c-0.7,0.7-0.4,1.5-0.3,1.8c0.1,0.5-0.1,1-0.6,0.8c0,0,0,0,0,0
		C6.9,46,7.3,46.4,7.8,46.1 M12,44c-0.1,0-0.5,0-0.5,0.1c0,0.1,0.2,0,0.5,0.1c0.6,0.1,0.9,0.4,1.3,0.4c0.4,0,0.8-0.3,0.6-0.8
		c0-0.1-0.1-0.1-0.1,0c-0.1,0.3-0.4,0.4-0.7,0.4C12.8,44.1,12.7,44,12,44 M26.2,47.7h-0.8v-2.1h0.8V47.7z M22.8,57H22v-2.1h0.8V57z"
		/>
	<path class="st2" d="M57.1,42.3c-0.4-0.3-1-0.4-1.7-0.4H55v3.4c0.1,0,0.3,0,0.4,0c0.1,0,0.2,0,0.3,0c0.3,0,0.5,0,0.8-0.1
		c0.2-0.1,0.5-0.2,0.6-0.4c0.2-0.1,0.3-0.3,0.4-0.6c0.1-0.2,0.1-0.4,0.1-0.7C57.7,43,57.5,42.6,57.1,42.3 M56.9,38.4
		c-0.3-0.2-0.7-0.4-1.3-0.4c-0.2,0-0.4,0-0.6,0v3.2c0.4,0,0.7,0,1-0.1c0.3-0.1,0.6-0.2,0.8-0.4c0.2-0.2,0.4-0.3,0.5-0.6
		c0.1-0.2,0.2-0.5,0.2-0.8C57.3,39,57.2,38.6,56.9,38.4 M58.7,44.5c-0.2,0.3-0.4,0.6-0.7,0.8c-0.3,0.2-0.7,0.4-1.1,0.5
		c-0.4,0.1-0.9,0.2-1.4,0.2c-0.5,0-0.9,0-1.3,0c-0.4,0-0.8-0.1-1.1-0.1v-0.3c0.2-0.1,0.4-0.2,0.6-0.3c0.1-0.1,0.2-0.4,0.2-0.7v-6.6
		L53,37.8v-0.3c0.2,0,0.4-0.1,0.6-0.1c0.2,0,0.4-0.1,0.6-0.1c0.2,0,0.4,0,0.7,0h0.8c1,0,1.7,0.2,2.2,0.5c0.5,0.3,0.7,0.8,0.7,1.5
		c0,0.3-0.1,0.5-0.2,0.7c-0.1,0.2-0.2,0.5-0.4,0.6c-0.2,0.2-0.4,0.4-0.6,0.5c-0.2,0.1-0.5,0.2-0.8,0.3v0c0.3,0,0.7,0,1,0.1
		c0.3,0.1,0.5,0.2,0.7,0.4c0.2,0.2,0.4,0.4,0.5,0.6c0.1,0.3,0.2,0.5,0.2,0.8C58.9,43.8,58.9,44.2,58.7,44.5"/>
	<path class="st2" d="M64,41.2c-0.1-0.2-0.2-0.4-0.3-0.6c-0.1-0.2-0.3-0.3-0.4-0.4c-0.2-0.1-0.3-0.1-0.5-0.1s-0.4,0.1-0.5,0.2
		c-0.2,0.1-0.3,0.2-0.5,0.4c-0.1,0.2-0.3,0.4-0.3,0.6c-0.1,0.2-0.1,0.5-0.1,0.8h2.9C64.1,41.8,64.1,41.5,64,41.2 M65.2,42.8h-4
		c0,0.4,0.1,0.7,0.1,1c0.1,0.3,0.3,0.5,0.4,0.7c0.2,0.2,0.4,0.4,0.6,0.5c0.2,0.1,0.5,0.2,0.8,0.2c0.2,0,0.3,0,0.5,0
		c0.2,0,0.3-0.1,0.5-0.1c0.2,0,0.3-0.1,0.5-0.2c0.1-0.1,0.3-0.2,0.4-0.2c0,0,0,0.1,0,0.1c0,0.1,0,0.1,0,0.2c0,0.2-0.1,0.3-0.2,0.4
		c-0.1,0.1-0.3,0.3-0.5,0.4c-0.2,0.1-0.4,0.2-0.7,0.3c-0.3,0.1-0.6,0.1-1,0.1c-0.4,0-0.7-0.1-1.1-0.2c-0.3-0.1-0.6-0.3-0.9-0.6
		c-0.3-0.3-0.5-0.6-0.6-1c-0.1-0.4-0.2-0.8-0.2-1.3c0-0.6,0.1-1.1,0.2-1.6c0.2-0.4,0.4-0.8,0.6-1.1c0.3-0.3,0.5-0.5,0.9-0.7
		c0.3-0.2,0.7-0.2,1-0.2c0.4,0,0.7,0.1,1,0.2c0.3,0.1,0.5,0.3,0.7,0.5c0.2,0.2,0.3,0.5,0.5,0.8c0.1,0.3,0.2,0.7,0.2,1v0.4
		C65.2,42.5,65.2,42.6,65.2,42.8"/>
	<path class="st2" d="M68.5,45.9c-0.1,0-0.2,0.1-0.4,0.1c-0.1,0-0.3,0-0.4,0c-0.1,0-0.3,0-0.5,0c-0.2,0-0.3,0-0.5,0
		c-0.2,0-0.3,0-0.5-0.1v-0.2c0.1,0,0.2-0.1,0.3-0.1c0.1-0.1,0.2-0.1,0.2-0.2c0.1-0.1,0.1-0.1,0.2-0.2C67,45.1,67,45,67,45v-7.8
		l-0.9-0.4v-0.3c0.1,0,0.3-0.1,0.5-0.1c0.1,0,0.3-0.1,0.4-0.1c0.1,0,0.3,0,0.4,0c0.1,0,0.2,0,0.3,0h0.4L68.1,37v8.3l0.8,0.2v0.3
		C68.7,45.8,68.6,45.9,68.5,45.9"/>
	<path class="st2" d="M73.2,43.1c-0.4,0-0.7,0-1,0.1c-0.3,0.1-0.5,0.2-0.7,0.3c-0.2,0.1-0.3,0.3-0.5,0.4c-0.1,0.2-0.1,0.3-0.1,0.5
		c0,0.3,0.1,0.5,0.3,0.6c0.2,0.2,0.4,0.2,0.8,0.2c0.1,0,0.2,0,0.3,0c0.1,0,0.2-0.1,0.3-0.1c0.1,0,0.2-0.1,0.3-0.1
		c0.1,0,0.2-0.1,0.3-0.1V43.1z M74.3,45.8c-0.2,0.1-0.3,0.2-0.5,0.3c-0.1-0.1-0.2-0.2-0.3-0.3c-0.1-0.1-0.2-0.2-0.3-0.4
		c-0.1,0.1-0.2,0.2-0.3,0.3c-0.1,0.1-0.3,0.1-0.4,0.2c-0.2,0.1-0.3,0.1-0.5,0.1c-0.2,0-0.3,0.1-0.5,0.1c-0.3,0-0.5,0-0.7-0.1
		c-0.2-0.1-0.4-0.2-0.5-0.3c-0.2-0.1-0.3-0.3-0.4-0.5c-0.1-0.2-0.1-0.4-0.1-0.6c0-0.3,0.1-0.6,0.2-0.8c0.1-0.3,0.4-0.5,0.7-0.7
		c0.3-0.2,0.7-0.4,1.1-0.5c0.4-0.1,0.9-0.2,1.5-0.2v-0.4c0-0.4,0-0.7-0.1-0.9C73,41,73,40.8,72.9,40.7c-0.1-0.1-0.2-0.2-0.4-0.3
		c-0.1,0-0.3-0.1-0.5-0.1c-0.4,0-0.7,0.1-1.1,0.2c-0.3,0.1-0.7,0.4-0.9,0.6c0-0.1,0-0.3,0-0.4c0-0.2,0-0.4,0.1-0.6
		c0.1-0.2,0.2-0.3,0.4-0.4c0.2-0.1,0.4-0.2,0.7-0.3c0.3-0.1,0.6-0.1,1-0.1c0.3,0,0.6,0,0.9,0.1c0.3,0.1,0.5,0.2,0.7,0.4
		c0.2,0.2,0.3,0.3,0.4,0.6c0.1,0.2,0.1,0.5,0.1,0.8c0,0.1,0,0.2,0,0.3c0,0.1,0,0.2,0,0.4c0,0.1,0,0.3,0,0.4s0,0.2,0,0.3l0,2.2
		c0.1,0.1,0.1,0.2,0.2,0.4c0.1,0.1,0.2,0.2,0.3,0.3C74.6,45.6,74.5,45.7,74.3,45.8"/>
	<path class="st2" d="M79.7,44.9c-0.1,0.2-0.3,0.4-0.5,0.6c-0.2,0.2-0.5,0.3-0.8,0.4c-0.3,0.1-0.6,0.2-1,0.2c-0.6,0-1-0.1-1.3-0.3
		c-0.3-0.2-0.4-0.5-0.4-0.8c0-0.1,0-0.2,0-0.3c0-0.1,0.1-0.2,0.1-0.3c0.3,0.3,0.6,0.5,0.9,0.6c0.3,0.1,0.6,0.2,1,0.2
		c0.4,0,0.7-0.1,0.9-0.2c0.2-0.2,0.3-0.3,0.3-0.6c0-0.1,0-0.2-0.1-0.3c0-0.1-0.1-0.2-0.2-0.3c-0.1-0.1-0.2-0.2-0.4-0.3
		c-0.1-0.1-0.3-0.2-0.5-0.3L77,43.1c-0.4-0.2-0.7-0.4-0.9-0.7c-0.2-0.3-0.3-0.6-0.3-1c0-0.3,0.1-0.5,0.2-0.8
		c0.1-0.2,0.3-0.5,0.5-0.6c0.2-0.2,0.4-0.3,0.7-0.4c0.3-0.1,0.6-0.2,1-0.2c0.3,0,0.5,0,0.7,0.1c0.2,0,0.3,0.1,0.5,0.2
		c0.1,0.1,0.2,0.2,0.3,0.3c0.1,0.1,0.1,0.2,0.1,0.3c0,0.1,0,0.2,0,0.3c0,0.1,0,0.2-0.1,0.3c-0.2-0.1-0.5-0.3-0.7-0.4
		c-0.3-0.1-0.5-0.1-0.8-0.1c-0.2,0-0.4,0-0.6,0.1c-0.2,0-0.3,0.1-0.4,0.2c-0.1,0.1-0.2,0.2-0.2,0.3c0,0.1-0.1,0.2-0.1,0.3
		c0,0.1,0,0.2,0,0.3c0,0.1,0.1,0.2,0.2,0.3c0.1,0.1,0.2,0.2,0.3,0.2c0.1,0.1,0.3,0.1,0.5,0.2l0.7,0.3c0.2,0.1,0.4,0.2,0.6,0.3
		c0.2,0.1,0.3,0.2,0.4,0.4c0.1,0.1,0.2,0.3,0.2,0.5c0,0.2,0.1,0.3,0.1,0.5C79.9,44.4,79.8,44.7,79.7,44.9"/>
	<path class="st2" d="M83,46.1c-0.5,0-0.9-0.1-1.2-0.4c-0.3-0.3-0.4-0.8-0.4-1.4c0-0.3,0-0.7,0-1c0-0.3,0-0.7,0-1l0-1.8h-0.7V40
		l1.4-1.4l0.4-0.1l-0.1,1.2h1.8l-0.1,0.7h-1.7l0,1.7c0,0.3,0,0.5,0,0.8v0.8c0,0.3,0,0.5,0.1,0.7c0,0.2,0.1,0.3,0.2,0.5
		c0.1,0.1,0.1,0.2,0.3,0.2c0.1,0.1,0.2,0.1,0.3,0.1c0.2,0,0.4,0,0.5-0.1c0.2-0.1,0.3-0.1,0.4-0.3l0.1,0.1
		C84.4,45.7,83.9,46.1,83,46.1"/>
	<path class="st2" d="M87.1,37.8c0,0.1-0.1,0.2-0.2,0.3c-0.1,0.1-0.1,0.1-0.2,0.2c-0.1,0.1-0.2,0.1-0.3,0.1c-0.1,0-0.2,0-0.3-0.1
		c-0.1,0-0.2-0.1-0.2-0.2c-0.1-0.1-0.1-0.1-0.1-0.2c0-0.1-0.1-0.2-0.1-0.3c0-0.1,0-0.2,0.1-0.3c0-0.1,0.1-0.2,0.1-0.3
		c0.1-0.1,0.1-0.1,0.2-0.2c0.1,0,0.2-0.1,0.3-0.1c0.1,0,0.2,0,0.3,0.1c0.1,0,0.2,0.1,0.2,0.1c0.1,0.1,0.1,0.1,0.1,0.2
		c0,0.1,0.1,0.2,0.1,0.3C87.1,37.6,87.1,37.7,87.1,37.8 M87.3,45.9c-0.1,0-0.2,0.1-0.4,0.1c-0.1,0-0.3,0-0.4,0c-0.1,0-0.3,0-0.5,0
		c-0.1,0-0.3,0-0.5,0c-0.2,0-0.4,0-0.5-0.1v-0.2c0.1,0,0.2-0.1,0.3-0.1c0.1-0.1,0.2-0.1,0.2-0.2c0.1-0.1,0.1-0.1,0.2-0.2
		c0-0.1,0.1-0.1,0.1-0.2v-4.5L85,40.1v-0.3c0.3-0.1,0.6-0.1,0.9-0.2c0.3-0.1,0.5-0.1,0.7-0.1H87l-0.1,0.7v5.1l0.8,0.2v0.3
		C87.5,45.8,87.4,45.9,87.3,45.9"/>
	<path class="st2" d="M93.6,46c-0.1,0-0.3,0-0.4,0c-0.1,0-0.3,0-0.4-0.1v-0.2c0.2-0.1,0.3-0.2,0.4-0.3c0.1-0.1,0.1-0.3,0.1-0.6v-2.6
		c0-0.3,0-0.6-0.1-0.8c-0.1-0.2-0.2-0.4-0.3-0.6c-0.1-0.1-0.3-0.3-0.4-0.3c-0.2-0.1-0.3-0.1-0.6-0.1c-0.3,0-0.5,0-0.8,0.1
		c-0.3,0.1-0.5,0.2-0.6,0.3v4.5l0.8,0.2v0.3c-0.1,0-0.2,0.1-0.3,0.1c-0.1,0-0.2,0.1-0.4,0.1c-0.1,0-0.3,0-0.4,0c-0.1,0-0.3,0-0.5,0
		c-0.2,0-0.3,0-0.5,0c-0.2,0-0.3,0-0.5-0.1v-0.2c0.1,0,0.2-0.1,0.3-0.1c0.1-0.1,0.2-0.1,0.2-0.2c0.1-0.1,0.1-0.1,0.2-0.2
		c0-0.1,0.1-0.1,0.1-0.2v-4.5l-0.9-0.4v-0.3c0.3-0.1,0.6-0.1,0.9-0.2c0.3,0,0.5-0.1,0.7-0.1h0.3v0.7c0.2-0.2,0.5-0.4,0.9-0.5
		c0.3-0.1,0.7-0.2,1.1-0.2c0.3,0,0.5,0,0.8,0.1c0.2,0.1,0.4,0.2,0.6,0.4c0.2,0.2,0.3,0.4,0.4,0.6c0.1,0.3,0.1,0.6,0.1,0.9v3.8
		l0.7,0.2v0.3C94.6,46,94.1,46,93.6,46"/>
	<path class="st2" d="M99.8,41c-0.1-0.2-0.2-0.4-0.3-0.5c-0.1-0.1-0.3-0.2-0.4-0.3c-0.2-0.1-0.3-0.1-0.5-0.1c-0.2,0-0.4,0-0.6,0.1
		c-0.2,0.1-0.3,0.2-0.4,0.4c-0.1,0.2-0.2,0.4-0.3,0.6c-0.1,0.2-0.1,0.5-0.1,0.8c0,0.3,0,0.5,0.1,0.7c0.1,0.2,0.2,0.4,0.3,0.5
		c0.1,0.1,0.3,0.2,0.4,0.3c0.2,0.1,0.3,0.1,0.5,0.1c0.2,0,0.4,0,0.6-0.1c0.2-0.1,0.3-0.2,0.5-0.4c0.1-0.2,0.2-0.4,0.3-0.6
		c0.1-0.2,0.1-0.5,0.1-0.8C99.9,41.5,99.9,41.2,99.8,41 M100.3,46.6c-0.2-0.1-0.4-0.2-0.7-0.2h-2.2c-0.1,0-0.2,0.1-0.3,0.2
		c-0.1,0.1-0.2,0.2-0.2,0.3c-0.1,0.1-0.1,0.2-0.1,0.3s-0.1,0.2-0.1,0.3c0,0.1,0,0.3,0.1,0.4c0.1,0.1,0.2,0.2,0.3,0.3
		c0.1,0.1,0.3,0.2,0.5,0.2c0.2,0.1,0.5,0.1,0.8,0.1c0.3,0,0.6,0,0.9-0.1c0.3-0.1,0.5-0.2,0.7-0.3c0.2-0.1,0.3-0.3,0.4-0.4
		c0.1-0.1,0.1-0.3,0.1-0.5C100.6,47,100.5,46.8,100.3,46.6 M101.7,40.4c-0.2-0.1-0.4-0.1-0.7-0.1c-0.2,0-0.5,0-0.8,0v0
		c0.1,0.1,0.2,0.2,0.3,0.3c0.1,0.1,0.2,0.2,0.2,0.3c0.1,0.1,0.1,0.3,0.2,0.4c0,0.1,0.1,0.3,0.1,0.4c0,0.4-0.1,0.7-0.2,1.1
		c-0.1,0.3-0.3,0.6-0.6,0.8c-0.3,0.2-0.5,0.4-0.9,0.5c-0.3,0.1-0.7,0.2-1,0.2c-0.1,0-0.3,0-0.4,0c-0.1,0-0.3-0.1-0.4-0.1
		c-0.1,0-0.1,0.1-0.1,0.1c-0.1,0-0.1,0.1-0.1,0.2c0,0.1-0.1,0.1-0.1,0.2c0,0.1,0,0.1,0,0.2c0,0.2,0.1,0.4,0.2,0.5
		c0.2,0.1,0.4,0.2,0.6,0.2l1.9,0c0.6,0,1,0.1,1.3,0.4c0.3,0.3,0.5,0.6,0.5,1.1c0,0.3-0.1,0.6-0.3,0.9c-0.2,0.3-0.4,0.5-0.7,0.7
		c-0.3,0.2-0.6,0.4-1,0.5c-0.4,0.1-0.8,0.2-1.3,0.2c-0.4,0-0.8,0-1.1-0.1c-0.3-0.1-0.6-0.2-0.8-0.3c-0.2-0.1-0.4-0.3-0.5-0.5
		c-0.1-0.2-0.2-0.4-0.2-0.6c0-0.2,0-0.3,0.1-0.5c0.1-0.1,0.2-0.3,0.3-0.4c0.1-0.1,0.3-0.2,0.4-0.3c0.2-0.1,0.3-0.2,0.5-0.2v0
		c-0.2-0.1-0.4-0.2-0.6-0.4c-0.1-0.2-0.2-0.4-0.2-0.6c0-0.1,0-0.3,0.1-0.4c0-0.1,0.1-0.2,0.2-0.3c0.1-0.1,0.2-0.2,0.3-0.3
		c0.1-0.1,0.2-0.1,0.4-0.2v0c-0.2-0.1-0.3-0.1-0.4-0.3c-0.1-0.1-0.3-0.2-0.4-0.4c-0.1-0.2-0.2-0.3-0.3-0.6C96,42.5,96,42.3,96,42.1
		c0-0.4,0.1-0.7,0.2-1c0.1-0.3,0.3-0.6,0.6-0.8c0.2-0.2,0.5-0.4,0.9-0.6c0.3-0.1,0.7-0.2,1-0.2c0.1,0,0.3,0,0.4,0
		c0.1,0,0.3,0.1,0.4,0.1c0.1,0,0.3,0.1,0.4,0.1c0.1,0.1,0.2,0.1,0.2,0.2c0.1-0.1,0.1-0.1,0.2-0.2c0.1-0.1,0.2-0.1,0.3-0.1
		c0.1,0,0.2-0.1,0.3-0.1c0.1,0,0.2,0,0.3,0c0.1,0,0.2,0,0.3,0c0.1,0,0.2,0,0.3,0.1L101.7,40.4z"/>
	<path class="st2" d="M106.4,40.3c-0.1,0-0.3-0.1-0.4-0.1c-0.2,0-0.3,0-0.5,0c-0.3,0-0.6,0.1-0.8,0.2c-0.2,0.1-0.5,0.3-0.6,0.5
		c-0.2,0.2-0.3,0.5-0.4,0.9c-0.1,0.3-0.1,0.8-0.1,1.2c0,0.4,0,0.7,0.1,1c0.1,0.3,0.2,0.5,0.4,0.7c0.1,0.2,0.3,0.3,0.5,0.4
		c0.2,0.1,0.4,0.1,0.6,0.1c0.1,0,0.3,0,0.4,0c0.1,0,0.3-0.1,0.4-0.1c0.1,0,0.2-0.1,0.3-0.1c0.1-0.1,0.2-0.1,0.3-0.2V40.3z
		 M107.6,45.8c-0.1,0.1-0.3,0.2-0.5,0.3c-0.1-0.1-0.3-0.2-0.4-0.4c-0.1-0.1-0.2-0.3-0.3-0.4c-0.1,0.1-0.2,0.2-0.4,0.3
		c-0.1,0.1-0.3,0.2-0.4,0.2c-0.2,0.1-0.3,0.1-0.5,0.2c-0.2,0-0.3,0.1-0.4,0.1c-0.3,0-0.7-0.1-1-0.2c-0.3-0.1-0.5-0.3-0.8-0.6
		c-0.2-0.3-0.4-0.6-0.5-0.9c-0.1-0.4-0.2-0.8-0.2-1.2c0-0.6,0.1-1.1,0.3-1.6c0.2-0.5,0.4-0.9,0.7-1.2c0.3-0.3,0.6-0.6,1-0.7
		c0.4-0.2,0.8-0.2,1.2-0.2c0.2,0,0.3,0,0.5,0c0.2,0,0.3,0,0.4,0.1v-2.4l-0.9-0.4v-0.3c0.3-0.1,0.6-0.1,0.9-0.2
		c0.3,0,0.5-0.1,0.8-0.1h0.4l-0.1,0.8v7.7c0.1,0.1,0.1,0.3,0.2,0.4c0.1,0.1,0.2,0.3,0.3,0.4C107.9,45.6,107.7,45.7,107.6,45.8"/>
	<path class="st2" d="M111.1,37.8c0,0.1-0.1,0.2-0.2,0.3c-0.1,0.1-0.1,0.1-0.2,0.2c-0.1,0.1-0.2,0.1-0.3,0.1c-0.1,0-0.2,0-0.3-0.1
		c-0.1,0-0.2-0.1-0.2-0.2c-0.1-0.1-0.1-0.1-0.1-0.2c0-0.1-0.1-0.2-0.1-0.3c0-0.1,0-0.2,0.1-0.3c0-0.1,0.1-0.2,0.1-0.3
		c0.1-0.1,0.1-0.1,0.2-0.2c0.1,0,0.2-0.1,0.3-0.1c0.1,0,0.2,0,0.3,0.1c0.1,0,0.2,0.1,0.2,0.1c0.1,0.1,0.1,0.1,0.1,0.2
		c0,0.1,0.1,0.2,0.1,0.3C111.1,37.6,111.1,37.7,111.1,37.8 M111.3,45.9c-0.1,0-0.2,0.1-0.4,0.1c-0.1,0-0.3,0-0.4,0
		c-0.1,0-0.3,0-0.5,0c-0.1,0-0.3,0-0.5,0c-0.2,0-0.4,0-0.5-0.1v-0.2c0.1,0,0.2-0.1,0.3-0.1c0.1-0.1,0.2-0.1,0.2-0.2
		c0.1-0.1,0.1-0.1,0.2-0.2c0-0.1,0.1-0.1,0.1-0.2v-4.5l-0.9-0.4v-0.3c0.3-0.1,0.6-0.1,0.9-0.2c0.3-0.1,0.5-0.1,0.7-0.1h0.4l-0.1,0.7
		v5.1l0.8,0.2v0.3C111.6,45.8,111.4,45.9,111.3,45.9"/>
	<path class="st2" d="M116.5,41.2c-0.1-0.2-0.2-0.4-0.3-0.6c-0.1-0.2-0.3-0.3-0.4-0.4c-0.2-0.1-0.3-0.1-0.5-0.1
		c-0.2,0-0.4,0.1-0.6,0.2c-0.2,0.1-0.3,0.2-0.5,0.4c-0.1,0.2-0.3,0.4-0.3,0.6c-0.1,0.2-0.1,0.5-0.1,0.8h2.9
		C116.6,41.8,116.6,41.5,116.5,41.2 M117.7,42.8h-4c0,0.4,0.1,0.7,0.1,1c0.1,0.3,0.3,0.5,0.4,0.7c0.2,0.2,0.4,0.4,0.6,0.5
		c0.2,0.1,0.5,0.2,0.8,0.2c0.2,0,0.3,0,0.5,0c0.2,0,0.3-0.1,0.5-0.1c0.2,0,0.3-0.1,0.5-0.2c0.1-0.1,0.3-0.2,0.4-0.2c0,0,0,0.1,0,0.1
		c0,0.1,0,0.1,0,0.2c0,0.2-0.1,0.3-0.2,0.4c-0.1,0.1-0.3,0.3-0.5,0.4c-0.2,0.1-0.4,0.2-0.7,0.3c-0.3,0.1-0.6,0.1-1,0.1
		c-0.4,0-0.7-0.1-1.1-0.2c-0.3-0.1-0.6-0.3-0.9-0.6c-0.3-0.3-0.5-0.6-0.6-1c-0.1-0.4-0.2-0.8-0.2-1.3c0-0.6,0.1-1.1,0.2-1.6
		c0.2-0.4,0.4-0.8,0.6-1.1c0.3-0.3,0.6-0.5,0.9-0.7c0.3-0.2,0.7-0.2,1-0.2c0.4,0,0.7,0.1,1,0.2c0.3,0.1,0.5,0.3,0.7,0.5
		c0.2,0.2,0.3,0.5,0.5,0.8c0.1,0.3,0.2,0.7,0.2,1v0.4C117.7,42.5,117.7,42.6,117.7,42.8"/>
	<path class="st2" d="M123.7,46c-0.1,0-0.3,0-0.4,0c-0.1,0-0.3,0-0.4-0.1v-0.2c0.2-0.1,0.3-0.2,0.4-0.3c0.1-0.1,0.1-0.3,0.1-0.6
		v-2.6c0-0.3,0-0.6-0.1-0.8c-0.1-0.2-0.2-0.4-0.3-0.6c-0.1-0.1-0.3-0.3-0.4-0.3c-0.2-0.1-0.3-0.1-0.6-0.1c-0.3,0-0.5,0-0.8,0.1
		c-0.3,0.1-0.5,0.2-0.6,0.3v4.5l0.8,0.2v0.3c-0.1,0-0.2,0.1-0.3,0.1c-0.1,0-0.2,0.1-0.4,0.1c-0.1,0-0.3,0-0.4,0c-0.1,0-0.3,0-0.5,0
		c-0.2,0-0.3,0-0.5,0c-0.2,0-0.3,0-0.5-0.1v-0.2c0.1,0,0.2-0.1,0.3-0.1c0.1-0.1,0.2-0.1,0.2-0.2c0.1-0.1,0.1-0.1,0.2-0.2
		c0-0.1,0.1-0.1,0.1-0.2v-4.5l-0.9-0.4v-0.3c0.3-0.1,0.6-0.1,0.9-0.2c0.3,0,0.5-0.1,0.7-0.1h0.3v0.7c0.2-0.2,0.5-0.4,0.9-0.5
		c0.3-0.1,0.7-0.2,1.1-0.2c0.3,0,0.5,0,0.8,0.1c0.2,0.1,0.4,0.2,0.6,0.4c0.2,0.2,0.3,0.4,0.4,0.6c0.1,0.3,0.1,0.6,0.1,0.9v3.8
		l0.7,0.2v0.3C124.7,46,124.2,46,123.7,46"/>
	<path class="st2" d="M130,44.9c-0.1,0.2-0.3,0.4-0.5,0.6c-0.2,0.2-0.5,0.3-0.8,0.4c-0.3,0.1-0.6,0.2-1,0.2c-0.6,0-1-0.1-1.3-0.3
		c-0.3-0.2-0.4-0.5-0.4-0.8c0-0.1,0-0.2,0-0.3c0-0.1,0.1-0.2,0.1-0.3c0.3,0.3,0.6,0.5,0.9,0.6c0.3,0.1,0.6,0.2,1,0.2
		c0.4,0,0.7-0.1,0.9-0.2c0.2-0.2,0.3-0.3,0.3-0.6c0-0.1,0-0.2-0.1-0.3c0-0.1-0.1-0.2-0.2-0.3c-0.1-0.1-0.2-0.2-0.4-0.3
		c-0.1-0.1-0.3-0.2-0.5-0.3l-0.7-0.3c-0.4-0.2-0.7-0.4-0.9-0.7c-0.2-0.3-0.3-0.6-0.3-1c0-0.3,0.1-0.5,0.2-0.8
		c0.1-0.2,0.3-0.5,0.5-0.6c0.2-0.2,0.4-0.3,0.7-0.4c0.3-0.1,0.6-0.2,1-0.2c0.3,0,0.5,0,0.7,0.1c0.2,0,0.3,0.1,0.5,0.2
		c0.1,0.1,0.2,0.2,0.3,0.3c0.1,0.1,0.1,0.2,0.1,0.3c0,0.1,0,0.2,0,0.3c0,0.1,0,0.2-0.1,0.3c-0.2-0.1-0.5-0.3-0.7-0.4
		c-0.3-0.1-0.5-0.1-0.8-0.1c-0.2,0-0.4,0-0.6,0.1c-0.2,0-0.3,0.1-0.4,0.2c-0.1,0.1-0.2,0.2-0.2,0.3c0,0.1-0.1,0.2-0.1,0.3
		c0,0.1,0,0.2,0,0.3c0,0.1,0.1,0.2,0.2,0.3c0.1,0.1,0.2,0.2,0.3,0.2c0.1,0.1,0.3,0.1,0.5,0.2l0.7,0.3c0.2,0.1,0.4,0.2,0.6,0.3
		c0.2,0.1,0.3,0.2,0.4,0.4c0.1,0.1,0.2,0.3,0.2,0.5c0,0.2,0.1,0.3,0.1,0.5C130.1,44.4,130.1,44.7,130,44.9"/>
	<path class="st2" d="M133.2,46.1c-0.5,0-0.9-0.1-1.2-0.4c-0.3-0.3-0.4-0.8-0.4-1.4c0-0.3,0-0.7,0-1c0-0.3,0-0.7,0-1l0-1.8H131V40
		l1.4-1.4l0.4-0.1l-0.1,1.2h1.8l-0.1,0.7h-1.7l0,1.7c0,0.3,0,0.5,0,0.8v0.8c0,0.3,0,0.5,0.1,0.7c0,0.2,0.1,0.3,0.2,0.5
		c0.1,0.1,0.1,0.2,0.3,0.2c0.1,0.1,0.2,0.1,0.3,0.1c0.2,0,0.4,0,0.5-0.1c0.2-0.1,0.3-0.1,0.4-0.3l0.1,0.1
		C134.6,45.7,134.2,46.1,133.2,46.1"/>
</g>
</svg>
