<?xml version="1.0" standalone="no"?>
<!DOCTYPE svg PUBLIC "-//W3C//DTD SVG 1.1//EN" "http://www.w3.org/Graphics/SVG/1.1/DTD/svg11.dtd" >
<svg xmlns="http://www.w3.org/2000/svg">
<metadata></metadata>
<defs>
<font id="rijksoverheidsanswebtext_itIt" horiz-adv-x="1064" >
<font-face units-per-em="2048" ascent="1657" descent="-391" />
<missing-glyph horiz-adv-x="366" />
<glyph unicode="&#xfb01;" horiz-adv-x="966" d="M96 -391l117 1276h-100v116h110l13 117q14 156 116.5 236t282.5 80q70 0 135.5 -3.5t122.5 -11.5l-16 -125q-61 6 -125 9.5t-131 3.5q-117 0 -176.5 -45t-67.5 -142l-10 -119h354l143 11l-90 -1012h-143l78 885h-353l-116 -1276h-144z" />
<glyph unicode="&#xfb02;" horiz-adv-x="966" d="M96 -391l117 1276h-100v116h110l13 117q14 150 112 233t234 83q49 0 99 -3.5t91 -11.5l133 17l-133 -1436h-143l119 1296q-41 6 -89.5 8.5t-87.5 2.5q-76 0 -131 -46.5t-63 -140.5l-10 -119h186l-14 -116h-183l-116 -1276h-144z" />
<glyph horiz-adv-x="0" />
<glyph horiz-adv-x="682" />
<glyph unicode=" "  horiz-adv-x="366" />
<glyph unicode="&#x09;" horiz-adv-x="366" />
<glyph unicode="&#xa0;" horiz-adv-x="366" />
<glyph unicode="!" horiz-adv-x="555" d="M129 100q0 57 33 92t90 35q47 0 74.5 -27.5t27.5 -76.5q0 -63 -31.5 -97t-86.5 -34q-51 0 -79 28.5t-28 79.5zM195 360l86 975l161 21l-67 -613l-37 -374z" />
<glyph unicode="&#x22;" horiz-adv-x="692" d="M174 989l14 424h152l-59 -424h-107zM479 989l15 424h151l-59 -424h-107z" />
<glyph unicode="#" horiz-adv-x="1161" d="M27 354l22 121h238l82 395h-238l25 121h235l72 352h119l-72 -352h287l71 352h119l-72 -352h232l-23 -121h-231l-82 -395h229l-22 -121h-232l-69 -354h-119l70 354h-287l-70 -354h-118l71 354h-237zM406 475h286l80 395h-285z" />
<glyph unicode="$" d="M127 18v144q88 -20 160.5 -29.5t148.5 -9.5q133 0 216 62.5t83 158.5q0 70 -35.5 121t-134.5 113l-162 100q-96 61 -141 132t-45 167q0 141 93 243.5t243 127.5l20 211h113l-16 -203q68 -2 117 -7.5t106 -17.5l-10 -139q-68 14 -123 21.5t-125 7.5q-121 0 -191.5 -65.5 t-70.5 -147.5q0 -66 31.5 -113t113.5 -94l158 -94q125 -74 171 -148t46 -174q0 -154 -104.5 -262.5t-282.5 -128.5l-19 -209h-114l18 201q-70 2 -133 10t-131 22z" />
<glyph unicode="%" horiz-adv-x="1615" d="M98 897q0 236 108 348.5t243 112.5q115 0 192.5 -76t77.5 -242q0 -229 -106.5 -342.5t-241.5 -113.5q-117 0 -195 71.5t-78 241.5zM233 911q0 -115 41 -164t109 -49q82 0 142.5 84t60.5 250q0 111 -38 162t-112 51q-82 0 -142.5 -82t-60.5 -252zM446 -2l633 1382l105 -45 l-635 -1382zM911 295q0 238 106.5 351.5t239.5 113.5q117 0 196 -77t79 -245q0 -225 -107.5 -338.5t-240.5 -113.5q-117 0 -195 71.5t-78 237.5zM1044 313q0 -115 41 -164t111 -49q82 0 142.5 83t60.5 247q0 113 -38 165t-112 52q-82 0 -143.5 -83t-61.5 -251z" />
<glyph unicode="&#x26;" horiz-adv-x="1394" d="M131 326q0 133 83 235.5t247 140.5v7q-104 33 -158.5 104.5t-54.5 171.5q0 154 117.5 260.5t304.5 106.5q76 0 131 -8.5t106 -24.5l-10 -131q-53 12 -109.5 18t-117.5 6q-123 0 -191.5 -62.5t-68.5 -150.5q0 -115 77.5 -176t284.5 -61v-129q-225 8 -350 -72t-125 -213 q0 -111 77 -170t232 -59q203 0 342 152.5t139 435.5h-129v116h392v-116h-121q0 -326 -184 -525.5t-463 -199.5q-217 0 -334 94t-117 250z" />
<glyph unicode="'" horiz-adv-x="387" d="M174 989l14 424h152l-59 -424h-107z" />
<glyph unicode="(" horiz-adv-x="534" d="M102 391q4 254 99.5 499t261.5 453h123q-160 -209 -254 -436t-99 -495q-4 -193 49.5 -393.5t151.5 -374.5h-121q-104 162 -158.5 354t-52.5 393z" />
<glyph unicode=")" horiz-adv-x="534" d="M-55 -356q160 209 254 436t98 495q4 193 -49 393.5t-152 374.5h121q104 -162 158.5 -354t52.5 -393q-4 -254 -99.5 -498.5t-260.5 -453.5h-123z" />
<glyph unicode="*" horiz-adv-x="911" d="M115 1085l49 123l221 -100l68 -27l8 80l2 269h121l-37 -269l-8 -80l67 29l240 100l28 -125l-247 -63l-70 -23l39 -65l143 -205l-104 -78l-113 228l-39 63l-45 -63l-149 -226l-96 74l180 205l49 67l-70 21z" />
<glyph unicode="+" d="M141 543l11 129h317l31 340h131l-31 -340h318l-11 -129h-319l-29 -340h-131l31 340h-318z" />
<glyph unicode="," horiz-adv-x="417" d="M0 -225l115 237q-23 12 -37.5 35.5t-14.5 56.5q0 51 35 89t86 38q45 0 76 -31.5t31 -80.5q0 -76 -94.5 -210t-124.5 -134h-72z" />
<glyph unicode="-" horiz-adv-x="786" d="M158 520v133h522v-133h-522z" />
<glyph unicode="." horiz-adv-x="417" d="M61 100q0 57 35 94t92 37q49 0 78 -28.5t29 -79.5q0 -66 -33 -100.5t-90 -34.5q-51 0 -81 29.5t-30 82.5z" />
<glyph unicode="/" horiz-adv-x="606" d="M-113 -342l709 1712l113 -43l-713 -1712z" />
<glyph unicode="0" d="M100 520q0 428 156.5 635t349.5 207q166 0 277.5 -130t111.5 -413q0 -414 -156.5 -625.5t-346.5 -211.5q-168 0 -280 127t-112 411zM268 526q0 -211 65.5 -309t170.5 -98q127 0 226 181t99 527q0 203 -62 300.5t-173 97.5q-186 0 -256 -247t-70 -452z" />
<glyph unicode="1" d="M301 1161v117q82 31 177 48t186 17h94l-101 -1343h-153l90 1202q-63 0 -143 -10.5t-150 -30.5z" />
<glyph unicode="2" d="M147 125q20 133 89 245.5t184 200.5l133 101q121 92 176 170t55 172q0 92 -62.5 146t-166.5 54q-70 0 -126 -8t-134 -28v129q76 23 148.5 35t140.5 12q164 0 264 -84t100 -226q0 -135 -63.5 -235t-243.5 -236l-119 -88q-100 -76 -161.5 -162.5t-75.5 -187.5h604v-135 h-715z" />
<glyph unicode="3" d="M145 -18v127h144q195 0 321.5 102t126.5 244q0 100 -70.5 164.5t-213.5 82.5q-41 -18 -85 -32.5t-94 -24.5l-16 117q207 55 339 170t189 278h-524v133h647l33 -108q-57 -160 -137 -261.5t-197 -172.5v-2q135 -25 213 -106t78 -210q0 -209 -174 -355t-442 -146h-138z" />
<glyph unicode="4" d="M98 387q23 315 213.5 600t452.5 363h119l-68 -932h139l-8 -127h-141l-23 -291h-149l22 291h-524zM242 418h422l57 774l-4 2q-174 -84 -314.5 -304t-160.5 -472z" />
<glyph unicode="5" d="M160 -18v127h147q188 0 313 109.5t125 273.5q0 117 -74.5 182t-215.5 65q-57 0 -112.5 -4t-113.5 -10l41 618h629v-133h-502l-22 -342q43 4 71.5 6.5t67.5 2.5q184 0 288.5 -93.5t104.5 -259.5q0 -250 -178 -396t-436 -146h-133z" />
<glyph unicode="6" d="M123 442q0 463 209 682t485 219h129v-122h-131q-166 0 -291 -95.5t-188 -294.5l2 -4q53 29 103.5 41.5t119.5 12.5q158 0 254 -97.5t96 -273.5q0 -244 -126 -386t-302 -142q-164 0 -262 117.5t-98 342.5zM283 446q0 -174 60 -257t157 -83q109 0 179.5 96.5t70.5 274.5 q0 133 -62.5 200.5t-165.5 67.5q-63 0 -116.5 -7t-96.5 -21q-8 -53 -17 -119t-9 -152z" />
<glyph unicode="7" d="M225 1210v133h742l24 -133q-266 -262 -414.5 -590.5t-162.5 -619.5h-152q20 307 154.5 620.5t406.5 587.5v2h-598z" />
<glyph unicode="8" d="M100 285q0 117 69 220t214 185l-61 47q-59 47 -90 107.5t-31 136.5q0 147 114.5 264t276.5 117q152 0 243 -85t91 -204t-65.5 -217t-196.5 -178l73 -47q94 -61 133 -127t39 -142q0 -166 -131 -273t-309 -107q-172 0 -270.5 84t-98.5 219zM252 305q0 -92 65.5 -148.5 t171.5 -56.5q117 0 189 70t72 156q0 68 -30 115t-122 104l-139 88q-104 -66 -155.5 -150t-51.5 -178zM352 999q0 -59 25.5 -104t81.5 -84l121 -84q96 70 147 146.5t51 185.5q0 78 -55.5 129t-149.5 51q-104 0 -162.5 -74.5t-58.5 -165.5z" />
<glyph unicode="9" d="M123 -14v123h131q166 0 291 95t188 294l-2 4q-51 -29 -101 -41t-120 -12q-160 0 -255 104t-95 281q0 244 125 386t301 142q164 0 262 -118t98 -343q0 -463 -209 -689t-485 -226h-129zM319 866q0 -133 63.5 -207.5t164.5 -74.5q63 0 116.5 7t96.5 21q8 53 17 126t9 159 q0 174 -60 257t-157 83q-109 0 -179.5 -96.5t-70.5 -274.5z" />
<glyph unicode=":" horiz-adv-x="417" d="M61 100q0 57 35 94t92 37q49 0 78 -28.5t29 -79.5q0 -66 -33 -100.5t-90 -34.5q-51 0 -81 29.5t-30 82.5zM131 836q0 57 35 94t92 37q49 0 78 -29t29 -80q0 -66 -33 -100.5t-90 -34.5q-51 0 -81 30t-30 83z" />
<glyph unicode=";" horiz-adv-x="417" d="M0 -225l115 237q-23 12 -37.5 35.5t-14.5 56.5q0 51 35 89t86 38q45 0 76 -31.5t31 -80.5q0 -76 -94.5 -210t-124.5 -134h-72zM131 836q0 57 35 94t92 37q49 0 78 -29t29 -80q0 -66 -33 -100.5t-90 -34.5q-51 0 -81 30t-30 83z" />
<glyph unicode="&#x3c;" d="M166 563l4 92l674 392l57 -119l-553 -318l-2 -4l496 -319l-76 -115z" />
<glyph unicode="=" d="M125 356l10 133h766l-10 -133h-766zM158 725l10 133h766l-10 -133h-766z" />
<glyph unicode="&#x3e;" d="M160 287l553 317l2 4l-496 320l74 116l600 -391l-2 -94l-676 -391z" />
<glyph unicode="?" horiz-adv-x="817" d="M133 1174v122q68 33 136.5 47.5t150.5 14.5q160 0 249 -82t89 -211q0 -117 -52.5 -200t-152.5 -138l-107 -59q-70 -39 -98.5 -85t-28.5 -104q0 -27 4.5 -58.5t10.5 -51.5l-123 -11q-14 27 -21.5 63t-7.5 73q0 76 39 143.5t125 120.5l121 76q63 39 95 92t32 125 q0 76 -56.5 123t-148.5 47q-66 0 -127 -11.5t-129 -35.5zM141 100q0 57 33 92t90 35q47 0 75 -27.5t28 -76.5q0 -63 -32 -97t-87 -34q-51 0 -79 28.5t-28 79.5z" />
<glyph unicode="@" horiz-adv-x="1822" d="M90 246q0 510 290 807t673 297q293 0 485.5 -180.5t192.5 -477.5q0 -326 -168 -518t-342 -192q-84 0 -134.5 48t-56.5 136h-6q-68 -94 -142.5 -139t-160.5 -45q-98 0 -161.5 78.5t-63.5 269.5q0 334 146 512t331 178q47 0 83.5 -4t69.5 -12l121 20l-71 -795 q-6 -63 18.5 -94t65.5 -31q121 0 232.5 159t111.5 413q0 268 -153 414.5t-415 146.5q-322 0 -571.5 -260t-249.5 -709q0 -281 135 -415t338 -134q82 0 152.5 13.5t134.5 34.5v-93q-76 -33 -154 -50t-172 -17q-233 0 -396 158.5t-163 480.5zM647 340q0 -125 36 -175t87 -50 q53 0 123.5 50t144.5 150l52 570q-27 6 -62 9t-67 3q-115 0 -214.5 -141.5t-99.5 -415.5z" />
<glyph unicode="A" horiz-adv-x="1083" d="M-18 0l516 1343h227l266 -1343h-170l-65 348h-490l-121 -348h-163zM319 479h418l-137 742h-14z" />
<glyph unicode="B" horiz-adv-x="1077" d="M139 0l101 1343h297q215 0 320.5 -84.5t105.5 -216.5q0 -123 -61.5 -210t-164.5 -119v-2q113 -23 178.5 -97.5t65.5 -177.5q0 -201 -143 -318.5t-379 -117.5h-320zM303 127h148q178 0 274 77t96 199q0 113 -82 173.5t-266 60.5h-133zM348 758h133q166 0 245 71.5 t79 188.5q0 94 -70.5 147.5t-220.5 53.5h-131z" />
<glyph unicode="C" horiz-adv-x="1038" d="M115 567q0 391 206.5 590t462.5 199q76 0 135.5 -7.5t135.5 -21.5l-13 -139q-78 16 -138 23.5t-130 7.5q-186 0 -340.5 -163t-154.5 -458q0 -238 115.5 -357.5t283.5 -119.5q76 0 137.5 7.5t149.5 23.5v-134q-94 -20 -150.5 -27t-150.5 -7q-233 0 -391 150.5t-158 432.5z " />
<glyph unicode="D" horiz-adv-x="1284" d="M139 0l101 1343h348q268 0 434 -156.5t166 -426.5q0 -375 -185.5 -567.5t-488.5 -192.5h-375zM303 131h227q215 0 355.5 148.5t140.5 455.5q0 223 -124 350t-337 127h-182z" />
<glyph unicode="E" horiz-adv-x="931" d="M139 0l101 1343h606l-10 -133h-453l-35 -454h424l-8 -133h-424l-37 -490h481v-133h-645z" />
<glyph unicode="F" horiz-adv-x="886" d="M139 0l101 1343h637l-9 -133h-485l-35 -456h457l-10 -133h-455l-47 -621h-154z" />
<glyph unicode="G" horiz-adv-x="1200" d="M115 555q0 395 208.5 598t487.5 203q84 0 157.5 -7.5t147.5 -21.5l-10 -139q-84 16 -153.5 23.5t-151.5 7.5q-211 0 -366.5 -166t-155.5 -461q0 -233 117.5 -352t289.5 -119q61 0 105.5 2t101.5 10l27 363h-218v135h381l-45 -613q-98 -18 -184 -26t-180 -8 q-244 0 -401.5 150.5t-157.5 420.5z" />
<glyph unicode="H" horiz-adv-x="1251" d="M139 0l101 1343h153l-45 -587h586l43 587h153l-100 -1343h-153l47 621h-584l-47 -621h-154z" />
<glyph unicode="I" horiz-adv-x="514" d="M139 0l101 1343h153l-100 -1343h-154z" />
<glyph unicode="J" horiz-adv-x="626" d="M16 -2v141q20 -6 47 -8t52 -2q72 0 118 47t52 139l73 1028h154l-74 -1028q-12 -160 -102 -243.5t-223 -83.5q-25 0 -52.5 2t-44.5 8z" />
<glyph unicode="K" horiz-adv-x="1124" d="M139 0l101 1343h153l-45 -593h64l512 593h186l-563 -632l506 -711h-197l-442 625h-76l-45 -625h-154z" />
<glyph unicode="L" horiz-adv-x="843" d="M139 0l101 1343h153l-90 -1210h488l-3 -133h-649z" />
<glyph unicode="M" horiz-adv-x="1546" d="M98 0l168 1343h232l270 -890h8l395 890h228l-25 -1343h-155l30 1184h-12l-414 -910h-145l-285 910h-10l-137 -1184h-148z" />
<glyph unicode="N" horiz-adv-x="1251" d="M139 0l101 1343h231l422 -1173h8l86 1173h143l-100 -1343h-231l-422 1176h-8l-86 -1176h-144z" />
<glyph unicode="O" horiz-adv-x="1298" d="M115 537q0 401 178 613t440 212q207 0 338 -156.5t131 -431.5q0 -383 -187.5 -587.5t-430.5 -204.5q-209 0 -339 137t-130 418zM279 567q0 -246 92 -346t239 -100q160 0 294 154.5t134 463.5q0 256 -92 369t-239 113q-172 0 -300 -168t-128 -486z" />
<glyph unicode="P" horiz-adv-x="1040" d="M139 0l101 1343h323q213 0 316.5 -91t103.5 -257q0 -233 -140.5 -362t-365.5 -129q-39 0 -73.5 3t-71.5 9l-39 -516h-154zM340 647q39 -6 75 -8t74 -2q139 0 235.5 85t96.5 236q0 133 -67.5 193.5t-208.5 60.5h-162z" />
<glyph unicode="Q" horiz-adv-x="1298" d="M115 537q0 401 178 613t440 212q207 0 338 -156.5t131 -431.5q0 -315 -131 -510.5t-319 -255.5l243 -362h-174l-219 336h-18q-209 0 -339 137t-130 418zM279 567q0 -246 92 -346t239 -100q160 0 294 154.5t134 463.5q0 256 -92 369t-239 113q-172 0 -300 -168t-128 -486z " />
<glyph unicode="R" horiz-adv-x="1103" d="M139 0l101 1343h319q219 0 321.5 -90t102.5 -247q0 -162 -85 -262.5t-202 -139.5l146 -280q37 -70 80 -141.5t120 -182.5h-188q-61 82 -98 145.5t-74 141.5l-141 280h-205l-43 -567h-154zM344 694h164q145 0 229 71t84 218q0 117 -66 174t-216 57h-156z" />
<glyph unicode="S" horiz-adv-x="874" d="M25 18v144q88 -20 160.5 -29.5t148.5 -9.5q133 0 216 62.5t83 158.5q0 70 -35 121t-135 113l-162 100q-96 61 -141 132t-45 167q0 164 120.5 271.5t309.5 107.5q78 0 132 -5t116 -20l-13 -139q-68 14 -123 21.5t-125 7.5q-121 0 -191.5 -65.5t-70.5 -147.5q0 -66 32 -113 t114 -94l157 -94q125 -74 172.5 -148t47.5 -174q0 -168 -130.5 -283.5t-343.5 -115.5q-76 0 -147 7t-147 25z" />
<glyph unicode="T" horiz-adv-x="927" d="M59 1208l9 135h909l-10 -135h-379l-90 -1208h-154l90 1208h-375z" />
<glyph unicode="U" horiz-adv-x="1196" d="M154 420l69 923h154l-68 -899q-2 -29 -2 -55q1 -137 61 -199q72 -74 216 -73q145 0 228 70.5t91 201.5l74 954h145l-69 -944q-16 -197 -144.5 -306t-349.5 -109q-223 0 -323 112q-85 95 -84 264q0 29 2 60z" />
<glyph unicode="V" horiz-adv-x="997" d="M80 1343h170l225 -1191h8l435 1191h159l-518 -1343h-201z" />
<glyph unicode="W" horiz-adv-x="1677" d="M78 1343h170l213 -1183h10l336 827l-86 356h162l278 -1183h6l385 1183h162l-467 -1343h-203l-182 780h-8l-307 -780h-203z" />
<glyph unicode="X" horiz-adv-x="1026" d="M-6 0l446 686l-311 657h178l234 -516h4l334 516h163l-426 -638l357 -705h-182l-275 563h-4l-352 -563h-166z" />
<glyph unicode="Y" horiz-adv-x="929" d="M49 1343h178l244 -643h6l359 643h168l-476 -794l-41 -549h-153l41 551z" />
<glyph unicode="Z" horiz-adv-x="970" d="M43 0l8 121l688 1081v4h-585l8 137h764l-4 -126l-684 -1076v-4h616v-137h-811z" />
<glyph unicode="[" horiz-adv-x="579" d="M158 -358l147 1701h307l-10 -108h-182l-129 -1489h182l-8 -104h-307z" />
<glyph unicode="\" horiz-adv-x="630" d="M25 1331l120 35l445 -1712l-119 -35z" />
<glyph unicode="]" horiz-adv-x="579" d="M-63 -358l10 108h182l129 1489h-182l8 104h307l-147 -1701h-307z" />
<glyph unicode="^" d="M86 920l446 448l447 -448l-96 -97l-351 353l-350 -353z" />
<glyph unicode="_" d="M18 -98h1024v-135h-1024v135z" />
<glyph unicode="`" horiz-adv-x="806" d="M322 1425h161l158 -297h-123z" />
<glyph unicode="a" horiz-adv-x="940" d="M90 330q0 334 146.5 512t330.5 178q45 0 82 -4t70 -12l123 20l-92 -1024h-142l17 164h-7q-68 -94 -143.5 -138t-159.5 -44q-100 0 -162.5 78.5t-62.5 269.5zM242 340q0 -125 35.5 -175t87.5 -50q53 0 123.5 50t144.5 150l51 570q-27 6 -61.5 9t-67.5 3 q-115 0 -214 -141.5t-99 -415.5z" />
<glyph unicode="b" horiz-adv-x="937" d="M96 -23l131 1440l148 19l-56 -586h7q80 94 149.5 132t145.5 38q104 0 168.5 -81t64.5 -269q0 -344 -149.5 -516t-339.5 -172q-37 0 -75 5t-71 13zM254 117q27 -8 57.5 -10.5t57.5 -2.5q129 0 231 131.5t102 426.5q0 121 -34.5 170t-92.5 49q-47 0 -119.5 -46.5 t-148.5 -134.5z" />
<glyph unicode="c" horiz-adv-x="671" d="M84 340q0 354 141.5 517t306.5 163q49 0 88 -3t78 -11l-12 -134q-45 8 -81 11.5t-79 3.5q-111 0 -200.5 -123t-89.5 -414q0 -129 48 -184t136 -55q53 0 101 10t108 33v-127q-63 -23 -115.5 -34t-112.5 -11q-158 0 -237.5 82.5t-79.5 275.5z" />
<glyph unicode="d" horiz-adv-x="942" d="M90 330q0 334 146.5 512t330.5 178q39 0 71 -3t58 -9l37 409l148 19l-131 -1436h-142l17 164h-7q-70 -94 -144.5 -138t-158.5 -44q-100 0 -162.5 78.5t-62.5 269.5zM242 340q0 -125 35.5 -175t87.5 -50q53 0 123.5 50t144.5 150l53 570q-27 6 -62.5 9t-68.5 3 q-115 0 -214 -141.5t-99 -415.5z" />
<glyph unicode="e" horiz-adv-x="813" d="M84 352q0 338 135 503t291 165q125 0 192.5 -61.5t67.5 -170.5q0 -172 -145.5 -280.5t-393.5 -108.5q0 -168 53.5 -226t151.5 -58q70 0 134.5 18.5t129.5 52.5v-133q-72 -39 -141.5 -55t-163.5 -16q-150 0 -230.5 87.5t-80.5 282.5zM242 514q180 0 278 75t98 181 q0 61 -32.5 92t-91.5 31q-76 0 -154 -93t-98 -286z" />
<glyph unicode="f" horiz-adv-x="530" d="M94 -391l117 1276h-98v116h110l8 111q12 147 109.5 234.5t226.5 87.5q43 0 81 -3.5t77 -11.5l-14 -123q-45 6 -80 8.5t-74 2.5q-70 0 -121 -49.5t-59 -141.5l-10 -115h206l-14 -116h-203l-116 -1276h-146z" />
<glyph unicode="g" horiz-adv-x="940" d="M59 -229q76 -20 143.5 -30.5t135.5 -10.5q117 0 185.5 60t82.5 196l19 178h-7q-70 -94 -144.5 -138t-158.5 -44q-100 0 -162.5 78.5t-62.5 269.5q0 334 146.5 512t330.5 178q45 0 82 -4t70 -12l123 20l-92 -1034q-18 -207 -133 -297t-269 -90q-78 0 -144.5 6t-144.5 20 v142zM242 340q0 -125 35.5 -175t87.5 -50q53 0 123.5 50t144.5 150l51 570q-27 6 -61.5 9t-67.5 3q-115 0 -214 -141.5t-99 -415.5z" />
<glyph unicode="h" horiz-adv-x="952" d="M98 0l129 1417l148 19l-56 -578h7q88 86 161.5 124t143.5 38q105 0 163 -77q45 -60 46 -185q0 -35 -4 -74l-66 -684h-145l63 662q3 33 3 60q-1 75 -21 110q-28 47 -78 47q-47 0 -119 -39t-164 -121l-65 -719h-146z" />
<glyph unicode="i" horiz-adv-x="438" d="M98 0l90 993l148 19l-92 -1012h-146zM203 1317q0 47 27.5 74.5t72.5 27.5q39 0 59.5 -21.5t20.5 -60.5q0 -41 -26.5 -70.5t-73.5 -29.5q-35 0 -57.5 20.5t-22.5 59.5z" />
<glyph unicode="j" horiz-adv-x="438" d="M-84 -264q76 0 122 37t56 137l94 1083l148 19l-94 -1090q-14 -162 -96.5 -237.5t-215.5 -75.5h-14v127zM203 1317q0 47 27.5 74.5t72.5 27.5q39 0 59.5 -21.5t20.5 -60.5q0 -41 -26.5 -70.5t-73.5 -29.5q-35 0 -57.5 20.5t-22.5 59.5z" />
<glyph unicode="k" horiz-adv-x="884" d="M98 0l129 1417l148 19l-49 -537h6q57 59 121.5 90t130.5 31q109 0 174 -63.5t65 -182.5t-73.5 -212t-186.5 -132l144 -231q25 -41 62.5 -94.5t80.5 -104.5h-180q-33 39 -62.5 79t-50.5 77l-127 225l-154 -19l-32 -362h-146zM287 479l80 10q143 16 223 86t80 170 q0 72 -33 106t-86 34q-49 0 -117.5 -32t-120.5 -87z" />
<glyph unicode="l" horiz-adv-x="436" d="M98 0l129 1417l148 19l-131 -1436h-146z" />
<glyph unicode="m" horiz-adv-x="1445" d="M98 0l90 993l146 19l-15 -154h7q88 88 153.5 125t141.5 37q84 0 130 -42t64 -124h4q88 88 161 127t148 39q102 0 160 -78q45 -60 44 -182q0 -36 -3 -76l-65 -684h-146l64 662q3 36 3 65q-1 72 -21 105q-30 47 -77 47t-109.5 -34t-150.5 -110l-71 -735h-148l64 662 q4 40 4 73q0 66 -16 97q-24 47 -78 47q-47 0 -113 -38t-160 -120l-65 -721h-146z" />
<glyph unicode="n" horiz-adv-x="952" d="M98 0l90 993l146 19l-15 -154h7q88 88 161.5 125t143.5 37q105 0 163 -77q45 -60 45 -185q0 -35 -3 -74l-66 -684h-145l63 662q3 36 3 65q-1 72 -21 105q-30 47 -80 47q-45 0 -116 -39t-165 -121l-65 -719h-146z" />
<glyph unicode="o" horiz-adv-x="956" d="M94 389q0 305 132 469t311 164q156 0 245.5 -104.5t89.5 -307.5q0 -297 -134 -462.5t-306 -165.5q-156 0 -247 94t-91 313zM246 408q0 -172 56 -235.5t142 -63.5q100 0 188.5 116.5t88.5 362.5q0 160 -53.5 231.5t-149.5 71.5q-98 0 -185 -120.5t-87 -362.5z" />
<glyph unicode="p" horiz-adv-x="937" d="M63 -391l125 1384l148 19l-19 -164h7q80 94 150.5 133t146.5 39q104 0 168.5 -80t64.5 -270q0 -344 -152.5 -516t-341.5 -172q-35 0 -62.5 4t-53.5 12l-35 -389h-146zM254 117q27 -8 54.5 -10.5t53.5 -2.5q129 0 234.5 131.5t105.5 426.5q0 123 -36.5 171t-90.5 48 q-49 0 -122.5 -47.5t-145.5 -131.5z" />
<glyph unicode="q" horiz-adv-x="940" d="M90 330q0 334 146.5 512t330.5 178q45 0 82 -4t70 -12l123 20l-125 -1415h-146l54 555h-7q-68 -94 -143.5 -138t-159.5 -44q-100 0 -162.5 78.5t-62.5 269.5zM242 340q0 -125 35.5 -175t87.5 -50q53 0 123.5 50t144.5 150l51 570q-27 6 -61.5 9t-67.5 3 q-115 0 -214 -141.5t-99 -415.5z" />
<glyph unicode="r" horiz-adv-x="585" d="M102 0l84 993l146 19l-19 -189h9q70 123 122 160t113 37q18 0 36 -3t32 -11l-19 -144q-16 2 -28.5 3t-30.5 1q-57 0 -121 -53t-121 -147l-57 -666h-146z" />
<glyph unicode="s" horiz-adv-x="696" d="M25 8l2 139q70 -18 120 -25t111 -7q94 0 151.5 42t57.5 101q0 47 -25.5 87t-95.5 87l-96 64q-70 49 -107 105q-34 52 -34 116v10q0 123 96 207t237 84q53 0 100.5 -4t100.5 -13l-12 -133q-59 10 -100.5 15.5t-94.5 5.5q-82 0 -133 -41t-51 -94q0 -47 22.5 -80t77.5 -68 l99 -59q90 -55 128.5 -116.5t38.5 -141.5q0 -125 -106 -216t-264 -91q-70 0 -119 6t-104 20z" />
<glyph unicode="t" horiz-adv-x="583" d="M98 885v116h117l21 216l145 22l-25 -238h207l-12 -116h-207l-59 -588q-3 -32 -3 -57q0 -60 16 -87q24 -38 75 -38q39 0 68.5 6t74.5 20v-129q-51 -18 -89 -24t-99 -6q-104 0 -154 70q-38 53 -39 161q0 34 4 74l62 598h-103z" />
<glyph unicode="u" horiz-adv-x="958" d="M133 319l66 674l147 19l-63 -672q-4 -37 -3 -68q0 -70 18 -102q28 -47 85 -47q47 0 112.5 31.5t161.5 113.5l62 725l147 19l-84 -1012h-141l14 147h-6q-88 -88 -160.5 -126.5t-148.5 -38.5q-106 0 -166 76q-46 59 -45 181q0 37 4 80z" />
<glyph unicode="v" horiz-adv-x="788" d="M70 1001h155l133 -868h9l55 113q76 154 129 331t92 424h152q-39 -238 -104.5 -428t-158.5 -364l-110 -209h-178z" />
<glyph unicode="w" horiz-adv-x="1273" d="M80 1001h156l110 -868h8l47 98q55 115 114.5 274t98.5 300l-28 196h149l115 -868h8l47 98q84 174 132 356.5t75 413.5h152q-31 -238 -89.5 -427t-160.5 -379l-103 -195h-172l-86 610h-4q-29 -117 -67.5 -225.5t-87.5 -206.5l-86 -178h-172z" />
<glyph unicode="x" horiz-adv-x="796" d="M-6 0q63 115 121.5 213t109.5 170l99 139l-228 479h160l168 -380h6l53 84q39 63 82 139t82 157h148q-53 -109 -103.5 -194.5t-101.5 -155.5l-94 -133l264 -518h-160l-205 420h-6l-67 -111q-39 -61 -82 -138t-93 -171h-153z" />
<glyph unicode="y" horiz-adv-x="782" d="M-18 -262q20 -4 43.5 -6t44.5 -2q49 0 102 49t115 190l26 64h-26l-228 968h156l180 -831h6l58 145q57 141 97 298t77 388h149q-43 -238 -97 -413.5t-120 -317.5l-141 -309q-90 -197 -174 -276.5t-189 -79.5q-23 0 -42 2t-37 6v125z" />
<glyph unicode="z" horiz-adv-x="718" d="M16 0v117l523 757v5h-437l11 122h575l17 -120l-525 -756v-2h475v-123h-639z" />
<glyph unicode="{" horiz-adv-x="610" d="M63 434l11 115q123 14 173 59.5t56 104.5l35 401q10 119 69.5 181.5t151.5 62.5q20 0 45 -2t41 -6l-8 -84q-90 0 -130 -31t-46 -96l-35 -400q-8 -98 -77.5 -171.5t-198.5 -80.5v-4q129 -8 186 -62t49 -149l-37 -409q-8 -76 35 -109t131 -33l-8 -79q-18 -6 -45 -10.5 t-47 -4.5q-86 0 -142.5 51.5t-48.5 143.5l37 426q6 66 -37 110.5t-160 75.5z" />
<glyph unicode="|" horiz-adv-x="497" d="M188 -356v1699h119v-1699h-119z" />
<glyph unicode="}" horiz-adv-x="610" d="M-63 -365l6 84q92 0 132 31t46 96l35 400q8 98 76.5 170.5t197.5 81.5v4q-127 8 -184.5 62t-48.5 149l36 409q8 76 -34.5 109t-130.5 33l8 79q16 6 43.5 10.5t48.5 4.5q86 0 141.5 -51.5t46.5 -143.5l-37 -426q-6 -66 38 -110.5t161 -75.5l-10 -115q-123 -14 -173 -59.5 t-56 -104.5l-35 -401q-10 -119 -70.5 -181.5t-153.5 -62.5q-18 0 -42.5 2t-40.5 6z" />
<glyph unicode="~" d="M135 608q53 70 122 110t142 40q96 0 164 -78t144 -78q43 0 85.5 26.5t77.5 71.5l56 -92q-49 -66 -106.5 -105.5t-141.5 -39.5q-90 0 -162 77.5t-149 77.5q-39 0 -87.5 -26.5t-89.5 -77.5z" />
<glyph unicode="&#xa1;" horiz-adv-x="555" d="M14 -354l68 612l35 375l143 8l-84 -973zM100 885q0 57 33 92t90 35q47 0 75 -28t28 -77q0 -63 -32 -97t-87 -34q-51 0 -79 29t-28 80z" />
<glyph unicode="&#xa2;" d="M180 614q2 244 126 387.5t284 174.5l20 210h115l-18 -200q49 -2 97 -7t93 -20l-27 -133q-55 12 -102 17.5t-98 5.5q-125 0 -228.5 -113t-105.5 -311q-2 -172 79 -251t195 -79q55 0 111.5 7t101.5 22v-136q-43 -12 -95 -20t-110 -10l-14 -201h-115l15 207 q-141 23 -233.5 133.5t-90.5 316.5z" />
<glyph unicode="&#xa3;" d="M59 0l13 133h90q49 41 76.5 105.5t35.5 169.5l21 247h-158l13 129h155l19 224q14 162 115.5 255t275.5 93q53 0 101 -6.5t89 -18.5l-12 -137q-41 12 -95.5 19.5t-105.5 7.5q-96 0 -153.5 -55.5t-63.5 -143.5l-16 -238h299l-13 -129h-296l-19 -233q-8 -106 -36.5 -177 t-67.5 -112h336q63 0 121.5 13.5t113.5 37.5l-12 -137q-45 -23 -101.5 -35t-144.5 -12h-580z" />
<glyph unicode="&#xa4;" d="M135 307l115 113q-29 39 -43 87t-14 99t14 98.5t43 88.5l-115 112l96 96l113 -114q39 27 87 42t99 15t98.5 -15.5t88.5 -41.5l112 114l99 -96l-117 -112q27 -41 42 -88.5t15 -98.5t-15 -99t-42 -87l115 -111l-97 -96l-112 113q-39 -29 -87 -43.5t-100 -14.5 q-51 0 -99 14.5t-87 43.5l-113 -115zM326 606q0 -86 59 -145.5t145 -59.5t145.5 59.5t59.5 145.5t-59.5 145.5t-145.5 59.5t-145 -59.5t-59 -145.5z" />
<glyph unicode="&#xa5;" d="M115 1343h176l260 -643h6l361 643h167l-399 -661h250l-12 -133h-316l-12 -170h313l-10 -133h-311l-19 -246h-153l18 246h-305l12 133h303l13 170h-303l12 133h237z" />
<glyph unicode="&#xa6;" horiz-adv-x="497" d="M182 209h129v-565h-129v565zM182 778v565h129v-565h-129z" />
<glyph unicode="&#xa7;" horiz-adv-x="972" d="M37 -197q84 -20 156.5 -28t148.5 -8q141 0 232.5 71.5t91.5 181.5q0 37 -12.5 70t-32.5 60q-25 -8 -51.5 -12.5t-53.5 -4.5q-160 0 -266.5 103.5t-106.5 263.5q0 59 21.5 124.5t60.5 114.5q-35 37 -54 91.5t-19 111.5q0 182 132 298t345 116q78 0 139 -6.5t119 -18.5 l-29 -143q-63 14 -120.5 20t-129.5 6q-147 0 -223 -70.5t-76 -172.5q0 -39 12.5 -71t38.5 -56q33 16 73 26.5t83 10.5q160 0 266.5 -104.5t106.5 -264.5q0 -76 -33 -151.5t-90 -124.5q27 -39 42 -83t15 -102q0 -199 -146.5 -313.5t-359.5 -114.5q-82 0 -146.5 8.5 t-133.5 22.5v149zM285 506q0 -104 64.5 -171t166.5 -67q100 0 166 66.5t66 171.5q0 104 -66 171.5t-166 67.5q-102 0 -166.5 -67.5t-64.5 -171.5z" />
<glyph unicode="&#xa8;" horiz-adv-x="897" d="M231 1247q0 45 22.5 68.5t65.5 23.5q39 0 64 -21.5t25 -62.5q0 -45 -25 -69.5t-68 -24.5q-39 0 -61.5 22.5t-22.5 63.5zM532 1247q0 45 24 68.5t67 23.5q39 0 62.5 -21.5t23.5 -62.5q0 -45 -23.5 -69.5t-67.5 -24.5q-39 0 -62.5 22.5t-23.5 63.5z" />
<glyph unicode="&#xa9;" horiz-adv-x="1617" d="M111 670q0 285 204.5 489.5t491.5 204.5q285 0 489.5 -205t204.5 -489q0 -287 -204.5 -492t-489.5 -205q-287 0 -491.5 205t-204.5 492zM211 670q0 -246 175 -424t421 -178q244 0 419 178t175 424q0 244 -175 423t-419 179q-246 0 -421 -179t-175 -423zM453 623 q0 227 130 343.5t296 116.5q51 0 85.5 -3t84.5 -11l-7 -104q-51 8 -87.5 12t-82.5 4q-111 0 -204 -86t-93 -258q0 -129 66 -196.5t170 -67.5q51 0 91 4t97 12v-98q-61 -14 -99 -18.5t-99 -4.5q-158 0 -253 91.5t-95 263.5z" />
<glyph unicode="&#xaa;" horiz-adv-x="694" d="M137 895q0 219 105.5 333.5t242.5 114.5q33 0 58.5 -4t48.5 -8l98 15l-65 -670h-119l10 102h-4q-49 -61 -102.5 -87.5t-112.5 -26.5q-72 0 -116 52t-44 179zM262 905q0 -76 24.5 -104.5t57.5 -28.5q39 0 85 28t93 81l37 354q-20 4 -41.5 6t-42.5 2q-80 0 -146.5 -83 t-66.5 -255z" />
<glyph unicode="&#xab;" horiz-adv-x="1122" d="M125 512l354 438h168l-352 -428l278 -448h-167zM487 512l355 438h168l-353 -428l279 -448h-168z" />
<glyph unicode="&#xac;" d="M127 723v137h807v-500h-137v363h-670z" />
<glyph unicode="&#xad;" horiz-adv-x="786" d="M158 520v133h522v-133h-522z" />
<glyph unicode="&#xae;" horiz-adv-x="1617" d="M111 670q0 285 204.5 489.5t491.5 204.5q285 0 489.5 -205t204.5 -489q0 -287 -204.5 -492t-489.5 -205q-287 0 -491.5 205t-204.5 492zM211 670q0 -246 175 -424t421 -178q244 0 419 178t175 424q0 244 -175 423t-419 179q-246 0 -421 -179t-175 -423zM512 279l61 796 h220q141 0 210.5 -55t69.5 -152q0 -92 -49 -154.5t-131 -86.5l94 -158q27 -45 57.5 -88t77.5 -102h-147q-37 45 -59.5 77.5t-47.5 77.5l-92 168h-123l-24 -323h-117zM659 694h111q82 0 131 41t49 121q0 66 -41 95.5t-135 29.5h-92z" />
<glyph unicode="&#xaf;" horiz-adv-x="817" d="M158 1157l10 111h485l-10 -111h-485z" />
<glyph unicode="&#xb0;" horiz-adv-x="794" d="M86 1042q0 129 92 222.5t221 93.5t222.5 -93.5t93.5 -222.5t-93.5 -221t-222.5 -92t-221 92t-92 221zM211 1042q0 -78 55.5 -133t132.5 -55q80 0 136.5 55.5t56.5 132.5q0 78 -56.5 134.5t-136.5 56.5q-78 0 -133 -56.5t-55 -134.5z" />
<glyph unicode="&#xb1;" d="M100 0l13 131h766l-13 -131h-766zM150 547l12 129h317l31 340h131l-31 -340h318l-13 -129h-317l-31 -336h-131l31 336h-317z" />
<glyph unicode="&#xb2;" horiz-adv-x="765" d="M139 629q16 82 65.5 153.5t133.5 128.5l94 64q80 49 116 97t36 102q0 59 -43 90.5t-115 31.5q-51 0 -91 -6t-95 -20v110q53 14 108 22.5t107 8.5q123 0 192.5 -57.5t69.5 -155.5q0 -94 -45 -157.5t-168 -143.5l-82 -53q-70 -47 -112 -96.5t-54 -106.5h428v-111h-528z" />
<glyph unicode="&#xb3;" horiz-adv-x="765" d="M141 518v105h109q137 0 223 56t86 144q0 57 -46 97.5t-136 54.5q-35 -16 -70 -26.5t-71 -18.5l-15 94q141 33 235.5 103.5t141.5 166.5h-375v109h477l21 -103q-41 -88 -96.5 -144t-132.5 -101v-2q94 -18 145 -73.5t51 -135.5q0 -141 -124 -233.5t-320 -92.5h-103z" />
<glyph unicode="&#xb4;" horiz-adv-x="806" d="M426 1128l209 297h162l-246 -297h-125z" />
<glyph unicode="&#xb5;" horiz-adv-x="960" d="M76 -244.5q-4 74.5 4 162.5l106 1075l150 19l-64 -672q-12 -123 15.5 -170t83.5 -47q49 0 114.5 31.5t161.5 113.5l62 725l147 19l-61 -744q-6 -80 12 -116.5t43 -36.5q16 0 32.5 3t37.5 11v-123q-25 -10 -51.5 -17t-65.5 -7q-59 0 -104.5 43t-57.5 120h-6 q-86 -88 -157.5 -125.5t-147.5 -37.5q-33 0 -60.5 13t-44.5 34l-8 -95q-8 -111 -3 -182t26 -143h-142q-18 72 -22 146.5z" />
<glyph unicode="&#xb6;" horiz-adv-x="1333" d="M119 684q0 303 163.5 483.5t462.5 180.5q33 0 77 -2.5t77 -2.5h272l-139 -1759h-147l131 1647h-115l-131 -1647h-104l49 625q-31 -10 -79 -16.5t-93 -6.5q-182 0 -303 118t-121 380z" />
<glyph unicode="&#xb7;" horiz-adv-x="417" d="M98 602q0 57 35 94t92 37q49 0 78 -28.5t29 -79.5q0 -66 -33 -101t-90 -35q-51 0 -81 30t-30 83z" />
<glyph unicode="&#xb8;" horiz-adv-x="733" d="M197 -291h77q72 0 106 23.5t34 52.5q0 27 -21.5 39t-85.5 12h-35l17 90h88q80 0 120 -33.5t40 -85.5q0 -84 -73 -141t-200 -57h-67v100z" />
<glyph unicode="&#xb9;" horiz-adv-x="765" d="M244 1270v90q59 20 132 31.5t134 11.5h76l-72 -873h-129l64 760q-45 0 -100.5 -5t-104.5 -15z" />
<glyph unicode="&#xba;" horiz-adv-x="702" d="M135 940q0 199 96.5 304.5t227.5 105.5q113 0 180.5 -69t67.5 -202q0 -197 -97.5 -303t-222.5 -106q-115 0 -183.5 62.5t-68.5 207.5zM264 950q0 -100 38 -138t95 -38q66 0 124.5 69.5t58.5 217.5q0 100 -36 142t-100 42q-66 0 -123 -71.5t-57 -223.5z" />
<glyph unicode="&#xbb;" horiz-adv-x="1122" d="M100 74l351 428l-277 448h168l279 -438l-353 -438h-168zM463 74l350 428l-276 448h168l278 -438l-352 -438h-168z" />
<glyph unicode="&#xbc;" horiz-adv-x="1699" d="M262 1270v90q57 20 131 31.5t135 11.5h76l-72 -873h-129l62 760q-43 0 -98.5 -5t-104.5 -15zM330 -231l1003 1622l99 -64l-1004 -1622zM944 -43q23 195 156 371t309 239h111l-50 -590h99v-106h-109l-16 -180h-121l14 180h-368zM1059 -23h289l38 465h-4 q-117 -63 -210 -190.5t-113 -274.5z" />
<glyph unicode="&#xbd;" horiz-adv-x="1699" d="M262 1270v90q57 20 131 31.5t135 11.5h76l-72 -873h-129l62 760q-43 0 -98.5 -5t-104.5 -15zM330 -231l1003 1622l99 -64l-1004 -1622zM1026 -209q16 82 66.5 153.5t132.5 129.5l96 63q80 49 114.5 97.5t34.5 101.5q0 59 -42 91t-113 32q-51 0 -92.5 -6.5t-96.5 -20.5 v111q55 14 109.5 22t105.5 8q123 0 194 -57t71 -156q0 -94 -45 -157.5t-168 -143.5l-82 -53q-70 -47 -112 -96t-54 -107h428v-110h-531z" />
<glyph unicode="&#xbe;" horiz-adv-x="1699" d="M180 518v105h109q137 0 223 56t86 144q0 57 -46 97.5t-138 54.5q-35 -16 -69 -26.5t-71 -18.5l-14 94q141 33 235.5 103.5t141.5 166.5h-375v109h477l21 -103q-41 -88 -96.5 -144t-135.5 -101v-2q96 -18 147.5 -73.5t51.5 -135.5q0 -141 -124 -233.5t-320 -92.5h-103z M330 -231l1003 1622l99 -64l-1004 -1622zM944 -43q23 195 156 371t309 239h111l-50 -590h99v-106h-109l-16 -180h-121l14 180h-368zM1059 -23h289l38 465h-4q-117 -63 -210 -190.5t-113 -274.5z" />
<glyph unicode="&#xbf;" horiz-adv-x="817" d="M57 -63q0 117 52.5 199.5t150.5 137.5l107 60q72 41 100.5 88t28.5 104q0 25 -5.5 55.5t-11.5 51.5l125 10q12 -25 20.5 -62.5t8.5 -74.5q0 -78 -41 -143.5t-123 -116.5l-123 -78q-63 -39 -94 -91t-31 -124q0 -76 56.5 -124t146.5 -48q68 0 129 11t127 36v-123 q-66 -31 -134.5 -46t-150.5 -15q-160 0 -249 82t-89 211zM446 885q0 57 33 92t90 35q47 0 75 -28t28 -77q0 -63 -32 -97t-87 -34q-51 0 -79 29t-28 80z" />
<glyph unicode="&#xc0;" horiz-adv-x="1083" d="M-18 0l516 1343h227l266 -1343h-170l-65 348h-490l-121 -348h-163zM319 479h418l-137 742h-14zM338 1774h161l158 -297h-123z" />
<glyph unicode="&#xc1;" horiz-adv-x="1083" d="M-18 0l516 1343h227l266 -1343h-170l-65 348h-490l-121 -348h-163zM319 479h418l-137 742h-14zM494 1477l209 297h162l-246 -297h-125z" />
<glyph unicode="&#xc2;" horiz-adv-x="1083" d="M-18 0l516 1343h227l266 -1343h-170l-65 348h-490l-121 -348h-163zM319 479h418l-137 742h-14zM348 1477l217 297h152l160 -297h-142l-96 182h-31l-129 -182h-131z" />
<glyph unicode="&#xc3;" horiz-adv-x="1083" d="M-18 0l516 1343h227l266 -1343h-170l-65 348h-490l-121 -348h-163zM319 479h418l-137 742h-14zM326 1599q39 53 90 85t103 32q72 0 126 -59.5t99 -59.5q33 0 63.5 19.5t57.5 54.5l35 -94q-37 -51 -78 -81t-105 -30q-63 0 -120.5 59.5t-106.5 59.5q-31 0 -64.5 -20.5 t-64.5 -59.5z" />
<glyph unicode="&#xc4;" horiz-adv-x="1083" d="M-18 0l516 1343h227l266 -1343h-170l-65 348h-490l-121 -348h-163zM319 479h418l-137 742h-14zM377 1559q0 45 23.5 68.5t66.5 23.5q39 0 62.5 -21.5t23.5 -62.5q0 -45 -23.5 -69.5t-68.5 -24.5q-39 0 -61.5 22.5t-22.5 63.5zM682 1559q0 45 23.5 68.5t66.5 23.5 q39 0 63 -21.5t24 -62.5q0 -45 -24 -69.5t-67 -24.5q-39 0 -62.5 22.5t-23.5 63.5z" />
<glyph unicode="&#xc5;" horiz-adv-x="1083" d="M-18 0l516 1343h227l266 -1343h-170l-65 348h-490l-121 -348h-163zM319 479h418l-137 742h-14zM463 1606q0 82 51 134t121 52q59 0 99 -42t40 -110q0 -82 -48 -135t-120 -53q-63 0 -103 44t-40 110zM545 1616q0 -39 18.5 -61.5t48.5 -22.5q33 0 57.5 25.5t24.5 72.5 q0 39 -19.5 61.5t-45.5 22.5q-39 0 -61.5 -29.5t-22.5 -68.5z" />
<glyph unicode="&#xc6;" horiz-adv-x="1568" d="M-18 0l796 1343h703l-11 -133h-452l-35 -454h424l-8 -133h-424l-37 -490h481v-133h-645l27 348h-453l-201 -348h-165zM424 479h387l55 742h-14z" />
<glyph unicode="&#xc7;" horiz-adv-x="1038" d="M115 567q0 391 206.5 590t462.5 199q76 0 135.5 -7.5t135.5 -21.5l-13 -139q-78 16 -138 23.5t-130 7.5q-186 0 -340.5 -163t-154.5 -458q0 -238 115.5 -357.5t283.5 -119.5q76 0 137.5 7.5t149.5 23.5v-134q-94 -20 -150.5 -27t-150.5 -7q-233 0 -391 150.5t-158 432.5z M375 -285h79q78 0 115 21.5t37 48.5q0 25 -23.5 38t-87.5 13h-45l15 94h94q88 0 133 -33.5t45 -89.5q0 -84 -82 -141t-211 -57h-69v106z" />
<glyph unicode="&#xc8;" horiz-adv-x="931" d="M139 0l101 1343h606l-10 -133h-453l-35 -454h424l-8 -133h-424l-37 -490h481v-133h-645zM347 1774h161l158 -297h-123z" />
<glyph unicode="&#xc9;" horiz-adv-x="931" d="M139 0l101 1343h606l-10 -133h-453l-35 -454h424l-8 -133h-424l-37 -490h481v-133h-645zM481 1477l209 297h162l-246 -297h-125z" />
<glyph unicode="&#xca;" horiz-adv-x="931" d="M139 0l101 1343h606l-10 -133h-453l-35 -454h424l-8 -133h-424l-37 -490h481v-133h-645zM313 1477l217 297h152l160 -297h-142l-96 182h-31l-129 -182h-131z" />
<glyph unicode="&#xcb;" horiz-adv-x="931" d="M139 0l101 1343h606l-10 -133h-453l-35 -454h424l-8 -133h-424l-37 -490h481v-133h-645zM334 1559q0 45 23.5 68.5t66.5 23.5q39 0 62.5 -21.5t23.5 -62.5q0 -45 -23.5 -69.5t-68.5 -24.5q-39 0 -61.5 22.5t-22.5 63.5zM639 1559q0 45 23.5 68.5t66.5 23.5q39 0 63 -21.5 t24 -62.5q0 -45 -24 -69.5t-67 -24.5q-39 0 -62.5 22.5t-23.5 63.5z" />
<glyph unicode="&#xcc;" horiz-adv-x="514" d="M101 1774h161l158 -297h-123zM139 0l101 1343h153l-100 -1343h-154z" />
<glyph unicode="&#xcd;" horiz-adv-x="514" d="M139 0l101 1343h153l-100 -1343h-154zM248 1477l209 297h162l-246 -297h-125z" />
<glyph unicode="&#xce;" horiz-adv-x="514" d="M67 1477l217 297h152l160 -297h-142l-96 182h-31l-129 -182h-131zM139 0l101 1343h153l-100 -1343h-154z" />
<glyph unicode="&#xcf;" horiz-adv-x="514" d="M94 1559q0 45 23.5 68.5t66.5 23.5q39 0 62.5 -21.5t23.5 -62.5q0 -45 -23.5 -69.5t-68.5 -24.5q-39 0 -61.5 22.5t-22.5 63.5zM139 0l101 1343h153l-100 -1343h-154zM399 1559q0 45 23.5 68.5t66.5 23.5q39 0 63 -21.5t24 -62.5q0 -45 -24 -69.5t-67 -24.5 q-39 0 -62.5 22.5t-23.5 63.5z" />
<glyph unicode="&#xd0;" horiz-adv-x="1284" d="M45 635l10 123h142l43 585h348q268 0 434 -156.5t166 -426.5q0 -375 -185.5 -567.5t-488.5 -192.5h-375l47 635h-141zM303 131h227q215 0 355.5 148.5t140.5 455.5q0 223 -124 350t-337 127h-182l-35 -454h252l-8 -123h-252z" />
<glyph unicode="&#xd1;" horiz-adv-x="1251" d="M139 0l101 1343h231l422 -1173h8l86 1173h143l-100 -1343h-231l-422 1176h-8l-86 -1176h-144zM420 1599q39 53 90 85t103 32q72 0 126 -59.5t99 -59.5q33 0 63.5 19.5t57.5 54.5l35 -94q-37 -51 -78 -81t-105 -30q-63 0 -120.5 59.5t-106.5 59.5q-31 0 -64.5 -20.5 t-64.5 -59.5z" />
<glyph unicode="&#xd2;" horiz-adv-x="1298" d="M115 537q0 401 178 613t440 212q207 0 338 -156.5t131 -431.5q0 -383 -187.5 -587.5t-430.5 -204.5q-209 0 -339 137t-130 418zM279 567q0 -246 92 -346t239 -100q160 0 294 154.5t134 463.5q0 256 -92 369t-239 113q-172 0 -300 -168t-128 -486zM506 1774h161l158 -297 h-123z" />
<glyph unicode="&#xd3;" horiz-adv-x="1298" d="M115 537q0 401 178 613t440 212q207 0 338 -156.5t131 -431.5q0 -383 -187.5 -587.5t-430.5 -204.5q-209 0 -339 137t-130 418zM279 567q0 -246 92 -346t239 -100q160 0 294 154.5t134 463.5q0 256 -92 369t-239 113q-172 0 -300 -168t-128 -486zM641 1477l209 297h162 l-246 -297h-125z" />
<glyph unicode="&#xd4;" horiz-adv-x="1298" d="M115 537q0 401 178 613t440 212q207 0 338 -156.5t131 -431.5q0 -383 -187.5 -587.5t-430.5 -204.5q-209 0 -339 137t-130 418zM279 567q0 -246 92 -346t239 -100q160 0 294 154.5t134 463.5q0 256 -92 369t-239 113q-172 0 -300 -168t-128 -486zM481 1477l217 297h152 l160 -297h-142l-96 182h-31l-129 -182h-131z" />
<glyph unicode="&#xd5;" horiz-adv-x="1298" d="M115 537q0 401 178 613t440 212q207 0 338 -156.5t131 -431.5q0 -383 -187.5 -587.5t-430.5 -204.5q-209 0 -339 137t-130 418zM279 567q0 -246 92 -346t239 -100q160 0 294 154.5t134 463.5q0 256 -92 369t-239 113q-172 0 -300 -168t-128 -486zM450 1599q39 53 90 85 t103 32q72 0 126 -59.5t99 -59.5q33 0 63.5 19.5t57.5 54.5l35 -94q-37 -51 -78 -81t-105 -30q-63 0 -120.5 59.5t-106.5 59.5q-31 0 -64.5 -20.5t-64.5 -59.5z" />
<glyph unicode="&#xd6;" horiz-adv-x="1298" d="M115 537q0 401 178 613t440 212q207 0 338 -156.5t131 -431.5q0 -383 -187.5 -587.5t-430.5 -204.5q-209 0 -339 137t-130 418zM279 567q0 -246 92 -346t239 -100q160 0 294 154.5t134 463.5q0 256 -92 369t-239 113q-172 0 -300 -168t-128 -486zM495 1559 q0 45 23.5 68.5t66.5 23.5q39 0 62.5 -21.5t23.5 -62.5q0 -45 -23.5 -69.5t-68.5 -24.5q-39 0 -61.5 22.5t-22.5 63.5zM800 1559q0 45 23.5 68.5t66.5 23.5q39 0 63 -21.5t24 -62.5q0 -45 -24 -69.5t-67 -24.5q-39 0 -62.5 22.5t-23.5 63.5z" />
<glyph unicode="&#xd7;" d="M154 330l286 274l-239 277l102 96l238 -277l284 275l80 -92l-284 -275l235 -274l-100 -96l-236 274l-287 -274z" />
<glyph unicode="&#xd8;" horiz-adv-x="1298" d="M115 537q0 401 178 613t440 212q63 0 121.5 -16.5t108.5 -47.5l73 123l94 -53l-79 -139q70 -76 110.5 -191.5t40.5 -263.5q0 -383 -187.5 -587.5t-430.5 -204.5q-63 0 -119.5 12t-106.5 37l-63 -111l-94 53l67 121q-72 68 -112.5 178.5t-40.5 264.5zM279 567 q0 -119 19 -198.5t54 -130.5l539 931q-39 27 -85 40.5t-99 13.5q-172 0 -300 -169t-128 -487zM432 160q39 -20 82 -30.5t96 -10.5q160 0 294 155.5t134 464.5q0 119 -19.5 203t-51.5 141z" />
<glyph unicode="&#xd9;" horiz-adv-x="1196" d="M142 420l69 923h154l-68 -899q-14 -180 58.5 -253.5t216.5 -73.5q145 0 228 70.5t91 201.5l74 954h145l-69 -944q-16 -197 -144.5 -306t-349.5 -109q-223 0 -322.5 111.5t-82.5 324.5zM469 1774h161l158 -297h-123z" />
<glyph unicode="&#xda;" horiz-adv-x="1196" d="M142 420l69 923h154l-68 -899q-14 -180 58.5 -253.5t216.5 -73.5q145 0 228 70.5t91 201.5l74 954h145l-69 -944q-16 -197 -144.5 -306t-349.5 -109q-223 0 -322.5 111.5t-82.5 324.5zM604 1477l209 297h162l-246 -297h-125z" />
<glyph unicode="&#xdb;" horiz-adv-x="1196" d="M142 420l69 923h154l-68 -899q-14 -180 58.5 -253.5t216.5 -73.5q145 0 228 70.5t91 201.5l74 954h145l-69 -944q-16 -197 -144.5 -306t-349.5 -109q-223 0 -322.5 111.5t-82.5 324.5zM409 1477l217 297h152l160 -297h-142l-96 182h-31l-129 -182h-131z" />
<glyph unicode="&#xdc;" horiz-adv-x="1196" d="M142 420l69 923h154l-68 -899q-14 -180 58.5 -253.5t216.5 -73.5q145 0 228 70.5t91 201.5l74 954h145l-69 -944q-16 -197 -144.5 -306t-349.5 -109q-223 0 -322.5 111.5t-82.5 324.5zM430 1559q0 45 23.5 68.5t66.5 23.5q39 0 62.5 -21.5t23.5 -62.5q0 -45 -23.5 -69.5 t-68.5 -24.5q-39 0 -61.5 22.5t-22.5 63.5zM735 1559q0 45 23.5 68.5t66.5 23.5q39 0 63 -21.5t24 -62.5q0 -45 -24 -69.5t-67 -24.5q-39 0 -62.5 22.5t-23.5 63.5z" />
<glyph unicode="&#xdd;" horiz-adv-x="929" d="M49 1343h178l244 -643h6l359 643h168l-476 -794l-41 -549h-153l41 551zM457 1477l209 297h162l-246 -297h-125z" />
<glyph unicode="&#xde;" horiz-adv-x="1038" d="M139 0l101 1343h153l-18 -229h170q213 0 316.5 -91t103.5 -257q0 -233 -140.5 -362.5t-365.5 -129.5q-37 0 -74 2.5t-74 8.5l-18 -285h-154zM322 416q35 -6 73.5 -7t75.5 -1q139 0 235.5 83.5t96.5 237.5q0 131 -68 192.5t-209 61.5h-161z" />
<glyph unicode="&#xdf;" horiz-adv-x="972" d="M70 -391l139 1507q14 145 112.5 231.5t247.5 86.5q129 0 207 -68t78 -172q0 -166 -127 -258t-127 -193q0 -39 17.5 -68.5t68.5 -70.5l80 -67q80 -70 112.5 -130.5t32.5 -130.5q0 -129 -105.5 -211.5t-242.5 -82.5q-70 0 -108 6t-93 20v137q66 -18 109 -25t104 -7 q88 0 137.5 36.5t49.5 98.5q0 45 -20.5 86t-77.5 88l-80 72q-74 63 -97.5 113t-23.5 114q0 139 124 231t124 228q0 57 -42 92t-124 35q-76 0 -130.5 -47.5t-62.5 -139.5l-137 -1511h-145z" />
<glyph unicode="&#xe0;" horiz-adv-x="940" d="M90 330q0 334 146.5 512t330.5 178q45 0 82 -4t70 -12l123 20l-92 -1024h-142l17 164h-7q-68 -94 -143.5 -138t-159.5 -44q-100 0 -162.5 78.5t-62.5 269.5zM242 340q0 -125 35.5 -175t87.5 -50q53 0 123.5 50t144.5 150l51 570q-27 6 -61.5 9t-67.5 3 q-115 0 -214 -141.5t-99 -415.5zM342 1428h161l158 -297h-123z" />
<glyph unicode="&#xe1;" horiz-adv-x="940" d="M90 330q0 334 146.5 512t330.5 178q45 0 82 -4t70 -12l123 20l-92 -1024h-142l17 164h-7q-68 -94 -143.5 -138t-159.5 -44q-100 0 -162.5 78.5t-62.5 269.5zM242 340q0 -125 35.5 -175t87.5 -50q53 0 123.5 50t144.5 150l51 570q-27 6 -61.5 9t-67.5 3 q-115 0 -214 -141.5t-99 -415.5zM440 1131l209 297h162l-246 -297h-125z" />
<glyph unicode="&#xe2;" horiz-adv-x="940" d="M90 330q0 334 146.5 512t330.5 178q45 0 82 -4t70 -12l123 20l-92 -1024h-142l17 164h-7q-68 -94 -143.5 -138t-159.5 -44q-100 0 -162.5 78.5t-62.5 269.5zM242 340q0 -125 35.5 -175t87.5 -50q53 0 123.5 50t144.5 150l51 570q-27 6 -61.5 9t-67.5 3 q-115 0 -214 -141.5t-99 -415.5zM295 1131l217 297h152l160 -297h-142l-96 182h-31l-129 -182h-131z" />
<glyph unicode="&#xe3;" horiz-adv-x="940" d="M90 330q0 334 146.5 512t330.5 178q45 0 82 -4t70 -12l123 20l-92 -1024h-142l17 164h-7q-68 -94 -143.5 -138t-159.5 -44q-100 0 -162.5 78.5t-62.5 269.5zM242 340q0 -125 35.5 -175t87.5 -50q53 0 123.5 50t144.5 150l51 570q-27 6 -61.5 9t-67.5 3 q-115 0 -214 -141.5t-99 -415.5zM266 1251q39 53 87 84t101 31q68 0 124.5 -58.5t105.5 -58.5q33 0 63.5 19.5t57.5 54.5l35 -94q-33 -51 -77 -80t-98 -29q-61 0 -122.5 58.5t-108.5 58.5q-33 0 -67.5 -20.5t-65.5 -59.5z" />
<glyph unicode="&#xe4;" horiz-adv-x="940" d="M90 330q0 334 146.5 512t330.5 178q45 0 82 -4t70 -12l123 20l-92 -1024h-142l17 164h-7q-68 -94 -143.5 -138t-159.5 -44q-100 0 -162.5 78.5t-62.5 269.5zM242 340q0 -125 35.5 -175t87.5 -50q53 0 123.5 50t144.5 150l51 570q-27 6 -61.5 9t-67.5 3 q-115 0 -214 -141.5t-99 -415.5zM329 1247q0 45 22.5 68.5t65.5 23.5q39 0 64 -21.5t25 -62.5q0 -45 -25 -69.5t-68 -24.5q-39 0 -61.5 22.5t-22.5 63.5zM630 1247q0 45 24 68.5t67 23.5q39 0 62.5 -21.5t23.5 -62.5q0 -45 -23.5 -69.5t-67.5 -24.5q-39 0 -62.5 22.5 t-23.5 63.5z" />
<glyph unicode="&#xe5;" horiz-adv-x="940" d="M90 330q0 334 146.5 512t330.5 178q45 0 82 -4t70 -12l123 20l-92 -1024h-142l17 164h-7q-68 -94 -143.5 -138t-159.5 -44q-100 0 -162.5 78.5t-62.5 269.5zM242 340q0 -125 35.5 -175t87.5 -50q53 0 123.5 50t144.5 150l51 570q-27 6 -61.5 9t-67.5 3 q-115 0 -214 -141.5t-99 -415.5zM416 1257q0 82 52 134.5t122 52.5q59 0 100 -42t41 -110q0 -82 -49 -135t-121 -53q-63 0 -104 44t-41 109zM500 1268q0 -39 18.5 -61.5t48.5 -22.5q33 0 57.5 25.5t24.5 72.5q0 39 -19.5 61.5t-45.5 22.5q-39 0 -61.5 -29.5t-22.5 -68.5z " />
<glyph unicode="&#xe6;" horiz-adv-x="1368" d="M90 330q0 334 146.5 512t330.5 178q45 0 84 -5.5t72 -13.5l117 23l-11 -109h2q45 51 110 78t124 27q129 0 194.5 -62.5t65.5 -171.5q0 -174 -147.5 -280.5t-391.5 -106.5q0 -166 50.5 -225t150.5 -59q74 0 138.5 18.5t129.5 52.5v-133q-76 -41 -145.5 -56t-165.5 -15 q-123 0 -195.5 56t-91.5 167h-4q-84 -117 -165.5 -170t-170.5 -53q-100 0 -163.5 78.5t-63.5 269.5zM242 338q0 -123 35.5 -173t87.5 -50q55 0 124.5 50t143.5 150l51 570q-31 8 -58.5 10t-66.5 2q-117 0 -217 -142.5t-100 -416.5zM797 514q178 0 277.5 72.5t99.5 183.5 q0 61 -34 92t-91 31q-72 0 -152 -89t-100 -290z" />
<glyph unicode="&#xe7;" horiz-adv-x="671" d="M84 340q0 354 141.5 517t306.5 163q49 0 88 -3t78 -11l-12 -134q-45 8 -81 11.5t-79 3.5q-111 0 -200.5 -123t-89.5 -414q0 -129 48 -184t136 -55q53 0 101 10t108 33v-127q-63 -23 -115.5 -34t-112.5 -11q-158 0 -237.5 82.5t-79.5 275.5zM191 -291h77q72 0 106 23.5 t34 52.5q0 27 -21.5 39t-85.5 12h-35l17 90h88q80 0 120 -33.5t40 -85.5q0 -84 -73 -141t-200 -57h-67v100z" />
<glyph unicode="&#xe8;" horiz-adv-x="813" d="M84 352q0 338 135 503t291 165q125 0 192.5 -61.5t67.5 -170.5q0 -172 -145.5 -280.5t-393.5 -108.5q0 -168 53.5 -226t151.5 -58q70 0 134.5 18.5t129.5 52.5v-133q-72 -39 -141.5 -55t-163.5 -16q-150 0 -230.5 87.5t-80.5 282.5zM242 514q180 0 278 75t98 181 q0 61 -32.5 92t-91.5 31q-76 0 -154 -93t-98 -286zM275 1428h161l158 -297h-123z" />
<glyph unicode="&#xe9;" horiz-adv-x="813" d="M84 352q0 338 135 503t291 165q125 0 192.5 -61.5t67.5 -170.5q0 -172 -145.5 -280.5t-393.5 -108.5q0 -168 53.5 -226t151.5 -58q70 0 134.5 18.5t129.5 52.5v-133q-72 -39 -141.5 -55t-163.5 -16q-150 0 -230.5 87.5t-80.5 282.5zM242 514q180 0 278 75t98 181 q0 61 -32.5 92t-91.5 31q-76 0 -154 -93t-98 -286zM389 1131l209 297h162l-246 -297h-125z" />
<glyph unicode="&#xea;" horiz-adv-x="813" d="M84 352q0 338 135 503t291 165q125 0 192.5 -61.5t67.5 -170.5q0 -172 -145.5 -280.5t-393.5 -108.5q0 -168 53.5 -226t151.5 -58q70 0 134.5 18.5t129.5 52.5v-133q-72 -39 -141.5 -55t-163.5 -16q-150 0 -230.5 87.5t-80.5 282.5zM233 1131l217 297h152l160 -297h-142 l-96 182h-31l-129 -182h-131zM242 514q180 0 278 75t98 181q0 61 -32.5 92t-91.5 31q-76 0 -154 -93t-98 -286z" />
<glyph unicode="&#xeb;" horiz-adv-x="813" d="M84 352q0 338 135 503t291 165q125 0 192.5 -61.5t67.5 -170.5q0 -172 -145.5 -280.5t-393.5 -108.5q0 -168 53.5 -226t151.5 -58q70 0 134.5 18.5t129.5 52.5v-133q-72 -39 -141.5 -55t-163.5 -16q-150 0 -230.5 87.5t-80.5 282.5zM242 514q180 0 278 75t98 181 q0 61 -32.5 92t-91.5 31q-76 0 -154 -93t-98 -286zM258 1247q0 45 22.5 68.5t65.5 23.5q39 0 64 -21.5t25 -62.5q0 -45 -25 -69.5t-68 -24.5q-39 0 -61.5 22.5t-22.5 63.5zM559 1247q0 45 24 68.5t67 23.5q39 0 62.5 -21.5t23.5 -62.5q0 -45 -23.5 -69.5t-67.5 -24.5 q-39 0 -62.5 22.5t-23.5 63.5z" />
<glyph unicode="&#xec;" horiz-adv-x="438" d="M60 1428h161l158 -297h-123zM98 0l90 993l148 19l-92 -1012h-146z" />
<glyph unicode="&#xed;" horiz-adv-x="438" d="M98 0l90 993l148 19l-92 -1012h-146zM176 1131l209 297h162l-246 -297h-125z" />
<glyph unicode="&#xee;" horiz-adv-x="438" d="M20 1131l217 297h152l160 -297h-142l-96 182h-31l-129 -182h-131zM98 0l90 993l148 19l-92 -1012h-146z" />
<glyph unicode="&#xef;" horiz-adv-x="438" d="M47 1247q0 45 22.5 68.5t65.5 23.5q39 0 64 -21.5t25 -62.5q0 -45 -25 -69.5t-68 -24.5q-39 0 -61.5 22.5t-22.5 63.5zM98 0l90 993l148 19l-92 -1012h-146zM348 1247q0 45 24 68.5t67 23.5q39 0 62.5 -21.5t23.5 -62.5q0 -45 -23.5 -69.5t-67.5 -24.5q-39 0 -62.5 22.5 t-23.5 63.5z" />
<glyph unicode="&#xf0;" horiz-adv-x="960" d="M94 391q0 305 131 467t303 162q51 0 92.5 -15.5t71.5 -43.5l6 4q-14 72 -50 136t-81 107l-110 -104l-60 72l88 79q-41 27 -84 39.5t-94 12.5q-45 0 -81 -2t-83 -11l13 123q41 8 77.5 12.5t81.5 4.5q80 0 143.5 -17.5t125.5 -56.5l131 121l67 -80l-110 -103 q104 -96 153 -254.5t49 -406.5q0 -307 -131 -481t-313 -174q-160 0 -248 97t-88 312zM246 412q0 -162 51 -232.5t154 -70.5q102 0 189 123.5t87 367.5q0 59 -1 104.5t-7 102.5q-39 41 -89 62.5t-116 21.5q-94 0 -181 -123t-87 -356z" />
<glyph unicode="&#xf1;" horiz-adv-x="952" d="M98 0l90 993l146 19l-15 -154h7q88 88 161.5 125t143.5 37q106 0 163.5 -77t41.5 -259l-66 -684h-145l63 662q12 123 -17.5 170t-80.5 47q-45 0 -116 -39t-165 -121l-65 -719h-146zM248 1251q39 53 87 84t101 31q68 0 124.5 -58.5t105.5 -58.5q33 0 63.5 19.5t57.5 54.5 l35 -94q-33 -51 -77 -80t-98 -29q-61 0 -122.5 58.5t-108.5 58.5q-33 0 -67.5 -20.5t-65.5 -59.5z" />
<glyph unicode="&#xf2;" horiz-adv-x="956" d="M94 389q0 305 132 469t311 164q156 0 245.5 -104.5t89.5 -307.5q0 -297 -134 -462.5t-306 -165.5q-156 0 -247 94t-91 313zM246 408q0 -172 56 -235.5t142 -63.5q100 0 188.5 116.5t88.5 362.5q0 160 -53.5 231.5t-149.5 71.5q-98 0 -185 -120.5t-87 -362.5zM328 1428 h161l158 -297h-123z" />
<glyph unicode="&#xf3;" horiz-adv-x="956" d="M94 389q0 305 132 469t311 164q156 0 245.5 -104.5t89.5 -307.5q0 -297 -134 -462.5t-306 -165.5q-156 0 -247 94t-91 313zM246 408q0 -172 56 -235.5t142 -63.5q100 0 188.5 116.5t88.5 362.5q0 160 -53.5 231.5t-149.5 71.5q-98 0 -185 -120.5t-87 -362.5zM444 1131 l209 297h162l-246 -297h-125z" />
<glyph unicode="&#xf4;" horiz-adv-x="956" d="M94 389q0 305 132 469t311 164q156 0 245.5 -104.5t89.5 -307.5q0 -297 -134 -462.5t-306 -165.5q-156 0 -247 94t-91 313zM246 408q0 -172 56 -235.5t142 -63.5q100 0 188.5 116.5t88.5 362.5q0 160 -53.5 231.5t-149.5 71.5q-98 0 -185 -120.5t-87 -362.5zM293 1131 l217 297h152l160 -297h-142l-96 182h-31l-129 -182h-131z" />
<glyph unicode="&#xf5;" horiz-adv-x="956" d="M94 389q0 305 132 469t311 164q156 0 245.5 -104.5t89.5 -307.5q0 -297 -134 -462.5t-306 -165.5q-156 0 -247 94t-91 313zM246 408q0 -172 56 -235.5t142 -63.5q100 0 188.5 116.5t88.5 362.5q0 160 -53.5 231.5t-149.5 71.5q-98 0 -185 -120.5t-87 -362.5zM268 1251 q39 53 87 84t101 31q68 0 124.5 -58.5t105.5 -58.5q33 0 63.5 19.5t57.5 54.5l35 -94q-33 -51 -77 -80t-98 -29q-61 0 -122.5 58.5t-108.5 58.5q-33 0 -67.5 -20.5t-65.5 -59.5z" />
<glyph unicode="&#xf6;" horiz-adv-x="956" d="M94 389q0 305 132 469t311 164q156 0 245.5 -104.5t89.5 -307.5q0 -297 -134 -462.5t-306 -165.5q-156 0 -247 94t-91 313zM246 408q0 -172 56 -235.5t142 -63.5q100 0 188.5 116.5t88.5 362.5q0 160 -53.5 231.5t-149.5 71.5q-98 0 -185 -120.5t-87 -362.5zM315 1247 q0 45 22.5 68.5t65.5 23.5q39 0 64 -21.5t25 -62.5q0 -45 -25 -69.5t-68 -24.5q-39 0 -61.5 22.5t-22.5 63.5zM616 1247q0 45 24 68.5t67 23.5q39 0 62.5 -21.5t23.5 -62.5q0 -45 -23.5 -69.5t-67.5 -24.5q-39 0 -62.5 22.5t-23.5 63.5z" />
<glyph unicode="&#xf7;" d="M141 543l11 129h766l-11 -129h-766zM410 291q6 45 31.5 69.5t66.5 24.5t63.5 -24.5t18.5 -69.5t-31 -69.5t-67 -24.5q-41 0 -62.5 24.5t-19.5 69.5zM469 924q4 45 30.5 69.5t67.5 24.5t62.5 -24.5t19.5 -69.5q-6 -45 -31.5 -70t-66.5 -25t-63.5 25t-18.5 70z" />
<glyph unicode="&#xf8;" horiz-adv-x="956" d="M94 389q0 305 132 469t311 164q51 0 94 -12.5t78 -32.5l75 127l88 -55l-84 -144q39 -51 61.5 -123.5t22.5 -171.5q0 -297 -134 -462.5t-306 -165.5q-49 0 -91 9t-77 25l-69 -116l-89 55l76 127q-41 47 -64.5 122t-23.5 185zM244 408q0 -70 5 -114t17 -77l377 639 q-23 18 -53.5 28.5t-71.5 10.5q-98 0 -186 -122.5t-88 -364.5zM328 133q25 -14 54.5 -21.5t61.5 -7.5q100 0 189.5 119t89.5 365q0 51 -5 94t-16 86z" />
<glyph unicode="&#xf9;" horiz-adv-x="958" d="M121 319l66 674l147 19l-63 -672q-12 -123 15.5 -170t84.5 -47q47 0 112.5 31.5t161.5 113.5l62 725l147 19l-84 -1012h-141l14 147h-6q-88 -88 -160.5 -126.5t-148.5 -38.5q-106 0 -165.5 76.5t-41.5 260.5zM330 1428h161l158 -297h-123z" />
<glyph unicode="&#xfa;" horiz-adv-x="958" d="M121 319l66 674l147 19l-63 -672q-12 -123 15.5 -170t84.5 -47q47 0 112.5 31.5t161.5 113.5l62 725l147 19l-84 -1012h-141l14 147h-6q-88 -88 -160.5 -126.5t-148.5 -38.5q-106 0 -165.5 76.5t-41.5 260.5zM444 1131l209 297h162l-246 -297h-125z" />
<glyph unicode="&#xfb;" horiz-adv-x="958" d="M121 319l66 674l147 19l-63 -672q-12 -123 15.5 -170t84.5 -47q47 0 112.5 31.5t161.5 113.5l62 725l147 19l-84 -1012h-141l14 147h-6q-88 -88 -160.5 -126.5t-148.5 -38.5q-106 0 -165.5 76.5t-41.5 260.5zM274 1131l217 297h152l160 -297h-142l-96 182h-31l-129 -182 h-131z" />
<glyph unicode="&#xfc;" horiz-adv-x="958" d="M121 319l66 674l147 19l-63 -672q-12 -123 15.5 -170t84.5 -47q47 0 112.5 31.5t161.5 113.5l62 725l147 19l-84 -1012h-141l14 147h-6q-88 -88 -160.5 -126.5t-148.5 -38.5q-106 0 -165.5 76.5t-41.5 260.5zM315 1247q0 45 22.5 68.5t65.5 23.5q39 0 64 -21.5t25 -62.5 q0 -45 -25 -69.5t-68 -24.5q-39 0 -61.5 22.5t-22.5 63.5zM616 1247q0 45 24 68.5t67 23.5q39 0 62.5 -21.5t23.5 -62.5q0 -45 -23.5 -69.5t-67.5 -24.5q-39 0 -62.5 22.5t-23.5 63.5z" />
<glyph unicode="&#xfd;" horiz-adv-x="782" d="M-18 -262q20 -4 43.5 -6t44.5 -2q49 0 102 49t115 190l26 64h-26l-228 968h156l180 -831h6l58 145q57 141 97 298t77 388h149q-43 -238 -97 -413.5t-120 -317.5l-141 -309q-90 -197 -174 -276.5t-189 -79.5q-23 0 -42 2t-37 6v125zM363 1131l209 297h162l-246 -297h-125z " />
<glyph unicode="&#xfe;" horiz-adv-x="937" d="M63 -391l168 1808l146 19l-58 -586h7q80 92 150.5 131t146.5 39q104 0 168.5 -81t64.5 -269q0 -344 -153.5 -516t-344.5 -172q-31 0 -60.5 4t-55.5 10l-35 -387h-144zM254 115q29 -8 55.5 -10.5t55.5 -2.5q127 0 233.5 132.5t106.5 427.5q0 121 -36 171t-94 50 q-45 0 -117.5 -46.5t-148.5 -134.5z" />
<glyph unicode="&#xff;" horiz-adv-x="782" d="M-18 -262q20 -4 43.5 -6t44.5 -2q49 0 102 49t115 190l26 64h-26l-228 968h156l180 -831h6l58 145q57 141 97 298t77 388h149q-43 -238 -97 -413.5t-120 -317.5l-141 -309q-90 -197 -174 -276.5t-189 -79.5q-23 0 -42 2t-37 6v125zM215 1247q0 45 22.5 68.5t65.5 23.5 q39 0 64 -21.5t25 -62.5q0 -45 -25 -69.5t-68 -24.5q-39 0 -61.5 22.5t-22.5 63.5zM516 1247q0 45 24 68.5t67 23.5q39 0 62.5 -21.5t23.5 -62.5q0 -45 -23.5 -69.5t-67.5 -24.5q-39 0 -62.5 22.5t-23.5 63.5z" />
<glyph unicode="&#x152;" horiz-adv-x="1714" d="M115 537q0 401 178 613t440 212q86 0 159 -27.5t124 -79.5l6 88h606l-10 -133h-453l-35 -454h424l-8 -133h-424l-37 -490h482v-133h-643l8 111q-72 -63 -162 -96t-186 -33q-205 0 -337 134t-132 421zM279 567q0 -246 92 -346t239 -100q92 0 181.5 44t152.5 134l57 766 q-55 76 -128.5 116t-165.5 40q-178 0 -303 -169t-125 -485z" />
<glyph unicode="&#x153;" horiz-adv-x="1429" d="M94 387q0 305 132 466t315 161q104 0 178 -47t112 -138q57 92 131 138.5t158 46.5q133 0 199.5 -62.5t66.5 -173.5q0 -172 -142 -274.5t-390 -102.5v-67q0 -137 46 -178t124 -41q74 0 141.5 16t130.5 51l2 -127q-76 -39 -142 -56t-161 -17q-94 0 -157.5 37.5t-94.5 125.5 q-59 -78 -138 -120.5t-167 -42.5q-158 0 -251 93t-93 312zM250 406q0 -174 57.5 -235.5t157.5 -61.5q92 0 178 117.5t86 357.5q0 154 -55.5 224.5t-155.5 70.5q-104 0 -186 -115.5t-82 -357.5zM866 518q178 0 273.5 66.5t95.5 177.5q0 61 -34 97t-91 36q-76 0 -146.5 -85 t-97.5 -292z" />
<glyph unicode="&#x178;" horiz-adv-x="929" d="M49 1343h178l244 -643h6l359 643h168l-476 -794l-41 -549h-153l41 551zM307 1559q0 45 23.5 68.5t66.5 23.5q39 0 62.5 -21.5t23.5 -62.5q0 -45 -23.5 -69.5t-68.5 -24.5q-39 0 -61.5 22.5t-22.5 63.5zM612 1559q0 45 23.5 68.5t66.5 23.5q39 0 63 -21.5t24 -62.5 q0 -45 -24 -69.5t-67 -24.5q-39 0 -62.5 22.5t-23.5 63.5z" />
<glyph unicode="&#x2c6;" horiz-adv-x="710" d="M176 1128l217 297h152l160 -297h-142l-96 183h-31l-129 -183h-131z" />
<glyph unicode="&#x2dc;" horiz-adv-x="751" d="M174 1251q39 53 87 84t101 31q68 0 124.5 -58.5t105.5 -58.5q33 0 63.5 19.5t57.5 54.5l35 -94q-33 -51 -77 -80t-98 -29q-61 0 -122.5 58.5t-108.5 58.5q-33 0 -67.5 -20.5t-65.5 -59.5z" />
<glyph unicode="&#x2000;" horiz-adv-x="896" />
<glyph unicode="&#x2001;" horiz-adv-x="1792" />
<glyph unicode="&#x2002;" horiz-adv-x="896" />
<glyph unicode="&#x2003;" horiz-adv-x="1792" />
<glyph unicode="&#x2004;" horiz-adv-x="597" />
<glyph unicode="&#x2005;" horiz-adv-x="448" />
<glyph unicode="&#x2006;" horiz-adv-x="298" />
<glyph unicode="&#x2007;" horiz-adv-x="298" />
<glyph unicode="&#x2008;" horiz-adv-x="224" />
<glyph unicode="&#x2009;" horiz-adv-x="358" />
<glyph unicode="&#x200a;" horiz-adv-x="99" />
<glyph unicode="&#x2010;" horiz-adv-x="786" d="M158 520v133h522v-133h-522z" />
<glyph unicode="&#x2011;" horiz-adv-x="786" d="M158 520v133h522v-133h-522z" />
<glyph unicode="&#x2012;" horiz-adv-x="786" d="M158 520v133h522v-133h-522z" />
<glyph unicode="&#x2013;" horiz-adv-x="1024" d="M59 522v129h906v-129h-906z" />
<glyph unicode="&#x2014;" horiz-adv-x="2048" d="M59 522v129h1930v-129h-1930z" />
<glyph unicode="&#x2018;" horiz-adv-x="417" d="M133 1085q0 76 92 209t123 133h72l-115 -237q20 -10 34.5 -35.5t14.5 -56.5q0 -51 -33.5 -85t-84.5 -34q-45 0 -74 27.5t-29 78.5z" />
<glyph unicode="&#x2019;" horiz-adv-x="417" d="M104 977l115 237q-20 12 -34.5 37t-14.5 58q0 49 34 82.5t85 33.5q45 0 73.5 -27.5t28.5 -76.5q0 -76 -92 -210t-123 -134h-72z" />
<glyph unicode="&#x201a;" horiz-adv-x="417" d="M0 -225l115 237q-20 12 -34.5 36.5t-14.5 55.5q0 51 33.5 85t84.5 34q45 0 74 -27.5t29 -76.5q0 -76 -92.5 -210t-122.5 -134h-72z" />
<glyph unicode="&#x201c;" horiz-adv-x="749" d="M133 1085q0 76 92 209t123 133h72l-115 -237q20 -10 34.5 -35.5t14.5 -56.5q0 -51 -33.5 -85t-84.5 -34q-45 0 -74 27.5t-29 78.5zM463 1085q0 76 92 209t125 133h70l-113 -237q20 -10 34.5 -35.5t14.5 -56.5q0 -51 -34 -85t-85 -34q-47 0 -75.5 27.5t-28.5 78.5z" />
<glyph unicode="&#x201d;" horiz-adv-x="749" d="M104 977l115 237q-20 12 -34.5 37t-14.5 58q0 49 34 82.5t85 33.5q45 0 73.5 -27.5t28.5 -76.5q0 -76 -92 -210t-123 -134h-72zM436 977l113 237q-20 12 -34.5 37t-14.5 58q0 49 33.5 82.5t84.5 33.5q47 0 76 -27.5t29 -76.5q0 -76 -92 -210t-125 -134h-70z" />
<glyph unicode="&#x201e;" horiz-adv-x="749" d="M0 -225l115 237q-20 12 -34.5 36.5t-14.5 55.5q0 51 33.5 85t84.5 34q45 0 74 -27.5t29 -76.5q0 -76 -92.5 -210t-122.5 -134h-72zM332 -225l112 237q-20 12 -34.5 36.5t-14.5 55.5q0 51 34 85t85 34q47 0 75.5 -27.5t28.5 -76.5q0 -76 -92 -210t-125 -134h-69z" />
<glyph unicode="&#x2022;" horiz-adv-x="614" d="M92 598q0 104 56.5 166.5t160.5 62.5q96 0 152.5 -55t56.5 -160q0 -100 -57.5 -162.5t-157.5 -62.5t-155.5 55.5t-55.5 155.5z" />
<glyph unicode="&#x2026;" horiz-adv-x="1144" d="M61 104q0 57 35 94.5t92 37.5q49 0 78 -29t29 -80q0 -66 -33 -100.5t-90 -34.5q-51 0 -81 29.5t-30 82.5zM424 104q0 57 35 94.5t92 37.5q49 0 77.5 -29t28.5 -80q0 -66 -32.5 -100.5t-89.5 -34.5q-51 0 -81 29.5t-30 82.5zM786 104q0 57 35 94.5t92 37.5q49 0 78 -29 t29 -80q0 -66 -33 -100.5t-90 -34.5q-51 0 -81 29.5t-30 82.5z" />
<glyph unicode="&#x202f;" horiz-adv-x="358" />
<glyph unicode="&#x2039;" horiz-adv-x="759" d="M125 512l354 438h168l-352 -428l278 -448h-167z" />
<glyph unicode="&#x203a;" horiz-adv-x="759" d="M82 74l350 428l-276 448h168l278 -438l-352 -438h-168z" />
<glyph unicode="&#x205f;" horiz-adv-x="448" />
<glyph unicode="&#x20ac;" d="M33 446l8 121h127q0 47 3 92.5t9 85.5h-125l8 123h146q72 242 244 365t372 123q70 0 128.5 -7.5t131.5 -21.5l-8 -135q-80 14 -138 20.5t-128 6.5q-135 0 -258 -91.5t-180 -259.5h465l-11 -123h-485q-6 -37 -9 -75.5t-3 -79.5v-23h483l-8 -121h-465q33 -166 135.5 -245.5 t239.5 -79.5q74 0 133 6t145 23v-134q-94 -20 -149.5 -26t-143.5 -6q-205 0 -350 116.5t-176 345.5h-141z" />
<glyph unicode="&#x2122;" horiz-adv-x="1607" d="M135 1241l6 102h529l-6 -102h-203l-45 -627h-121l47 627h-207zM727 614l72 729h168l149 -436h4l199 436h149l9 -729h-117l-2 584h-4l-209 -444h-86l-164 444h-4l-49 -584h-115z" />
<glyph unicode="&#x25fc;" horiz-adv-x="1003" d="M0 0v1004h1004v-1004h-1004z" />
</font>
</defs>
</svg>
