<?xml version="1.0" encoding="UTF-8" standalone="no"?>
<svg width="104px" height="116px" viewBox="0 0 104 116" version="1.1" xmlns="http://www.w3.org/2000/svg" xmlns:xlink="http://www.w3.org/1999/xlink">
    <!-- Generator: Sketch 39.1 (31720) - http://www.bohemiancoding.com/sketch -->
    <title>Fill 1</title>
    <desc>Created with Sketch.</desc>
    <defs></defs>
    <g id="Page-1" stroke="none" stroke-width="1" fill="none" fill-rule="evenodd">
        <path d="M29.5278,8.3972 C27.6348,11.2932 27.4358,15.7532 27.4538,19.9582 C27.4708,23.9952 27.3718,27.7982 27.7308,29.7622 C24.9598,29.6282 23.7998,31.8502 24.2268,39.3802 C24.6068,46.0542 27.2718,47.4962 28.8618,48.4122 C30.2658,55.1622 32.9698,61.5542 37.7588,66.3882 L37.7688,66.3182 C37.4738,68.0732 37.1008,69.9392 36.6198,71.7932 C30.0258,74.1072 13.8508,80.1352 9.1148,85.1292 C3.1458,91.4192 -0.0002,115.1132 -0.0002,115.1132 L103.9018,115.1132 C103.9018,115.1132 100.7568,91.4192 94.7868,85.1292 C90.0608,80.1442 73.9368,74.1302 67.3208,71.8062 C66.7748,69.9682 66.3678,68.1232 66.0588,66.3882 C70.8488,61.5542 73.6368,55.1622 75.0408,48.4122 C76.6308,47.4962 79.2118,46.0542 79.5908,39.3802 C80.0178,31.8502 78.8588,29.6282 76.0878,29.7622 C76.4438,27.8132 76.4728,24.1112 76.4448,20.1402 C76.4148,15.9412 76.2168,11.4422 74.5208,8.3972 C72.4148,4.6142 69.4548,2.3952 63.6818,3.7632 C58.6288,1.3332 53.3068,-1.2768 44.4008,0.6922 C34.3638,2.9132 30.8178,6.4242 29.5278,8.3972" id="Fill-1" fill="#BABABA"></path>
    </g>
</svg>